<svg id="Capa_1" data-name="Capa 1" xmlns="http://www.w3.org/2000/svg" xmlns:xlink="http://www.w3.org/1999/xlink" viewBox="0 0 2610.83 4218"><defs><style>.cls-1{fill:#f1f1f0}.cls-2,.cls-46,.cls-50,.cls-55{fill:#fff}.cls-4{font-size:21px;fill:#9a9aaf}.cls-10,.cls-4{font-family:Poppins-Medium,Poppins}.cls-10{font-size:25px;fill:#1d1e1e}.cls-14,.cls-15,.cls-18,.cls-20,.cls-60,.cls-61{fill:none;stroke-miterlimit:10}.cls-18,.cls-20{stroke-width:2px}.cls-14,.cls-15,.cls-18{stroke:#fff}.cls-15{stroke-width:.75px}.cls-20,.cls-60,.cls-61{stroke:#b2b2ab}.cls-21{font-size:22px}.cls-21,.cls-31,.cls-44,.cls-57,.cls-58,.cls-59{fill:#1d1d1b}.cls-21,.cls-56{font-family:Poppins-SemiBold,Poppins}.cls-21,.cls-55,.cls-56{font-weight:700}.cls-22{font-size:16px}.cls-22,.cls-24{fill:#b2b2ab}.cls-22,.cls-24,.cls-44,.cls-57,.cls-58,.cls-59{font-family:Poppins-Light,Poppins}.cls-56,.cls-57{font-size:17px}.cls-24,.cls-44{font-size:23px}.cls-26{fill:#43a657}.cls-29{fill:#267fc3}.cls-55{font-family:Poppins-Bold,Poppins}.cls-46,.cls-55,.cls-59{font-size:19px}.cls-46,.cls-50{font-family:Poppins-Regular,Poppins}.cls-50{font-size:24px}.cls-56{fill:#3a7fc2}.cls-58{font-size:15px}.cls-60{stroke-width:.65px}</style></defs><rect class="cls-1" x="111.97" y="178.61" width="556.09" height="473" rx="3.23" ry="3.23"/><path class="cls-2" d="M216.76 205.2h414.05v83.4H216.76zM216.09 315.27h414.05v85H216.09zM216.09 425.94h414.05v85H216.09zM215.42 537.27h414.05v85H215.42z"/><path fill="#32a4dd" d="M139.54 205.2h76.22v83.4h-76.22z"/><text class="cls-4" transform="translate(241.69 274.42)">Ventas del Mes</text><text transform="translate(267.1 239.94)" font-size="25" font-family="Poppins-Medium,Poppins" fill="#32a4dd">11,200.00</text><path fill="#009777" d="M139.87 315.2h76.22v83.4h-76.22z"/><text class="cls-4" transform="translate(244.03 384.42)">Nuevos Clientes</text><text transform="translate(319.44 350.94)" fill="#009777" font-size="25" font-family="Poppins-Medium,Poppins">7</text><path fill="#1d1e1e" d="M139.37 426.7h76.22v83.4h-76.22z"/><path fill="#ee9168" d="M139.37 537.37h76.22v83.4h-76.22z"/><text class="cls-4" transform="translate(243.03 495.92)">Ordenes Abiertas</text><text class="cls-10" transform="translate(326.94 462.44)">2</text><text class="cls-4" transform="translate(243.69 606.26)">Facturado Hoy</text><text transform="translate(259.94 573.44)" fill="#b83b39" font-size="25" font-family="Poppins-Medium,Poppins">23,560.00</text><text class="cls-10" transform="translate(416.94 469.44)">+</text><rect x="162.52" y="446.89" width="31.5" height="43.75" rx="2.63" ry="2.63" stroke-width="3" stroke="#feffff" fill="none" stroke-miterlimit="10"/><rect x="162.52" y="457.89" width="31.5" height="32.5" rx="2.63" ry="2.63" stroke-width="2" stroke="#feffff" fill="none" stroke-miterlimit="10"/><path class="cls-2" d="M166.48 462.01h6.14v6.98h-6.14zM175.27 462.03h6.14v6.98h-6.14zM184.02 462.05h6.14v6.98h-6.14zM166.42 470.84h6.14v6.98h-6.14zM175.27 470.91h6.14v6.98h-6.14zM166.42 479.63h6.14v6.98h-6.14zM175.27 479.7h6.14v6.98h-6.14zM184.04 470.88h6.14v15.79h-6.14z"/><path class="cls-14" d="M192.24 244.92v-4.82h-37.25v18.88h25.31M187.18 239.92l-28.69-9.42-2.09 6.37"/><path class="cls-14" d="M165.53 230.83l3.82-3.54 14.84 11.76"/><circle class="cls-14" cx="174.3" cy="249.61" r="6.25"/><path class="cls-14" d="M-2912.34-1906.9a6.25 6.25 0 0 1 2.5-5 6.18 6.18 0 0 0-3.75-1.26 6.25 6.25 0 0 0-6.25 6.25 6.25 6.25 0 0 0 6.25 6.25 6.18 6.18 0 0 0 3.75-1.26 6.25 6.25 0 0 1-2.5-4.98z" transform="translate(3080.06 2156.34)"/><ellipse class="cls-15" cx="191.68" cy="246.7" rx="7.94" ry="1.84"/><ellipse class="cls-15" cx="191.61" cy="249.57" rx="7.94" ry="1.03"/><ellipse class="cls-15" cx="191.55" cy="251.39" rx="7.94" ry="1.03"/><ellipse class="cls-15" cx="191.74" cy="253.76" rx="7.94" ry="1.09"/><ellipse class="cls-15" cx="191.68" cy="255.86" rx="7.94" ry="1.06"/><ellipse class="cls-15" cx="191.61" cy="257.98" rx="7.94" ry="1.06"/><ellipse class="cls-15" cx="191.61" cy="260.11" rx="7.94" ry="1.06"/><ellipse class="cls-15" cx="191.68" cy="262.29" rx="7.94" ry="1.06"/><ellipse class="cls-15" cx="191.68" cy="264.67" rx="7.94" ry="1.06"/><path class="cls-15" d="M186.53 243.98h-6.92"/><text transform="translate(172.28 252.61)" font-size="8.81" font-family="MyriadPro-Regular,Myriad Pro" fill="#fff">$</text><rect x="158.31" y="336.39" width="34.13" height="43" rx="6" ry="6" stroke="#fff" stroke-width="3" fill="none" stroke-miterlimit="10"/><circle class="cls-18" cx="175.92" cy="352.2" r="5.94"/><path class="cls-18" d="M-2913.12-1785.45a6.8 6.8 0 0 1 2-6.68c3.9-3.3 12.28-2.74 15 .79a5.6 5.6 0 0 1 .28 5.86" transform="translate(3080.06 2156.34)"/><path class="cls-2" d="M192.19 343.14h5.5v6.38h-5.5zM192.19 354.27h5.5v6.38h-5.5zM192.19 365.52h5.5v6.38h-5.5z"/><ellipse class="cls-18" cx="176.97" cy="581.86" rx="19.25" ry="18.75"/><path class="cls-18" d="M-2919.42-1584.77c-2.41-3.79-1.75-8.56 1.08-11.09 3.43-3.05 9.65-2.48 12.83 2.09M-2901.07-1593c2.27-3.86 6.81-5.46 10.36-4.1 4.28 1.66 6.61 7.45 4 12.37" transform="translate(3080.06 2156.34)"/><path class="cls-18" d="M176.55 570.77v12.17l6.09 5.17M165.09 595.81l-4.58 4.59M188.42 595.99l4.35 4.81"/><rect class="cls-1" x="1930.61" y="637.03" width="556" height="738" rx="8.67" ry="8.67"/><rect class="cls-2" x="1950.18" y="653.03" width="520.47" height="704.07" rx="15.7" ry="15.7"/><path d="M2024.92 1221.7q12.51-47.36 25.17-94.67 6.48-24.26 13-48.5a131.45 131.45 0 0 1 17-25c8.32-9.61 13.27-12.4 19.5-21a75.74 75.74 0 0 0 12-26.17 377.83 377.83 0 0 1 29-63.83 376.47 376.47 0 0 1 25-38.17c5.85-5.86 11.83-8.83 13-6.33 31 66.33 81 239 107.33 296 1.81 3.93 4.62 15.76 11.67 17 9.44 1.66 17.31-16.74 40-40.33a227.11 227.11 0 0 1 24-21.67c6.8-5.3 11.63-4.86 13.5-4.5 3.1.6 5.87 2.5 15 15 5.36 7.35 9.15 13.2 10 14.5 3.46 5.34 8.49 13 14.83 22.33" stroke-width="4" stroke="#43a657" fill="none" stroke-miterlimit="10"/><path class="cls-20" d="M2436.92 722.37h-460.67"/><text class="cls-21" transform="translate(1973.25 687.78)">Flujo de Caja</text><text class="cls-22" transform="translate(1983.25 855.69)">100</text><text class="cls-22" transform="translate(1989.25 949.69)">75</text><text class="cls-22" transform="translate(1988.25 1044.36)">50</text><text class="cls-22" transform="translate(1987.92 1139.69)">25</text><text class="cls-22" transform="translate(1997.58 1234.03)">0</text><text transform="translate(2006.83 1260.78)" font-size="17" font-family="Poppins-Light,Poppins" fill="#b2b2ab">2018</text><text class="cls-24" transform="translate(2235.25 763.36)">Pagos</text><text class="cls-24" transform="translate(2099.58 763.03)">Cobros</text><text class="cls-24" transform="translate(2357.58 763.03)">Credito</text><ellipse cx="2085.25" cy="755.19" rx="10.33" ry="10.83" fill="#0f97bc"/><ellipse class="cls-26" cx="2219.58" cy="755.53" rx="10.33" ry="10.83"/><ellipse cx="2342.25" cy="755.19" rx="10.33" ry="10.83" fill="#292928"/><path d="M2025.25 1166.03c4-31 7-56.38 9-74 3.45-30.34 5-46.29 9-76.33 0 0 3.65-27.12 11.67-66 6.31-30.61 8-32.35 9-32.34 5.45.06 8.57 47.43 13.33 105 8.07 97.47 16.16 195.14 24.84 195.17 2.54 0 5.56-15.33 11.5-46 10.75-55.61 15.5-86 15.5-86 4.82-30.89 6.59-46.25 12.5-47 3.74-.48 8.38 6.51 17.5 20.5 12.89 19.78 15 27.79 19 27.5 2.77-.2 5.32-4.37 13.5-40.5 3.79-16.76 6.84-31.77 14-50.5 7.65-20 10.92-20.54 12-20.5 3.71.13 6.88 7.48 13.5 38 6.66 30.74 17.46 60.74 21 92 .55 4.88 1.56 14.8 6.87 16.62s13.12-5.24 22-13.29c10.31-9.39 11.08-13 15.67-13.33 5.51-.38 7.46 4.65 21.33 15 8.9 6.64 13.44 10 18 9.67 7.2-.46 12-7.6 19.33-19 16.16-25 24.25-37.49 24.34-37.67 11.77-23.34 24.3-48.86 37.33-76.67" stroke="#267fc3" stroke-width="4" fill="none" stroke-miterlimit="10"/><ellipse class="cls-29" cx="2336.33" cy="1119.61" rx="5.67" ry="5.75"/><ellipse class="cls-29" cx="2416.21" cy="987.82" rx="5.67" ry="5.75"/><ellipse class="cls-29" cx="2375.21" cy="1069.82" rx="5.67" ry="5.75"/><ellipse class="cls-26" cx="2256.08" cy="1116.03" rx="5.67" ry="5.75"/><ellipse class="cls-29" cx="2296.58" cy="1095.03" rx="5.67" ry="5.75"/><ellipse class="cls-29" cx="2254.58" cy="1119.03" rx="5.67" ry="5.75"/><ellipse class="cls-29" cx="2217.58" cy="975.03" rx="5.67" ry="5.75"/><ellipse class="cls-29" cx="2178.08" cy="1085.03" rx="5.67" ry="5.75"/><ellipse class="cls-29" cx="2139.08" cy="1039.53" rx="5.67" ry="5.75"/><ellipse class="cls-29" cx="2099.08" cy="1217.03" rx="5.67" ry="5.75"/><ellipse class="cls-26" cx="2024.42" cy="1219.36" rx="5.67" ry="5.75"/><ellipse class="cls-26" cx="2099.58" cy="1032.53" rx="5.67" ry="5.75"/><ellipse class="cls-26" cx="2139.08" cy="944.53" rx="5.67" ry="5.75"/><ellipse class="cls-26" cx="2177.58" cy="899.53" rx="5.67" ry="5.75"/><ellipse class="cls-26" cx="2218.58" cy="1003.53" rx="5.67" ry="5.75"/><ellipse class="cls-26" cx="2296.08" cy="1209.53" rx="5.67" ry="5.75"/><ellipse class="cls-26" cx="2336.58" cy="1171.53" rx="5.67" ry="5.75"/><ellipse class="cls-26" cx="2375.08" cy="1146.03" rx="5.67" ry="5.75"/><ellipse class="cls-26" cx="2414.58" cy="1194.53" rx="5.67" ry="5.75"/><ellipse class="cls-29" cx="2024.08" cy="1164.03" rx="5.67" ry="5.75"/><ellipse class="cls-29" cx="2064.42" cy="918.03" rx="5.67" ry="5.75"/><path d="M2025.06 894.53c3.28 19.11 8.56 48.39 16 84 20.56 98.5 35.13 137.44 45.5 162 2.72 6.46 36.49 85.65 51.5 81.5 5.08-1.41 6.29-11.88 7-18.5 7.11-67.06 16.14-133.91 23-201 3.29-32.22 8.18-65.68 15.75-66 2.36-.1 4.57 3.35 9 10.25 6.66 10.4 7.61 16.56 13.5 28.75 5.63 11.66 9.09 18.84 13.5 18.75 4-.09 5.8-6 12.5-18.25 7.62-13.94 16.63-30.42 22.75-29.5 5.78.86 7.79 17.12 8.25 20.75 3.3 26 12.07 70.75 31 149 10.38 23.58 18.68 28.07 24.25 28 19.19-.26 31.28-55.25 60-159.25 15.86-57.47 29.58-103.7 38.33-132.67" stroke="#1d1d1b" stroke-width="4" fill="none" stroke-miterlimit="10"/><ellipse class="cls-31" cx="2024.58" cy="895.94" rx="5.67" ry="5.75"/><ellipse class="cls-31" cx="2064.25" cy="1074.36" rx="5.67" ry="5.75"/><ellipse class="cls-31" cx="2103.54" cy="1177.61" rx="5.67" ry="5.75"/><ellipse class="cls-31" cx="2140.17" cy="1221.23" rx="5.67" ry="5.75"/><ellipse class="cls-31" cx="2178.25" cy="941.19" rx="5.67" ry="5.75"/><ellipse class="cls-31" cx="2218.17" cy="994.03" rx="5.67" ry="5.75"/><ellipse class="cls-31" cx="2256.75" cy="949.03" rx="5.67" ry="5.75"/><ellipse class="cls-31" cx="2298.25" cy="1125.53" rx="5.67" ry="5.75"/><ellipse class="cls-31" cx="2335.25" cy="1127.53" rx="5.67" ry="5.75"/><ellipse class="cls-31" cx="2374.58" cy="997.53" rx="5.67" ry="5.75"/><ellipse class="cls-31" cx="2416.58" cy="853.03" rx="5.67" ry="5.75"/><path class="cls-2" d="M148.49 1597.62h6.96v7.07h-6.96z"/><rect class="cls-1" x="57.54" y="1353.88" width="556" height="627.35" rx="8.67" ry="8.67"/><path class="cls-2" d="M70.29 1369.84h527.67v583.11H70.29z"/><path d="M-2960.85-401.55l61.67-14.51a153.65 153.65 0 0 1 8.59-85 153.15 153.15 0 0 1 48-63.28c11.36-8.81 43.14-31 89-32.4 61.32-1.87 101.63 34.86 109.68 42.53 32.6 31 42.18 67.66 45.16 82.17l62.84-9.28a215.17 215.17 0 0 0-24.94-70.36 216.84 216.84 0 0 0-76.49-78.3 217.49 217.49 0 0 0-112.55-31.38c-19.32 0-71.05 2.8-122.32 38.47-46.24 32.18-67.33 73.92-75.81 94.15-23.98 57.04-16.63 107.83-12.83 127.19z" transform="translate(3080.06 2156.34)" fill="#d04241"/><path d="M189.64 1741.34c-2.22-11.36-10.23-59.57 16.17-104.28 24.13-40.86 61.26-56.18 72.79-60.74a148.26 148.26 0 0 1 72.11-9.45 148.91 148.91 0 0 1 48.52 15.47 145.62 145.62 0 0 1 30.33 20.93 143.23 143.23 0 0 1 22.24 25.64 148.55 148.55 0 0 1 22.91 56.7" stroke="#d04241" stroke-width="3" fill="none" stroke-miterlimit="10"/><path fill="#25437b" d="M481.87 1688.64v8.1l57.12-4.55-1.01-12.15-56.11 8.6z"/><path d="M-2952.76-397.84l55.35-12.34a159.49 159.49 0 0 0 20.47 47.27c4.62 7.16 40.85 61.5 103.62 69.35a124.36 124.36 0 0 0 22 .76q-.12 28.73-.25 57.45a200.36 200.36 0 0 1-47.51-5.57c-10.93-2.63-51.31-13.35-90-48.09-33.35-30-48-62.11-51.56-70.36a195 195 0 0 1-12.12-38.47z" transform="translate(3080.06 2156.34)" fill="#ef80ac"/><path d="M-2745.52-292.55v57.71a217.75 217.75 0 0 0 64.19-12.16 216.42 216.42 0 0 0 89-59.23 209 209 0 0 0 47.51-92.13 206.38 206.38 0 0 0 4.55-59.73l-56.61 4.05a153.47 153.47 0 0 1-8.09 58.55c-16.3 46.91-56.59 86.6-105.47 98.88a136.57 136.57 0 0 1-35.08 4.06z" transform="translate(3080.06 2156.34)" fill="#00987c"/><text class="cls-21" transform="translate(96.21 1421.53)">Estado de Gastos</text><text transform="translate(200.08 1705.84)" font-family="Poppins-Bold,Poppins" font-size="23.29" font-weight="700" fill="#1d1d1b">Gastos De Activos Fijo</text><text transform="translate(275.9 1753.93)" font-size="39.48" font-weight="700" font-family="Poppins-SemiBold,Poppins" fill="#1d1d1b">9,000</text><path stroke="#b2b2ab" stroke-width="3" fill="none" stroke-miterlimit="10" d="M98.65 1457.48h468.39"/><rect class="cls-1" x="2055.8" y="2027.12" width="555.03" height="697.32" rx="8.67" ry="8.67"/><path class="cls-2" d="M2068.79 2052.14h527.97v655.47h-527.97z"/><path class="cls-20" d="M2526.99 2317.86h-327.67M2544.99 2145.86h-433.67"/><path d="M-934.37 541.19v-320c4 33.5 9.41 79.08 16.12 133.25C-906 452.83-899.9 497.19-893.54 497c2.6-.07 4.64-7.53 6.17-16l27-176.83c2.19-25.66 15.63-41.17 26.16-40.5 8.94.57 15.18 12.74 16.67 15.83l28.17 162.67q6.78 25 11.62 24.62 3-.22 5.25-10.12c12.31-37.85 18.4-63.27 21.71-80.17 1.2-6.12 4-21 8.92-21.33 3.09-.19 6 5.42 7.91 10.17l20.59 79.83c2.29 7.58 5.65 16.41 9.25 16.25 8.83-.39 12.36-54.49 17.75-106.75 4.1-39.73 11.16-96.72 24-166.5 4.71-13 14.47-36.93 24-36 2.68.26 8.72 2.82 14.33 27.33 13.21 57.75 30.32 264.94 36.67 344.67a13.47 13.47 0 0 0 12.08 7.83 13.62 13.62 0 0 0 9.92-4.83c1.6-2.09 4-5.18 6.91-8.92 10.44-13.29 12.31-15 13.5-14.5.57.22 1 .94 1 15 0 4.29-.06 8-.08 12.42v9.92z" transform="translate(3080.06 2156.34)" fill="#e38f79"/><path d="M-935 540.19v-104l34-137.33c1.6-5.13 4.06-11.55 6.67-11.42 3.4.17 5.37 11.36 6.08 15.33 3.07 16.92 9.18 44.53 20.25 89.5 2 10 5 17 7.34 16.84s4.18-7.08 4.91-16.17l32-214.69q2.67-17.33 6.62-17.62 2.59-.19 5.75 7c14.27 44.56 14.83 76.86 31.08 114.43q1.69 3.93 3.45 7.77 1.38 2.91 3 5.9c6 10.86 13.87 16.37 20.72 23.13 3.74 5.11 9.39 11.2 15.67 10.66 3.55-.3 4.84-2.52 12.16-8.33 9.54-7.57 17.06-13.42 22.34-11.33 1.48.58 3.65 2.14 5.16 7q10.68 23.53 21.34 47.08c2.82 5.15 9.39 14.07 12 11.08 8.08-9.25 10-36.86 14.25-72.83A952.51 952.51 0 0 1-631 194.86c2-8.79 4.63-17.87 7.17-17.73 3.18.17 4.75 14.72 5.25 19.12 3 26.89 16.27 125.51 35.5 266.19a64.72 64.72 0 0 0 14.25 26 64.9 64.9 0 0 0 23.16 16.42v34.83z" transform="translate(3080.06 2156.34)" fill="#51a6dd" opacity=".85"/><text class="cls-22" transform="translate(2104.19 2324.53)">100</text><text class="cls-22" transform="translate(2109.94 2418.03)">75</text><text class="cls-22" transform="translate(2109.94 2513.03)">50</text><text class="cls-22" transform="translate(2118.44 2701.78)">0</text><circle cx="2199.56" cy="2179.4" r="10.87" fill="#0098c1"/><circle cx="2219.56" cy="2239.9" r="10.87" fill="#e73a23"/><text class="cls-21" transform="translate(2111.69 2110.53)">Flujo de Efectivo</text><text class="cls-44" transform="matrix(.98 0 0 1 2214.85 2187.03)">Cuentas por Cobrar</text><text class="cls-44" transform="matrix(.98 0 0 1 2234.85 2247.53)">Cuentas por Pagar</text><rect class="cls-1" y="2572.01" width="555.03" height="459.35" rx="8.67" ry="8.67"/><path class="cls-2" d="M18.86 2589.96h496.08v417.41H18.86z"/><rect x="19.36" y="2643.87" width="496" height="292" rx="11.83" ry="11.83" fill="#060707"/><rect x="19.36" y="2589.87" width="496" height="68" rx="4.88" ry="4.88"/><text class="cls-46" transform="translate(122.03 2686.54)">Total Facturado</text><text class="cls-46" transform="translate(121.53 2752.54)">Cuentas por Cobrar</text><text class="cls-46" transform="translate(121.53 2883.54)">Efectivo en Banco</text><text class="cls-46" transform="translate(122.03 2818.54)">Cuentas por Pagar</text><text transform="translate(45.03 2630.54)" font-size="20" font-weight="700" font-family="Poppins-SemiBold,Poppins" fill="#fff">Cuentas de Banco</text><text transform="translate(52.69 2975.85)" font-size="17" font-weight="700" font-family="Poppins-SemiBold,Poppins">TOTAL:</text><text transform="translate(383.53 2978.85)" font-size="19" font-weight="700" font-family="Poppins-SemiBold,Poppins">-15,469.00</text><text class="cls-50" transform="translate(121.53 2720.54)">23,560.00</text><text class="cls-50" transform="translate(121.53 2852.04)">23,349.60</text><text class="cls-50" transform="translate(121.03 2917.54)">-15,469.60</text><text class="cls-50" transform="translate(122.03 2786.04)">15,680.00</text><text transform="translate(56.36 2712.37)" font-size="40" font-weight="700" font-family="Poppins-SemiBold,Poppins" fill="#fff">$</text><rect class="cls-18" x="52.24" y="2749.62" width="35.5" height="28" rx="2.5" ry="2.5"/><path class="cls-2" d="M52.61 2755.62h35v8.25h-35zM56.24 2770.37h5.75v3.44h-5.75zM64.11 2770.43h9.13v3.44h-9.13zM51.36 2816.87v24.67h37.5v-24.84l-37.5.17z"/><path d="M-3020.7 663.2h21.5a5 5 0 0 0 2 3.9 4.82 4.82 0 0 0 3.34.77v9.83a4.29 4.29 0 0 0-4.4 1.33 4.56 4.56 0 0 0-.77 4.17h-21.17a5.92 5.92 0 0 0-1.43-4.1 6.19 6.19 0 0 0-5.07-1.9v-9.83a4.16 4.16 0 0 0 5.09-.5 4.22 4.22 0 0 0 .91-3.67z" transform="translate(3080.06 2156.34)"/><circle class="cls-2" cx="70.28" cy="2829.62" r="6"/><text transform="translate(68.19 2833.87)" font-size="11" font-weight="700" font-family="Poppins-SemiBold,Poppins">1</text><path class="cls-18" d="M52.69 2880.54v29.33h38.34"/><path class="cls-2" d="M58.61 2895.12h5.63v10.38h-5.63zM65.99 2885h5.63v20.5h-5.63zM80.74 2882.5h5.63v23.13h-5.63zM73.32 2882.45h5.63v23.13h-5.63z"/><circle class="cls-2" cx="478.78" cy="2624.7" r="3.08"/><circle class="cls-2" cx="485.61" cy="2624.95" r="3.08"/><circle class="cls-2" cx="471.86" cy="2624.79" r="3.08"/><path stroke="#cac9c1" fill="none" stroke-miterlimit="10" d="M21.47 2658.12h492.39"/><path class="cls-20" d="M26.39 2730.46h481.39M26.51 2796.46H507.9M26.43 2862.62h481.39M26.37 2928.56h481.39"/><rect class="cls-1" x="95.58" y="3200" width="555.33" height="359.24" rx="8.67" ry="8.67"/><rect x="118.38" y="3230.33" width="496" height="69" rx="3.87" ry="3.87" fill="#3b7fc1"/><rect class="cls-2" x="118.25" y="3295.66" width="496.5" height="245" rx="1.4" ry="1.4"/><text class="cls-55" transform="translate(143.72 3272.66)">Cuentas por Cobrar</text><text class="cls-56" transform="matrix(.99 0 0 1 151.38 3398.66)">EMPRESA EJEMPLAR</text><text class="cls-56" transform="matrix(.99 0 0 1 152.05 3483.66)">Asoportuguesa S.A</text><text class="cls-57" transform="translate(152.22 3340.62)">Cliente</text><text class="cls-58" transform="translate(179.88 3426.29)">Lunes 03/12/2018</text><text class="cls-58" transform="translate(178.88 3510.29)">Lunes 19/11/2018</text><text class="cls-57" transform="translate(498.88 3340.66)">Monto</text><text class="cls-59" transform="translate(499.22 3412.99)">1,780.00</text><text class="cls-59" transform="translate(499.22 3496.5)">13,900.00</text><path class="cls-60" d="M-2913.73 1257.06h-1.89v-.81a.27.27 0 0 0-.27-.27h-1.88a.27.27 0 0 0-.27.27v.81h-5.96v-.81a.27.27 0 0 0-.27-.27h-1.88a.27.27 0 0 0-.27.27v.81h-1.89a.27.27 0 0 0-.27.26v14.55a.27.27 0 0 0 .27.27h14.55a.27.27 0 0 0 .27-.27v-14.55a.27.27 0 0 0-.24-.26zm-3.77-.54h1.34v1.61h-1.34v-1.61zm-8.36 0h1.35v1.61h-1.35v-1.61zm-2.15 1.07h1.62v.81a.27.27 0 0 0 .27.27h1.88a.27.27 0 0 0 .27-.27v-.81h5.93v.81a.27.27 0 0 0 .27.27h1.88a.27.27 0 0 0 .27-.27v-.81h1.62v2.41h-14zm0 14v-11h14v11z" transform="translate(3080.06 2156.34)"/><path class="cls-60" d="M-2918.85 1262.17h-7.27v7.83h10.23v-7.82h-3zm-1.89.54h1.89v1.89h-1.89zm1.89 4.31h-1.89v-1.88h1.89zm-4.31-1.88h1.89v1.86h-1.89zm0-2.43h1.89v1.89h-1.89zm-2.43 0h1.89v1.89h-1.89zm0 2.43h1.89v1.86h-1.89zm1.89 4.31h-1.89v-1.89h1.89zm2.43 0h-1.89v-1.89h1.89zm2.42 0h-1.89v-1.89h1.89zm2.43 0h-1.89v-1.89h1.89zm0-2.43h-1.89v-1.88h1.89zm0-4.31v1.89h-1.89v-1.89zM-2913.67 1340.17h-1.88v-.81a.27.27 0 0 0-.27-.27h-1.89a.27.27 0 0 0-.27.27v.81h-5.93v-.81a.27.27 0 0 0-.27-.27h-1.88a.27.27 0 0 0-.27.27v.81h-1.89a.27.27 0 0 0-.27.27V1355a.27.27 0 0 0 .27.27h14.55a.27.27 0 0 0 .27-.27v-14.55a.27.27 0 0 0-.27-.28zm-3.77-.54h1.35v1.62h-1.35v-1.62zm-8.35 0h1.34v1.62h-1.34v-1.62zm-2.16 1.08h1.62v.8a.27.27 0 0 0 .27.27h1.88a.27.27 0 0 0 .27-.27v-.8h5.93v.8a.27.27 0 0 0 .27.27h1.89a.27.27 0 0 0 .27-.27v-.8h1.61v2.42h-14zm0 14v-11h14v11z" transform="translate(3080.06 2156.34)"/><path class="cls-60" d="M-2918.79 1345.29h-7.27v7.81h10.24v-7.81h-3zm-1.88.54h1.88v1.88h-1.88zm1.88 4.31h-1.88v-1.89h1.88zm-4.31-1.89h1.89v1.89h-1.89zm0-2.42h1.89v1.88h-1.89zm-2.42 0h1.88v1.88h-1.88zm0 2.42h1.88v1.89h-1.88zm1.88 4.31h-1.88v-1.88h1.88zm2.43 0h-1.89v-1.88h1.89zm2.42 0h-1.88v-1.88h1.88zm2.43 0h-1.89v-1.88h1.89zm0-2.42h-1.89v-1.89h1.89zm0-4.31v1.88h-1.89v-1.88z" transform="translate(3080.06 2156.34)"/><path class="cls-20" d="M605.69 3363.99H127.02"/><path class="cls-61" d="M608.36 3448.66H129.69"/><rect class="cls-1" x="1759.13" y="3493.79" width="555.33" height="415.48" rx="8.67" ry="8.67"/><rect x="1783.79" y="3507.21" width="496.67" height="69.33" rx="5.33" ry="5.33" fill="#e8442a"/><path class="cls-2" d="M1783.79 3572.21h497v321h-497z"/><text class="cls-55" transform="translate(1810.76 3547.72)">Cuentas por Pagar</text><text class="cls-56" transform="matrix(.99 0 0 1 1818.43 3673.72)">SERVI TECNICOS S.A</text><text class="cls-56" transform="matrix(.99 0 0 1 1819.09 3758.38)">COMPAÑIA PUNTO FRE...</text><text class="cls-56" transform="matrix(.99 0 0 1 1819.09 3842.05)">Asoportuguesa S.A</text><text class="cls-57" transform="translate(1819.26 3615.68)">Proveedor</text><text class="cls-58" transform="translate(1846.93 3701.34)">Lunes 10/12/2018</text><text class="cls-58" transform="translate(1846.93 3785.34)">Miércoles 21/11/2018</text><text class="cls-58" transform="translate(1845.93 3870.34)">Lunes 19/11/2018</text><text class="cls-57" transform="translate(2165.93 3615.72)">Monto</text><text class="cls-59" transform="translate(2166.26 3688.05)">4,896.00</text><text class="cls-59" transform="translate(2167.59 3857.22)">1,000.00</text><text class="cls-59" transform="translate(2167.26 3772.55)">17,453.60</text><path class="cls-60" d="M-1246.69 1532.11h-1.88v-.81a.27.27 0 0 0-.27-.27h-1.89a.27.27 0 0 0-.27.27v.81h-5.92v-.81a.28.28 0 0 0-.27-.27h-1.89a.27.27 0 0 0-.27.27v.81h-1.89a.28.28 0 0 0-.27.27v14.55a.28.28 0 0 0 .27.27h14.55a.27.27 0 0 0 .27-.27v-14.55a.27.27 0 0 0-.27-.27zm-3.77-.54h1.35v1.62h-1.35v-1.62zm-8.35 0h1.35v1.62h-1.35v-1.62zm-2.16 1.08h1.62v.81a.27.27 0 0 0 .27.27h1.89a.28.28 0 0 0 .27-.27v-.81h5.92v.81a.27.27 0 0 0 .27.27h1.89a.27.27 0 0 0 .27-.27v-.81h1.61v2.43h-14zm0 14v-11.05h14v11.05z" transform="translate(3080.06 2156.34)"/><path class="cls-60" d="M-1251.81 1537.23h-7.27v7.77h10.24v-7.81h-3zm-1.88.54h1.88v1.89h-1.88zm1.88 4.31h-1.88v-1.89h1.88zm-4.31-1.89h1.89v1.89h-1.89zm0-2.42h1.89v1.89h-1.89zm-2.42 0h1.88v1.89h-1.88zm0 2.42h1.88v1.89h-1.88zm1.88 4.32h-1.88v-1.89h1.88zm2.43 0h-1.89v-1.89h1.89zm2.42 0h-1.88v-1.89h1.88zm2.43 0h-1.89v-1.89h1.89zm0-2.43h-1.89v-1.89h1.89zm0-4.31v1.89h-1.89v-1.89zM-1246.62 1615.22h-1.89v-.8a.27.27 0 0 0-.27-.27h-1.89a.27.27 0 0 0-.26.27v.8h-5.93v-.8a.27.27 0 0 0-.27-.27h-1.87a.27.27 0 0 0-.27.27v.8h-1.88a.27.27 0 0 0-.27.27V1630a.27.27 0 0 0 .27.27h14.55a.27.27 0 0 0 .27-.27v-14.55a.27.27 0 0 0-.29-.23zm-3.78-.53h1.35v1.61h-1.35v-1.61zm-8.35 0h1.35v1.61h-1.35v-1.61zm-2.15 1.07h1.61v.81a.27.27 0 0 0 .27.27h1.89a.27.27 0 0 0 .27-.27v-.81h5.93v.81a.27.27 0 0 0 .26.27h1.89a.27.27 0 0 0 .27-.27v-.81h1.62v2.43h-14zm0 14v-11h14v11z" transform="translate(3080.06 2156.34)"/><path class="cls-60" d="M-1251.74 1620.34h-7.26v7.82h10.24v-7.82h-3zm-1.89.54h1.89v1.89h-1.89zm1.89 4.31h-1.89v-1.88h1.89zm-4.31-1.88h1.88v1.88h-1.83zm0-2.43h1.88v1.89h-1.83zm-2.43 0h1.89v1.89h-1.89zm0 2.43h1.89v1.88h-1.89zm1.89 4.31h-1.89v-1.89h1.89zm2.42 0h-1.83v-1.89h1.88zm2.43 0h-1.89v-1.89h1.89zm2.42 0h-1.88v-1.89h1.88zm0-2.43h-1.88v-1.88h1.88zm0-4.31v1.89h-1.88v-1.89zM-1247 1700.24h-1.88v-.81a.27.27 0 0 0-.27-.27h-1.89a.27.27 0 0 0-.27.27v.81h-5.92v-.81a.27.27 0 0 0-.27-.27h-1.89a.27.27 0 0 0-.27.27v.81h-1.89a.27.27 0 0 0-.26.27v14.55a.27.27 0 0 0 .26.27h14.55a.27.27 0 0 0 .27-.27v-14.55a.27.27 0 0 0-.27-.27zm-3.77-.54h1.35v1.62h-1.35v-1.62zm-8.35 0h1.35v1.62h-1.35v-1.62zm-2.16 1.08h1.62v.81a.27.27 0 0 0 .27.27h1.89a.27.27 0 0 0 .27-.27v-.81h5.92v.81a.27.27 0 0 0 .27.27h1.89a.27.27 0 0 0 .27-.27v-.81h1.61v2.42h-14zm0 14v-11h14v11z" transform="translate(3080.06 2156.34)"/><path class="cls-60" d="M-1252.14 1705.36h-7.27v7.81h10.24v-7.81h-3zm-1.88.54h1.88v1.88h-1.86zm1.88 4.31h-1.86v-1.89h1.88zm-4.31-1.89h1.89v1.89h-1.89zm0-2.42h1.89v1.88h-1.89zm-2.42 0h1.88v1.88h-1.88zm0 2.42h1.88v1.89h-1.88zm1.88 4.31h-1.88v-1.88h1.88zm2.43 0h-1.89v-1.88h1.89zm2.42 0h-1.86v-1.88h1.88zm2.43 0h-1.89v-1.88h1.89zm0-2.42h-1.89v-1.89h1.89zm0-4.31v1.88h-1.89v-1.88z" transform="translate(3080.06 2156.34)"/><path class="cls-20" d="M2271.23 3640.3h-478.67"/><path class="cls-61" d="M2271.23 3724.13h-478.67M2271.48 3808.13h-478.67"/><image width="529" height="4218" transform="translate(1004.87)" xlink:href="../capture de pantalla telefonos alexander.png"/></svg>