<svg width="70" height="70" xmlns="http://www.w3.org/2000/svg"><g fill="none" fill-rule="evenodd"><rect fill="#EBEEF0" width="70" height="70" rx="4"/><g stroke-width="2"><path d="M24.846 23.936l4.073 5.6M24.846 46.064l4.073-5.6M40.706 35h7.412" stroke="#444"/><path d="M17 19.941a4.941 4.941 0 1 1 9.883 0 4.941 4.941 0 0 1-9.883 0h0zM17 50.059a4.941 4.941 0 1 1 9.883 0 4.941 4.941 0 0 1-9.883 0h0zM48.118 35A4.941 4.941 0 1 1 58 35a4.941 4.941 0 0 1-9.882 0h0z" stroke="#444" stroke-linecap="square"/><path d="M34.292 26.588a8.41 8.41 0 1 1 0 16.821 8.41 8.41 0 0 1 0-16.82z" stroke="#F37070" fill="#FFF" stroke-linecap="square"/></g></g></svg>