<svg width="70" height="70" xmlns="http://www.w3.org/2000/svg"><g fill="none" fill-rule="evenodd"><rect fill="#EBEEF0" width="70" height="70" rx="4"/><g stroke-width="2" stroke-linecap="square"><path d="M30.964 42.753v-5.749h-3.593a3.593 3.593 0 0 1-7.185 0h-3.593v5.749a3.593 3.593 0 0 0 0 7.186v5.748h3.593a3.593 3.593 0 0 1 7.185 0h3.593V49.94a3.593 3.593 0 0 0 0-7.186h0z" stroke="#F37070" fill="#FFF"/><path d="M56.126 38.221h-5.749a2.874 2.874 0 0 0-5.748 0H38.88v4.312a3.593 3.593 0 0 1 0 7.185v5.03h5.03a3.593 3.593 0 0 1 7.186 0h5.03V49a2.874 2.874 0 0 0 0-5.749v-5.03zM31.358 30.641v-5.748a2.874 2.874 0 0 0 0-5.749v-5.748h-4.311a3.593 3.593 0 0 1-7.186 0h-5.03v5.03a3.593 3.593 0 0 1 0 7.185v5.03h5.749a2.874 2.874 0 0 0 5.748 0h5.03z" stroke="#444"/><path d="M55.766 13.454v5.748a2.874 2.874 0 0 1 0 5.749v5.748h-4.311a3.593 3.593 0 0 0-7.186 0h-5.03v-5.03a3.593 3.593 0 0 0 0-7.185v-5.03h5.749a2.874 2.874 0 0 1 5.748 0h5.03z" stroke="#F37070" fill="#FFF"/></g></g></svg>