<svg width="70" height="70" xmlns="http://www.w3.org/2000/svg"><g fill="none" fill-rule="evenodd"><rect fill="#EBEEF0" width="70" height="70" rx="4"/><g stroke-width="2"><path d="M26.768 35.426h-.61a9.158 9.158 0 0 0 0 18.315H47.24" stroke="#444"/><path stroke="#444" stroke-linecap="square" d="M43.407 49.481l4.26 4.26L43.407 58"/><path d="M35.315 17.111h9.157c5.057 0 9.158 4.1 9.158 9.158h0c0 5.057-4.1 9.157-9.158 9.157h-.61" stroke="#444"/><path d="M26.768 35.426a8.547 8.547 0 1 1 17.094 0 8.547 8.547 0 0 1-17.094 0h0z" stroke="#F37070" fill="#FFF" stroke-linecap="square"/><path d="M31.879 12.398a4.26 4.26 0 1 1 0 8.518 4.26 4.26 0 0 1 0-8.518zM31.652 35.426l2.442 2.442 4.884-4.884" stroke="#444" stroke-linecap="square"/></g></g></svg>