<svg width="72" height="72" xmlns="http://www.w3.org/2000/svg"><g fill="none" fill-rule="evenodd"><rect fill-opacity=".8" fill="#4EAFCB" width="72" height="72" rx="4"/><path d="M49.111 27.27a6.844 6.844 0 0 0 2.98-3.772 13.444 13.444 0 0 1-4.303 1.655A6.749 6.749 0 0 0 42.845 23c-3.74 0-6.773 3.054-6.773 6.816 0 .536.06 1.055.175 1.554-5.628-.283-10.62-2.997-13.961-7.12a6.838 6.838 0 0 0-.914 3.426c0 2.365 1.564 4.45 3.381 5.672-1.11-.035-2.7-.342-2.7-.855v.09c0 3.3 1.966 6.053 5.063 6.683-.568.153-1.35.238-1.966.238a7.62 7.62 0 0 1-1.368-.124c.862 2.71 3.317 4.68 6.28 4.736a13.613 13.613 0 0 1-8.434 2.915c-.547 0-1.098-.031-1.628-.094A19.09 19.09 0 0 0 30.376 50c12.459 0 19.267-10.386 19.267-19.392 0-.295-.008-.592-.022-.885A13.765 13.765 0 0 0 53 26.195a13.46 13.46 0 0 1-3.889 1.076z" fill="#FFF"/></g></svg>