<svg width="70" height="70" xmlns="http://www.w3.org/2000/svg"><g fill="none" fill-rule="evenodd"><rect fill="#EBEEF0" width="70" height="70" rx="4"/><path fill="#FFF" d="M40.091 51.39l2.979-.359 1.698-2.433V47.48h2.078l1.466-1.81.366-2.483h2.253l1.137-1.794v-2.706l-11.249-11.49-3.828.36-5.974-2.313-3.393 1.952-2.752 1.224-4.245-.863L34.244 14.44l-5.16-1.407-7.216 1.084-4.14 3.515-3.307 4.753v9.826l2.445 3.248 2.861-2.728h2.141l1.6 2.194v1.56l3.198.768.958 1.433v1.61l2.96 1.096.903 1.794v1.31l2.757.584 1.586 2.4-1.586 2.677-1.622 1.232 3.208 3.293 2.352.704 1.91-1.715z"/><g stroke-width="2"><path d="M16.48 35.322c-3.8-5.558-3.232-13.206 1.702-18.14 4.405-4.406 11.12-5.26 16.434-2.701M47.458 42.42a2.856 2.856 0 0 0 4.038 0l.056-.055a2.853 2.853 0 0 0 .053-3.981l-10.49-11.087M32.473 51.664l2.87 2.87a2.856 2.856 0 0 0 4.038-4.038l-4.059-4.058M39.382 50.496a2.856 2.856 0 0 0 4.038-4.038" stroke="#F37070"/><path d="M39.8 42.838l3.62 3.62a2.853 2.853 0 0 0 4.038 0 2.853 2.853 0 0 0 0-4.038l-3.62-3.62" stroke="#F37070" stroke-linecap="square"/><path d="M34.65 45.449h0a2.856 2.856 0 0 1 0 4.038l-3.027 3.028a2.853 2.853 0 0 1-4.038 0 2.853 2.853 0 0 1 0-4.038l3.028-3.028a2.856 2.856 0 0 1 4.038 0h0zM26.575 37.373h0a2.856 2.856 0 0 1 0 4.038l-3.028 3.028a2.853 2.853 0 0 1-4.038 0 2.853 2.853 0 0 1 0-4.039l3.027-3.027a2.856 2.856 0 0 1 4.039 0h0z" stroke="#444" stroke-linecap="square"/><path d="M22.536 33.335h0a2.856 2.856 0 0 1 0 4.038L19.51 40.4a2.853 2.853 0 0 1-4.039 0 2.853 2.853 0 0 1 0-4.039l3.028-3.027a2.856 2.856 0 0 1 4.038 0h0zM30.613 41.41h0a2.856 2.856 0 0 1 0 4.039l-3.028 3.028a2.853 2.853 0 0 1-4.038 0h0a2.853 2.853 0 0 1 0-4.039l3.028-3.027a2.856 2.856 0 0 1 4.038 0h0z" stroke="#444" stroke-linecap="square"/><path d="M50.379 35.727c5.575-5.575 6.245-12.97.67-18.545-5.577-5.576-14.616-5.576-20.191 0L20.762 27.278s4.858 3.217 10.096-2.02c0 0 9.018 5.027 14.001.042" stroke="#444"/></g></g></svg>