<svg width="70" height="70" xmlns="http://www.w3.org/2000/svg"><g transform="translate(0 -3)" fill="none" fill-rule="evenodd"><rect fill="#EBEEF0" y="3" width="70" height="70" rx="4"/><g stroke-width="2" stroke-linecap="square"><path d="M38.083 45.507h-2.594a1.63 1.63 0 0 1-1.507-1.016 1.637 1.637 0 0 1 .341-1.798l1.834-1.834-3.596-3.596-1.834 1.834a1.63 1.63 0 0 1-1.778.35 1.639 1.639 0 0 1-1.036-1.516v-2.593h-5.085v2.593a1.63 1.63 0 0 1-1.016 1.508 1.639 1.639 0 0 1-1.798-.342l-1.834-1.834-3.596 3.596 1.834 1.834a1.63 1.63 0 0 1 .35 1.778 1.638 1.638 0 0 1-1.516 1.036h-2.593v5.085h2.593a1.63 1.63 0 0 1 1.508 1.016c.26.632.126 1.332-.342 1.798l-1.834 1.834 3.596 3.596 1.834-1.834a1.63 1.63 0 0 1 1.778-.35c.634.26 1.036.853 1.036 1.516v2.594h5.085v-2.594a1.63 1.63 0 0 1 1.016-1.507 1.637 1.637 0 0 1 1.798.341l1.834 1.834 3.596-3.596-1.834-1.834a1.63 1.63 0 0 1-.35-1.778 1.638 1.638 0 0 1 1.516-1.036h2.594v-5.085z" stroke="#444"/><path d="M22.25 46.725a3.39 3.39 0 1 1 6.241 2.65 3.39 3.39 0 0 1-6.24-2.65h0z" stroke="#F37070" fill="#FFF"/><path d="M59.083 24.507h-2.594a1.63 1.63 0 0 1-1.507-1.016 1.637 1.637 0 0 1 .341-1.798l1.834-1.834-3.596-3.596-1.834 1.834a1.63 1.63 0 0 1-1.778.35 1.639 1.639 0 0 1-1.036-1.516v-2.593h-5.085v2.593a1.63 1.63 0 0 1-1.016 1.508 1.639 1.639 0 0 1-1.798-.342l-1.834-1.834-3.596 3.596 1.834 1.834a1.63 1.63 0 0 1 .35 1.778 1.638 1.638 0 0 1-1.516 1.036h-2.593v5.085h2.593a1.63 1.63 0 0 1 1.508 1.016c.26.632.126 1.332-.342 1.798l-1.834 1.834 3.596 3.596 1.834-1.834a1.63 1.63 0 0 1 1.778-.35c.634.26 1.036.853 1.036 1.516v2.594h5.085v-2.594a1.63 1.63 0 0 1 1.016-1.507 1.637 1.637 0 0 1 1.798.341l1.834 1.834 3.596-3.596-1.834-1.834a1.63 1.63 0 0 1-.35-1.778 1.638 1.638 0 0 1 1.516-1.036h2.594v-5.085z" stroke="#444"/><path d="M43.082 25.683a3.39 3.39 0 1 1 6.24 2.65 3.39 3.39 0 0 1-6.24-2.65h0z" stroke="#F37070" fill="#FFF"/></g></g></svg>