<svg xmlns="http://www.w3.org/2000/svg" width="72" height="72"><g fill="none" fill-rule="evenodd"><rect width="72" height="72" fill="#F48C66" rx="4"/><path fill="#FFF" d="M30 38h8c.667 0 1-.4 1-1s-.333-1-1-1h-8c-.667 0-1 .4-1 1s.333 1 1 1zm0-6h12c.69 0 1-.4 1-1s-.31-1-1-1H30c-.69 0-1 .4-1 1s.31 1 1 1z"/><path stroke="#FFF" stroke-width="2" d="M18 34c0-8.32 8.285-15 18-15 10.715 0 19 6.68 19 15 0 8.18-8.285 14.857-19 15-1.11-.143-2.798-.3-4-1l-10 4c.263-.08.183 0 0 0-.14 0-.3-.08 0 0-.702-.314-.783-.63-1-1l1-8c-2.552-2.314-4-5.693-4-9z" stroke-linecap="round" stroke-linejoin="round"/></g></svg>