<svg version="1.1" id="Capa_1" xmlns="http://www.w3.org/2000/svg" x="0" y="0" viewBox="0 0 853 838" xml:space="preserve"><style>.st1{fill:#fff;fill-opacity:.5}</style><path fill="#eaf2f3" d="M0 .2h853V838H0z"/><g id="Page-State-3"><g id="page-State-3" transform="translate(-1 -1908)"><g id="CRM-Free" transform="translate(1 1867)"><g transform="rotate(60 349.345 210.664)" id="Circles-Copy"><path id="Fill-1" class="st1" d="M109.4 349.5C4.4 407.7-31.2 535.9 29.9 635.9c61.1 100 195.8 133.9 300.8 75.7s140.6-186.5 79.5-286.5-195.8-133.8-300.8-75.6M197 492.8c21.8-12.1 50-5 62.7 15.8 12.7 20.8 5.3 47.6-16.6 59.7-21.8 12.1-50 5-62.7-15.8-12.7-20.8-5.2-47.6 16.6-59.7"/><path id="Fill-4" class="st1" d="M576.9 334.5c-63 34.9-84.4 111.9-47.7 171.9s117.5 80.3 180.5 45.4 84.4-111.9 47.7-171.9-117.5-80.3-180.5-45.4m11.1 18.1c52.4-29.1 119.9-12.1 150.4 37.8s12.7 114.2-39.7 143.2c-52.4 29.1-119.9 12.1-150.4-37.8-30.6-49.9-12.7-114.1 39.7-143.2"/><path id="Fill-6" class="st1" d="M599.5 370.2c-43.4 24-58 77-32.8 118.2 25.2 41.3 80.8 55.3 124.2 31.2 43.4-24 58-77 32.8-118.2-25.3-41.2-80.9-55.2-124.2-31.2m11.1 18.1c32.8-18.2 75-7.6 94.1 23.7 19.1 31.2 7.9 71.4-24.9 89.6-32.8 18.2-75 7.6-94.1-23.7-19.1-31.2-7.9-71.4 24.9-89.6"/><path id="Fill-9" class="st1" d="M838.4 41.2c24.2 39.6 10.1 90.3-31.4 113.4-41.6 23-94.9 9.6-119.1-29.9-24.2-39.6-10.1-90.3 31.5-113.4 41.5-23.1 94.8-9.7 119 29.9"/><path id="Fill-12" class="st1" d="M1158.9 102.9c12.2 20 5.1 45.6-15.9 57.3-21 11.6-47.9 4.9-60.2-15.1-12.2-20-5.1-45.6 15.9-57.3 21.1-11.7 48-4.9 60.2 15.1"/></g></g></g></g></svg>