<svg width="853" height="838" xmlns="http://www.w3.org/2000/svg"><g fill="#FFF" fill-rule="evenodd" fill-opacity=".5"><path d="M109.147 31.247C6.227-30.598-122.633 2.712-178.669 105.66c-56.04 102.936-18.037 236.525 84.884 298.37 102.918 61.84 231.775 28.525 287.816-74.411 56.041-102.937 18.033-236.523-84.884-298.37m-80.33 147.56c21.409 12.86 29.339 40.747 17.686 62.16-11.655 21.409-38.556 28.359-59.957 15.501-21.412-12.865-29.347-40.75-17.687-62.16 11.655-21.41 38.55-28.37 59.958-15.502M355.865 428.665c-61.749-37.109-139.065-17.124-172.688 44.643-33.622 61.766-10.824 141.916 50.925 179.024 61.754 37.105 139.075 17.118 172.695-44.654 33.62-61.759 10.818-141.905-50.932-179.013m-10.144 18.634c51.376 30.876 70.415 97.796 42.44 149.187-27.974 51.383-92.533 68.076-143.908 37.2-51.378-30.868-70.42-97.793-42.442-149.178 27.979-51.386 92.533-68.077 143.91-37.209"/><path d="M336.26 466.076c-42.483-25.533-95.67-11.777-118.805 30.714-23.13 42.488-7.444 97.624 35.035 123.151 42.487 25.53 95.677 11.78 118.807-30.708 23.127-42.493 7.439-97.634-35.037-123.157m-10.155 18.65c32.133 19.305 44.038 61.16 26.546 93.3-17.5 32.137-57.87 42.576-90.001 23.263-32.128-19.308-44.039-61.16-26.547-93.3 17.5-32.137 57.87-42.569 90.002-23.263M740.634 508.499c-22.18 40.737-73.174 53.922-113.9 29.447C586 513.47 570.96 460.61 593.137 419.866c22.175-40.734 73.173-53.921 113.907-29.444 40.727 24.475 55.764 77.343 33.59 118.077M847.49 816.875c-11.207 20.585-36.979 27.245-57.564 14.881-20.581-12.367-28.187-39.086-16.971-59.676 11.203-20.59 36.975-27.25 57.556-14.883 20.587 12.377 28.19 39.09 16.979 59.678"/></g></svg>