<svg xmlns:dc="http://purl.org/dc/elements/1.1/" xmlns:cc="http://creativecommons.org/ns#" xmlns:rdf="http://www.w3.org/1999/02/22-rdf-syntax-ns#" xmlns:svg="http://www.w3.org/2000/svg" xmlns="http://www.w3.org/2000/svg" xmlns:sodipodi="http://sodipodi.sourceforge.net/DTD/sodipodi-0.dtd" xmlns:inkscape="http://www.inkscape.org/namespaces/inkscape" viewBox="0 0 100 125" version="1.1" x="0px" y="0px"><g transform="translate(0,-952.36216)"><path style="fill:#fe0606;" d="m 49.575415,971.83643 c -0.953997,0.01 -1.915833,0.2896 -2.759439,0.8698 -2.263938,1.5569 -2.820592,4.6361 -1.273877,6.8853 1.557065,2.264 4.63513,2.8499 6.898754,1.293 2.249512,-1.5472 2.817143,-4.6401 1.259764,-6.9043 -0.96654,-1.406 -2.535209,-2.1563 -4.125202,-2.1438 z m -16.886549,0.5948 c -0.524666,0 -1.051842,0.017 -1.579017,0.057 -4.216776,0.3173 -8.615445,1.9565 -11.691001,5.0392 -1.894005,1.83398 0.921431,4.64329 2.751285,2.7453 2.21721,-2.2222 5.84848,-3.654 9.231372,-3.9085 2.663161,-0.2003 5.030903,0.357 6.496394,1.3598 -10.236172,4.8808 -11.670303,7.0828 -14.459848,9.6968 l 0,0 c -0.699637,0.51909 -1.115089,1.33645 -1.12209,2.2076 l -0.231443,11.28857 -9.023135,8.3719 c -2.771348,2.5155 1.060921,6.6461 3.776783,4.0708 l 9.886813,-9.173 c 0.551542,-0.5121 0.871603,-1.2261 0.886884,-1.9785 l 0.156804,-7.63497 2.611102,0.6401 6.103757,7.18107 -3.436833,9.2141 c -1.354375,3.496 3.936972,5.4695 5.202761,1.9405 l 4.005718,-10.7411 c 0.351424,-0.9425 0.165588,-2.0014 -0.48578,-2.768 l -6.569778,-7.73057 c 1.795407,-2.5087 4.483029,-3.6868 9.07394,-4.8499 -0.486406,3.4191 0.55101,6.2092 2.537718,7.8923 1.881335,1.5937 4.264758,2.2798 6.661038,2.6393 -0.894724,-1.257 -0.611222,-2.8896 0.354691,-3.8919 -1.906111,-0.3351 -3.551926,-0.9069 -4.504041,-1.7132 -1.200806,-1.0172 -1.81391,-2.2695 -0.982221,-5.4588 0.147024,-0.53727 0.05647,-1.1118 -0.248691,-1.5778 l -5.988036,-8.8754 c -0.04146,-0.0706 -0.08734,-0.13849 -0.13736,-0.2033 -2.089885,-2.7449 -5.606688,-3.8253 -9.276531,-3.8411 l 0,0 z m 41.297185,18.1403 c -0.953996,0.01 -1.91646,0.2902 -2.760066,0.8703 -2.263938,1.5569 -2.820592,4.6356 -1.273876,6.8847 1.557064,2.26407 4.635129,2.85047 6.898753,1.2937 2.249512,-1.5472 2.81777,-4.6402 1.260391,-6.9043 -0.966854,-1.406 -2.535208,-2.157 -4.125202,-2.1444 z m -18.108366,3.7161 c -1.561141,0.055 -2.422937,1.8363 -1.497165,3.0945 1.584348,2.2179 3.348081,4.38817 5.779172,5.79187 2.431091,1.4038 5.548357,1.8553 9.04007,0.7687 1.68631,4.3727 3.494059,8.5417 4.99327,11.9055 l -5.859769,0.6272 c -1.227463,0.08 -2.255157,0.9583 -2.526742,2.1579 l -2.502279,11.0547 c -0.361277,1.505 0.578293,3.0145 2.087689,3.356 1.50971,0.3414 3.00719,-0.617 3.328952,-2.131 l 2.042844,-9.0315 3.789955,-0.4925 4.541988,0 0.205727,8.8196 c 0.03418,1.4589 1.192025,2.6422 2.649675,2.7086 l 10.357225,0.4704 c 1.54703,0.094 2.87077,-1.0972 2.941332,-2.6455 0.07025,-1.5482 -1.140593,-2.8544 -2.689818,-2.9015 l -7.767134,-0.3528 -0.194751,-8.3069 c 0,-3.6902 -2.436422,-7.9801 -4.085061,-10.9928 1.05341,0.7364 1.876945,1.5916 2.58915,2.5407 1.44981,1.9319 2.382168,4.3282 3.398886,6.8295 0.393264,1.0109 1.538561,1.5042 2.543362,1.0958 1.004801,-0.4084 1.481172,-1.5603 1.057801,-2.5591 -0.99257,-2.4425 -2.012424,-5.1957 -3.890937,-7.6993 -4.987939,-5.5537 -9.573832,-7.6231 -16.593011,-8.0025 -2.601067,0.068 -4.646106,1.0243 -7.514994,-0.58557 -1.598147,-0.9228 -3.089982,-2.6261 -4.560177,-4.6845 -0.376957,-0.544 -1.00386,-0.8587 -1.66526,-0.8355 z m -50.625147,21.10427 0,9.0003 0,9.0009 2.4389311,0 48.1253759,0 2.439245,0 0,-9.0009 c 0,-4.9863 -4.014185,-9.0003 -9.000556,-9.0003 z" display="inline" fill="#000000"/></g></svg>