<?xml version="1.0" encoding="utf-8"?>
<!-- Generator: Adobe Illustrator 22.1.0, SVG Export Plug-In . SVG Version: 6.00 Build 0)  -->
<svg version="1.1" id="Capa_1" xmlns="http://www.w3.org/2000/svg" xmlns:xlink="http://www.w3.org/1999/xlink" x="0px" y="0px"
	 viewBox="0 0 700 356" style="enable-background:new 0 0 700 356;" xml:space="preserve">
<style type="text/css">
	.st0{fill:#4166A5;}
	.st1{fill:#666E76;stroke:#5B5B5F;stroke-miterlimit:10;}
	.st2{fill:#565C64;}
	.st3{fill:#BEC5CD;stroke:#5B5B5F;stroke-miterlimit:10;}
	.st4{fill:#7D8791;stroke:#5B5B5F;stroke-miterlimit:10;}
	.st5{fill:#C9D2D9;stroke:#5B5B5F;stroke-miterlimit:10;}
	.st6{fill:#929BA3;}
	.st7{fill:#BEC5CD;}
	.st8{fill:#A6AEB8;}
	.st9{fill:#7D8791;}
	.st10{fill:#D8DEE3;stroke:#5B5B5F;stroke-miterlimit:10;}
	.st11{fill:#666E76;}
	.st12{fill:#E4E9ED;stroke:#5B5B5F;stroke-miterlimit:10;}
	.st13{fill:#24335C;}
	.st14{fill:none;stroke:#5B5B5F;stroke-miterlimit:10;}
	.st15{fill:#D4A264;}
	.st16{fill:#B17C43;}
	.st17{fill:#A4743E;}
	.st18{fill:#BF393B;}
	.st19{fill:#CCE4F0;}
	.st20{fill:#5B5B5F;}
	.st21{fill:#A1C6D4;}
	.st22{opacity:0.1;}
	.st23{fill:#070308;}
	.st24{fill:#49A8D2;}
	.st25{fill:#5BA583;}
	.st26{fill:#F3D746;}
	.st27{fill:#D37F50;}
	.st28{fill:#C33F46;stroke:#5B5B5F;stroke-miterlimit:10;}
	.st29{fill:#FFFFFF;stroke:#5B5B5F;stroke-miterlimit:10;}
	.st30{fill:#C65058;stroke:#5B5B5F;stroke-miterlimit:10;}
	.st31{fill:#002B3F;}
	.st32{fill:#EEEDEC;stroke:#5B5B5F;stroke-miterlimit:10;}
	.st33{fill:#BF393B;stroke:#5B5B5F;stroke-miterlimit:10;}
	.st34{fill:#C65058;}
	.st35{fill:#B6D9F3;}
	.st36{fill:#FFFFFF;}
	.st37{fill:#323A51;}
	.st38{fill:#DEC1B1;}
	.st39{opacity:0.33;}
	.st40{fill:#CD8879;}
	.st41{fill:#F2EEE8;}
	.st42{opacity:0.37;fill:#CD8879;}
	.st43{fill:#DCAD94;}
	.st44{fill:#E7E7E8;stroke:#5B5B5F;stroke-miterlimit:10;}
	.st45{fill:#939597;stroke:#5B5B5F;stroke-miterlimit:10;}
	.st46{fill:#58595B;}
	.st47{fill:#808285;}
	.st48{fill:#9FCCE9;}
	.st49{fill:#F1F2F2;}
	.st50{fill:#D1D2D4;}
	.st51{fill:#3A3A3A;}
	.st52{fill:#DCC5B8;}
	.st53{fill:#011038;}
	.st54{opacity:0.52;}
	.st55{fill:#CCA79E;}
	.st56{fill:#C8978D;}
	.st57{fill:#434142;}
</style>
<path class="st0" d="M412.8,46.3c0.1,0.1,0,0.4-0.1,0.8c-0.3,1.1-0.7,2.5-0.2,3.6c0.3,0.7,1,1.4,1,2.2c0,0.1,0,0.1,0,0.2
	c-0.1,0.1-0.2,0.1-0.4,0c-1.2-0.5-2.7-1-4.1-0.6c-0.6,0.2-1.2,0.4-1.7,0.7c-0.2,0.2-1,0.8-1.3,0.4c-0.1-0.1,0-0.3,0-0.4
	c0.3-0.7,0.5-1.4,0.7-2.2c0.1-0.3,0.2-0.6,0.2-0.9c0-0.2,0-0.3-0.1-0.4c-0.3-0.9-0.8-1.9-0.8-2.9c0-0.2,0.1-0.3,0.2-0.4
	c0.1,0,0.1,0,0.2,0c0.6,0.1,1.2,0.4,1.7,0.6c1,0.3,1.8,0.2,2.8-0.2c0.4-0.1,0.8-0.4,1.3-0.5C412.6,46.2,412.8,46.2,412.8,46.3z"/>
<g>
	<path class="st1" d="M199.8,204.9c1.1,4.2,3.7,8.1,7.3,10.6c2.7,1.8,6.4,2.9,9,1c2.4-1.7,2.8-5,2.8-7.9c0-2.6-0.3-5.1-0.8-7.6
		c-0.5-2.3-1.2-4.7-2.4-6.7c-1.3-2-3.1-3.7-5.4-4.4C200.9,187.1,198.1,198.2,199.8,204.9z"/>
	<g>
		<path class="st1" d="M143.6,154.3c-5.7,1.3-11.6,0.9-17.4,0.9c-8.5-0.1-17.4,0.6-24.1,6.5c-2.9,2.6-5.5,5.5-8.9,7.5
			c-3.4,2-7.2,3.3-10.7,4.9c-5.2,2.4-10.1,5.6-14.3,9.5c-4.1,3.7-8.6,8.3-10.6,13.5c-0.3,0.9-0.6,1.8-0.6,2.7c0.1,3.7,5,5.1,7.8,3.5
			c1.3-0.8,1.7-2.1,2.5-3.4c0.8-1.4,1.7-2.8,2.7-4.1c2-2.6,4.2-5,6.7-7.2c3.6-3,7.6-5.5,12-7.3c2.6-1,5-2.2,7.6-3.3
			c3.6-1.4,5.4-3.7,8-6.5c2.7-2.9,6.1-5.1,9.8-6.7c4.1-1.7,8.5-2.3,12.8-2.2c4.3,0.1,8.6,1.2,12.9,0.8c6-0.5,14.2-3.1,18.3-7.7
			c1.4-1.5,3.1-3.8,3.5-5.9c0.3-1.7-0.3-4.1-2.3-4.3c-2.5-0.3-4.3,2.7-5.9,4.1C150.5,152,147.2,153.5,143.6,154.3z"/>
		<g>
			<path class="st2" d="M132.7,161.3c0.2,0.9,0.4,1.7,0.8,2.2c2,2.5,2-3.9,1.9-4.7c-0.1-1.1-0.3-2.2-0.5-3.3c-0.3-1.7-1.7-2-2.1-0.3
				C132.6,156.6,132.4,159.3,132.7,161.3z"/>
			<path class="st2" d="M125.4,161.4c0.3,0.9,0.6,1.6,1.1,2.1c2.3,2.2,1.6-4.1,1.4-4.9c-0.2-1.1-0.5-2.2-0.8-3.3
				c-0.5-1.6-1.9-1.8-2.1-0.1C124.7,156.7,124.8,159.4,125.4,161.4z"/>
			<path class="st2" d="M117.9,161.9c0.3,0.8,0.7,1.5,1.2,2c2.5,2,1.2-4.3,1-5c-0.3-1.1-0.7-2.1-1.1-3.2c-0.6-1.6-2-1.6-2.1,0.1
				C116.9,157.3,117.2,160,117.9,161.9z"/>
			<path class="st2" d="M110.1,164.4c0.4,0.8,0.9,1.5,1.4,1.8c2.6,1.8,0.8-4.3,0.5-5.1c-0.4-1-0.9-2.1-1.4-3.1
				c-0.8-1.5-2.2-1.4-2.1,0.3C108.7,159.8,109.2,162.5,110.1,164.4z"/>
			<path class="st2" d="M103.5,168.8c0.6,0.7,1.2,1.2,1.8,1.4c3,1.1-0.3-4.4-0.7-5c-0.7-0.9-1.4-1.8-2.1-2.6c-1.1-1.3-2.5-0.9-2,0.8
				C101,164.8,102.1,167.2,103.5,168.8z"/>
			<path class="st2" d="M97.5,174.6c0.6,0.7,1.3,1.3,1.9,1.5c3.2,1.2-0.3-4.7-0.8-5.3c-0.7-1-1.4-1.9-2.2-2.8
				c-1.2-1.3-2.6-0.9-2.1,0.9C94.8,170.3,96.1,172.9,97.5,174.6z"/>
			<path class="st2" d="M90,178.9c0.6,0.8,1.2,1.4,1.8,1.6c3.1,1.4,0-4.7-0.4-5.4c-0.6-1-1.3-2-2-2.9c-1.1-1.4-2.5-1.1-2.1,0.7
				C87.6,174.5,88.7,177.1,90,178.9z"/>
			<path class="st2" d="M81.5,182.9c0.6,0.8,1.2,1.4,1.8,1.6c3.1,1.4,0-4.7-0.4-5.4c-0.6-1-1.3-2-2-2.9c-1.1-1.4-2.5-1.1-2.1,0.7
				C79.2,178.4,80.2,181.1,81.5,182.9z"/>
			<path class="st2" d="M73.5,188.3c0.7,0.6,1.5,1,2.2,1.1c3.3,0.6-1.1-4.5-1.7-5.1c-0.9-0.8-1.8-1.6-2.7-2.3
				c-1.4-1.1-2.7-0.4-1.9,1.2C70.1,184.6,71.8,186.9,73.5,188.3z"/>
			<path class="st2" d="M66.6,197.3c0.9,0.4,1.8,0.7,2.6,0.7c3.7-0.2-2.3-4.5-3.1-5c-1.1-0.7-2.3-1.2-3.4-1.8
				c-1.8-0.8-3,0.2-1.7,1.8C62.1,194.2,64.4,196.3,66.6,197.3z"/>
			<path class="st2" d="M140.4,161.1c0.2,0.9,0.5,1.6,1,2.1c2.2,2.3,1.7-4.1,1.6-4.8c-0.2-1.1-0.4-2.2-0.7-3.3
				c-0.4-1.6-1.8-1.9-2.1-0.1C139.9,156.3,139.9,159.1,140.4,161.1z"/>
			<path class="st2" d="M148.3,159.5c0.4,0.8,0.8,1.5,1.3,1.9c2.5,2,1.1-4.3,0.9-5c-0.4-1.1-0.8-2.1-1.2-3.1
				c-0.7-1.5-2.1-1.6-2.1,0.2C147.1,154.9,147.5,157.6,148.3,159.5z"/>
		</g>
	</g>
	<path class="st1" d="M246.9,194.6c4.4-0.4,8.6-2.4,11.6-5.5c2.2-2.3,3.9-5.9,2.5-8.8c-1.3-2.6-4.5-3.6-7.3-4
		c-2.5-0.4-5.1-0.5-7.7-0.4c-2.4,0.1-4.8,0.4-7,1.3c-2.2,0.9-4.2,2.5-5.2,4.6C229.5,190.7,239.9,195.2,246.9,194.6z"/>
	<path class="st3" d="M243.6,156.4c2.6,4,2.9,9.2,5.3,13.4c1.4,2.4,3.5,4.8,2.9,7.5c-0.3,1.5-1.4,2.8-2.6,3.8
		c-4.2,3.7-9.8,5.8-15.3,5.7c-1.6,0-3.2-0.2-4.7-0.9c-1.4-0.7-2.7-1.8-3.2-3.4c-0.4-1.3-0.2-2.8-0.5-4.2c-0.6-3-3.2-5.1-5.7-6.7
		c-2.4-1.5-5-3-6.7-5.3c-1.7-2.3-0.1-6.2,0.9-8.5c1.5-3.5,3.7-7,6.7-9.3c1.9-1.4,3.4-2,5.7-1.4c2.8,0.8,5.5,1.7,8.2,2.8
		c3,1.2,6,2.7,8.1,5.2C243.1,155.6,243.4,156,243.6,156.4z"/>
	<path class="st4" d="M154.2,124.5c-1.6,2.3-2.4,5.1-2.8,7.9c-0.8,5.4-0.3,10.9,0.4,16.3c0.9,6.7,2.2,13.3,4.1,19.8
		c0.9,3.1,2,6.3,4,8.9c2.5,3.2,6.3,5.2,10.2,6.7c5.8,2.2,12.2,3.4,18.4,2.7c1.9-0.2,3.8-0.6,5.5-1.5c2.7-1.5,4.7-4.1,5.9-7
		c1.2-2.7,1.9-5.7,1.7-8.7c-0.5-6.6-5.2-12-8.4-17.8c-4-7.3-5.8-15.7-9.3-23.3c-1.6-3.3-3.6-6.6-6.6-8.8
		C170.8,114.9,158.9,118,154.2,124.5z"/>
	<path class="st5" d="M232.5,115.6c-0.7-0.1-1.6-0.1-1.7-0.8c0-0.2,0.1-0.5,0.2-0.7c0.6-1.2,0.8-2.8-0.1-3.9c-0.9-1-2.3-1-3.6-1
		c-0.3,0-0.5,0-0.7-0.1c-0.7-0.4-0.3-1.5-0.4-2.3c0-1.4-1.6-2.4-3-2.2c-1.4,0.2-2.5,1.2-3.3,2.4c-1.2,1.6-2,3.5-2.3,5.5
		c-0.9-0.5-1.8-0.7-2.7-0.1c-0.5,0.3-0.8,0.8-1.2,1.2c-2.1,2.6-5,4.7-8.4,5.2c-3.3,0.6-5-1.2-8-1.8c-2.9-0.5-3.7,3.1-3.3,5.6
		c0.4,2.6,2.1,4.9,3.9,6.8c3.4,3.6,7.9,6.4,12.8,6.7c4.5,0.3,9.2-1.6,12.1-5.1c0.7-0.9,1.4-1.8,1.7-2.9c0.1-0.4,0.2-0.9,0.2-1.3
		c2.7,0,5.3-1.3,7.3-3c1.3-1.1,2.5-2.5,2.8-4.2S234.2,115.9,232.5,115.6z"/>
	<path class="st5" d="M201.6,187.4c0.6,0.5,1.2,1,1.3,1.5c0.1,0.4,0,0.8-0.1,1.2c-0.7,2.5-1.3,5.2-0.8,7.7c0.9,4.4,5,7.6,9.5,8.1
		c4.4,0.5,8.9-1.5,12.1-4.5c3.2-3.1,5.3-7.1,6.8-11.3c1-3,1.8-6.1,1.6-9.2c-0.3-5.1-3.2-9.9-7.2-13.1c-5.8-4.7-12.3-5.8-19.4-3.5
		c-3.7,1.2-7.2,3-10.8,4.5c-2.9,1.2-5.9,2.1-8.4,3.9c-0.7,0.5-1.5,1.2-1.8,2.1c-0.3,1,0,2.1,0.5,2.9c0.6,0.9,1.5,1.5,2.3,2
		c2,1.2,4.3,2.1,6.4,3.1c1.9,0.9,3.7,1.9,5.4,3.1C199.7,186.2,200.7,186.8,201.6,187.4z"/>
	<path class="st6" d="M165.3,129c-4-3.8-8.9-1.3-10,3.5c-2,8,0.1,16.4,1.5,24.5c1.2,7.3,2.3,16.4,8.8,21c1.4,1,3.2,1.9,4.9,1.6
		c1.9-0.3,3.4-1.8,4.1-3.6c0.7-1.8,0.7-3.7,0.5-5.6c-0.5-4.4-2.2-8.5-2.9-12.9c-0.7-4.5-1.6-9-2.1-13.5c-0.3-2.7-0.5-5.4-1.1-8
		C168.3,133.4,167.2,130.8,165.3,129z"/>
	<path class="st7" d="M213.9,131.4c-0.5-0.2-1-0.4-1.5-0.6c-2.6-1.2-5.1-2.7-7.9-3.5c-0.1,0-0.2,0-0.2,0c-0.2,0.1-0.1,0.4,0,0.5
		c1,1.4,1.9,2.8,3.2,3.9c1.3,1.2,2.6,2.3,4.1,3.1c1.2,0.6,2.5,1.2,3.9,1.3c0.6,0.1,0.9-0.2,1.3-0.5c0.6-0.4,1.2-0.8,1.7-1.3
		c0.2-0.2,0.5-0.5,0.4-0.8c-0.1-0.2-0.3-0.4-0.5-0.5C217,132.5,215.4,132,213.9,131.4z"/>
	<path class="st5" d="M169.8,142.5c-0.4,4.9-0.3,9.8,0.8,14.5c0.7,3.4,1.9,6.6,3.5,9.6c3.3,6,9.1,11,15.9,12
		c4.5,0.7,9.2-0.4,13.2-2.5c4.7-2.4,8.7-5.9,12.3-9.7c3.1-3.2,5.9-6.7,8.4-10.3c2-2.9,3.9-6.2,3.7-9.7c-0.2-3.9-2.8-7.2-6-9.5
		c-3.2-2.2-6.9-3.5-10.4-5.2c-3.5-1.7-7.5-4.7-9.9-7.4c-2.5-2.7-6.1-5.7-8-8.8c-2.7-4.4-3.7-7.4-8.8-6.5
		C170.4,111.7,170.9,129.7,169.8,142.5z"/>
	<path class="st7" d="M191,128c2.2-0.4,4.3-1.2,5.9-2.7c1.6-1.5,2.4-4,1.6-6c-0.6-1.4-1.9-2.4-3.2-3.2c-5.7-3.3-13.8-4.1-19.6-0.7
		c-6.7,4-3.2,10,2.8,11.9C182.4,128.5,186.8,128.8,191,128z"/>
	<path class="st8" d="M210.3,157.2c-3.5,2.9-7.5,5.1-11.6,6.7c-4.4,1.7-9.1,2.5-13.6,4c-1.4,0.5-2.9,1-4.1,1.9
		c-0.3,0.3-0.7,0.6-0.8,1c-0.1,0.3,0,0.7,0.1,1.1c0.8,2.6,3.4,4.4,6.1,4.8c3.8,0.5,7.9-1.1,11.2-2.8c5.8-2.9,11.5-6.2,16.5-10.4
		c5-4.2,9.2-9.5,11.5-15.5c0.8-2,1.3-4.2,0.5-6.2c-0.6-1.4-3.1-3.4-4.7-2.2c-1.2,0.9-1.5,4.5-2.1,5.9
		C217.3,150,214.1,154,210.3,157.2z"/>
	<path class="st9" d="M197.5,131.9c1.1-0.5,2.3-1.1,3.6-1c1.7,0.1,3.1,1.2,4.4,2.4c2.4,2.3,4.5,5.1,6,8.1c0.6,1.2,1.1,2.6,0.6,3.8
		c-0.4,0.9-1.4,1.5-2.3,1.9c-3.2,1.6-6.6,2.8-10,3.7c-0.7,0.2-1.5,0.4-2.2,0.3c-1.1-0.1-2-0.8-2.8-1.5c-1.5-1.4-2.5-3.2-3.5-5
		c-0.9-1.5-2.7-3.5-3-5.3c-0.2-1.8,1.9-2.8,3.2-3.7C193.3,134.2,195.3,132.9,197.5,131.9z"/>
	<path class="st10" d="M177.6,69.5c-4.2,1.3-8.2,3.4-11.3,5.8c-4,3.2-6.7,7.7-8.5,12.5c-2.1,5.7-3,11.9-1.8,17.8s4.4,11.6,9.4,15
		c4.8,3.2,10.7,4.3,16.4,4.6c3.6,0.2,7.2,0.1,10.7-0.7c9.6-2.1,17.8-9.6,20.8-18.9c2.4-7.4,1.6-15.8-2.3-22.6
		c-3.5-6.3-9.1-9.9-15.4-13.1C190.5,67.2,183.7,67.6,177.6,69.5z"/>
	<path class="st7" d="M176.8,156.1c2.7,3.7,7.2,6.3,11.8,6c1.1-0.1,2.2-0.4,3-1.2c0.7-0.8,0.8-2,0.6-3c-0.2-1-0.8-1.9-1.4-2.8
		c-3.2-4.6-7.2-8.7-11.8-11.8c-0.8-0.6-1.8-1.1-2.8-1.2C170,141.3,175.3,153.9,176.8,156.1z"/>
	<path class="st11" d="M206.1,158.8c-0.5,0.4-0.9,0.8-1.2,1.3c-0.6,1.2,0,2.7,0.8,3.8c0.8,1.2,1.8,2.2,3,3c0.6,0.5,1.3,0.9,2.1,0.9
		c1.1,0.1,2.1-0.5,3-1.2c1.8-1.4,3.5-3,4.8-4.9c0.8-1.2,1.5-2.5,1.6-3.9c0-2.2-1.6-4-3.3-5.4c-1.9-1.6-4.1,0-5.6,1.6
		C209.6,155.9,207.9,157.3,206.1,158.8z"/>
	<path class="st11" d="M198.5,134.6c0.6-0.3,1.2-0.6,1.9-0.5c0.9,0,1.7,0.5,2.3,1.3c0.2,0.2,0.3,0.4,0.3,0.7c0,0.5-0.5,0.9-0.9,1.2
		c-2.2,1.3-4.4,2.5-6.6,3.8c-1.1,0.6-2.4,1.4-3.6,0.7c-1.1-0.6-1.2-1.5-0.6-2.5C192.6,137.1,196.3,135.6,198.5,134.6z"/>
	<path class="st12" d="M211.2,153.3c-0.4-0.5-1.2-1.1-0.8-1.7c0.1-0.2,0.4-0.3,0.6-0.4c1.2-0.6,2.4-1.7,2.4-3c0-1.3-1.1-2.3-2.1-3.1
		c-0.2-0.2-0.4-0.3-0.5-0.6c-0.3-0.8,0.7-1.4,1.2-2c0.9-1.1,0.2-2.9-1-3.6c-1.2-0.7-2.7-0.6-4.1-0.3c-1.9,0.5-3.8,1.4-5.3,2.7
		c-0.4-0.9-1-1.7-2-1.8c-0.6-0.1-1.1,0.1-1.7,0.2c-3.3,0.7-6.9,0.4-9.8-1.3c-3.7-2.1-3.3-7.7-8.7-5.7c-1.7,0.6-3.2,1.9-4.2,3.4
		c-3.1,4.5-3.1,10.9,0.1,15.4c3.6,4.9,12.5,8.6,18.6,7.6c1.1-0.2,2.2-0.5,3.2-1.2c0.4-0.3,0.7-0.6,1-0.9c2.1,1.7,4.9,2.3,7.6,2.3
		c1.7,0,3.6-0.3,4.8-1.5C211.9,156.8,212.4,154.6,211.2,153.3z"/>
	<path class="st8" d="M197.8,155.1c0,0.9,0,2-0.8,2.3c-0.6,0.3-1.3-0.1-1.7-0.7c-0.3-0.6-0.3-1.3-0.3-1.9c0.1-2.8,0.6-5.6,1.1-8.3
		c0.3-1.4,0.5-2.8,1.1-4.1c0.4-0.8,2-3,3.1-1.9c0.9,0.9-0.5,3.1-0.8,4C198.2,147.8,197.6,151.4,197.8,155.1z"/>
	<path class="st8" d="M221.5,118.5c1,1.3,2,2.6,2.6,4.1c0.4,1.1,1.5,2.6,0.8,3.7c-0.4,0.7-1.5,0.9-2,0.4c-0.5-0.5-0.7-1.4-1.1-2
		c-0.4-0.7-1-1.3-1.4-2.1c-0.8-1.5-1.4-2.8-2.5-4.2c-1.1-1.4-2.1-2.9-3.4-4.2c-0.1-0.1-0.3-0.3-0.3-0.4c0-0.2,0.1-0.3,0.2-0.5
		c0.4-0.6,1.1-0.9,1.8-0.8c1.1,0.1,1.9,1,2.5,1.9C219.7,115.8,220.4,117.2,221.5,118.5z"/>
	<path class="st0" d="M179.5,146.5c-0.2,1.3-0.2,2.7,0.7,3.6c4.6,4.7,6.1-2,7.1-5.5c0.2-0.5,0.3-1.1,0.3-1.7c-0.2-1.9-3.3-3.2-5-2.6
		C180.6,141.2,179.8,144.7,179.5,146.5z"/>
	<path class="st3" d="M213.4,183c-0.5,0.3-1,0.8-1.1,1.3c-0.1,0.7,0.4,1.4,1.1,1.6c0.7,0.3,1.4,0.2,2.1,0.1c1.9-0.3,3.7-0.9,5.4-1.6
		c1.6-0.7,9.8-5.4,4.7-6.7c-2-0.5-3.4,0.5-5,1.5C218.3,180.6,215.6,181.5,213.4,183z"/>
	<path class="st8" d="M235.6,159.4c-0.6,0.9-1.1,1.8-1,2.9c0,0.3,0.1,0.5,0.3,0.7c0.3,0.3,0.7,0.4,1.1,0.3c0.4-0.1,0.7-0.3,1.1-0.5
		c1.2-0.9,4.8-4.7,3.7-6.5C239.3,154,236.2,158.5,235.6,159.4z"/>
</g>
<path class="st0" d="M86,40.1c0.1,0,0.3,0.2,0.5,0.4c0.7,0.7,1.5,1.7,2.6,1.8c0.7,0.1,1.5-0.1,2.1,0.3c0.1,0,0.1,0.1,0.1,0.1
	c0,0.1-0.1,0.2-0.2,0.3c-0.9,0.7-2,1.5-2.3,2.7c-0.1,0.5-0.3,1.1-0.2,1.6c0,0.3,0.1,1.1-0.3,1.1c-0.1,0-0.2-0.1-0.3-0.2
	c-0.4-0.6-0.8-1-1.3-1.5c-0.2-0.2-0.3-0.4-0.6-0.6C86.1,46,86,46,85.9,45.9c-0.8-0.2-1.8-0.3-2.6-0.7c-0.1-0.1-0.2-0.2-0.2-0.3
	c0,0,0.1-0.1,0.1-0.1c0.4-0.4,0.8-0.7,1.2-1c0.7-0.6,1-1.3,1.1-2.1c0.1-0.4,0.1-0.8,0.2-1.2C85.9,40.2,86,40.1,86,40.1z"/>
<path class="st0" d="M77.3,117.8c0.2,0,0.4,0.3,0.7,0.6c1,1,2.1,2.3,3.6,2.5c1,0.1,2-0.1,2.9,0.4c0.1,0,0.1,0.1,0.2,0.2
	c0.1,0.2-0.1,0.3-0.2,0.4c-1.3,1-2.8,2.1-3.2,3.8c-0.2,0.7-0.4,1.4-0.3,2.2c0,0.4,0.2,1.5-0.4,1.5c-0.2,0-0.3-0.2-0.4-0.3
	c-0.5-0.8-1.1-1.4-1.8-2.1c-0.3-0.3-0.4-0.6-0.8-0.8c-0.2-0.1-0.3-0.1-0.5-0.2c-1.1-0.3-2.5-0.4-3.5-1c-0.2-0.1-0.3-0.3-0.2-0.4
	c0-0.1,0.1-0.1,0.1-0.2c0.5-0.5,1.2-0.9,1.7-1.4c0.9-0.8,1.3-1.8,1.6-2.9c0.1-0.5,0.1-1.1,0.3-1.6C77.1,117.9,77.2,117.8,77.3,117.8
	z"/>
<path class="st0" d="M272.2,314.7c0.1,0.1,0,0.5-0.1,1c-0.4,1.5-0.9,3.2-0.3,4.6c0.4,1,1.3,1.8,1.3,2.8c0,0.1,0,0.2-0.1,0.2
	c-0.1,0.1-0.3,0.1-0.5,0c-1.6-0.6-3.5-1.3-5.2-0.8c-0.7,0.2-1.5,0.5-2.1,0.9c-0.3,0.2-1.2,1-1.6,0.5c-0.1-0.2,0-0.4,0.1-0.5
	c0.4-0.9,0.7-1.8,0.9-2.8c0.1-0.4,0.3-0.7,0.3-1.1c0-0.2-0.1-0.4-0.1-0.6c-0.4-1.2-1-2.5-1.1-3.7c0-0.2,0.1-0.4,0.3-0.5
	c0.1,0,0.1,0,0.2,0c0.8,0.2,1.5,0.5,2.2,0.8c1.2,0.4,2.3,0.2,3.5-0.2c0.5-0.2,1.1-0.5,1.6-0.6C271.9,314.6,272.1,314.6,272.2,314.7z
	"/>
<path class="st0" d="M300.1,175.5c0.1,0.1,0,0.2-0.1,0.4c-0.2,0.6-0.4,1.4-0.1,2c0.2,0.4,0.6,0.8,0.6,1.2c0,0,0,0.1,0,0.1
	c0,0.1-0.1,0-0.2,0c-0.7-0.3-1.5-0.6-2.3-0.3c-0.3,0.1-0.7,0.2-0.9,0.4c-0.1,0.1-0.5,0.4-0.7,0.2c0-0.1,0-0.2,0-0.2
	c0.2-0.4,0.3-0.8,0.4-1.2c0-0.2,0.1-0.3,0.1-0.5c0-0.1,0-0.2-0.1-0.2c-0.2-0.5-0.4-1.1-0.5-1.6c0-0.1,0-0.2,0.1-0.2c0,0,0.1,0,0.1,0
	c0.3,0.1,0.6,0.2,1,0.3c0.5,0.2,1,0.1,1.5-0.1c0.2-0.1,0.5-0.2,0.7-0.3C300,175.4,300,175.5,300.1,175.5z"/>
<path class="st13" d="M310.8,96.7c0.1,0.1,0,0.2,0,0.4c-0.1,0.5-0.3,1.2-0.1,1.7c0.2,0.3,0.5,0.6,0.5,1c0,0,0,0.1,0,0.1
	c0,0-0.1,0-0.2,0c-0.6-0.2-1.3-0.5-1.9-0.3c-0.3,0.1-0.5,0.2-0.8,0.3c-0.1,0.1-0.5,0.4-0.6,0.2c0-0.1,0-0.1,0-0.2
	c0.2-0.3,0.2-0.7,0.3-1c0-0.1,0.1-0.3,0.1-0.4c0-0.1,0-0.1,0-0.2c-0.1-0.4-0.4-0.9-0.4-1.4c0-0.1,0-0.2,0.1-0.2c0,0,0.1,0,0.1,0
	c0.3,0.1,0.5,0.2,0.8,0.3c0.5,0.1,0.8,0.1,1.3-0.1c0.2-0.1,0.4-0.2,0.6-0.2C310.7,96.6,310.8,96.6,310.8,96.7z"/>
<path class="st13" d="M191.7,262.9c0.1,0.1,0,0.2,0,0.4c-0.1,0.6-0.4,1.2-0.1,1.8c0.2,0.4,0.5,0.7,0.5,1.1c0,0,0,0.1,0,0.1
	c0,0.1-0.1,0-0.2,0c-0.6-0.2-1.4-0.5-2-0.3c-0.3,0.1-0.6,0.2-0.8,0.4c-0.1,0.1-0.5,0.4-0.6,0.2c0-0.1,0-0.1,0-0.2
	c0.2-0.4,0.3-0.7,0.3-1.1c0-0.1,0.1-0.3,0.1-0.4c0-0.1,0-0.1,0-0.2c-0.1-0.5-0.4-1-0.4-1.5c0-0.1,0-0.2,0.1-0.2c0,0,0.1,0,0.1,0
	c0.3,0.1,0.6,0.2,0.9,0.3c0.5,0.2,0.9,0.1,1.4-0.1c0.2-0.1,0.4-0.2,0.6-0.2C191.6,262.9,191.7,262.9,191.7,262.9z"/>
<path class="st0" d="M333.7,247.6c-0.2,0-0.4-0.3-0.7-0.6c-1-1-2.1-2.3-3.5-2.5c-1-0.1-2,0.1-2.8-0.3c-0.1,0-0.1-0.1-0.2-0.2
	c-0.1-0.1,0.1-0.3,0.2-0.4c1.2-1,2.7-2.1,3.1-3.7c0.2-0.7,0.4-1.4,0.3-2.1c0-0.4-0.2-1.5,0.4-1.5c0.2,0,0.3,0.2,0.4,0.3
	c0.5,0.8,1.1,1.4,1.8,2.1c0.3,0.3,0.4,0.6,0.7,0.8c0.2,0.1,0.3,0.1,0.5,0.2c1.1,0.3,2.4,0.4,3.5,1c0.2,0.1,0.3,0.3,0.2,0.4
	c0,0.1-0.1,0.1-0.1,0.2c-0.5,0.5-1.1,0.9-1.7,1.4c-0.9,0.8-1.3,1.7-1.6,2.9c-0.1,0.5-0.1,1.1-0.3,1.6
	C333.9,247.4,333.8,247.5,333.7,247.6z"/>
<path class="st0" d="M505.4,51.3c-0.1,0-0.3-0.2-0.5-0.4c-0.7-0.8-1.5-1.7-2.7-1.9c-0.7-0.1-1.5,0.1-2.1-0.3c-0.1,0-0.1-0.1-0.1-0.1
	c0-0.1,0.1-0.2,0.2-0.3c0.9-0.7,2.1-1.6,2.4-2.8c0.1-0.5,0.3-1.1,0.2-1.6c0-0.3-0.1-1.1,0.3-1.1c0.1,0,0.2,0.1,0.3,0.2
	c0.4,0.6,0.8,1.1,1.4,1.6c0.2,0.2,0.3,0.4,0.6,0.6c0.1,0.1,0.2,0.1,0.4,0.1c0.8,0.2,1.8,0.3,2.6,0.7c0.1,0.1,0.2,0.2,0.2,0.3
	c0,0-0.1,0.1-0.1,0.1c-0.4,0.4-0.9,0.7-1.3,1c-0.7,0.6-1,1.3-1.2,2.2c-0.1,0.4-0.1,0.8-0.2,1.2C505.6,51.2,505.5,51.3,505.4,51.3z"
	/>
<path class="st0" d="M228.2,31.9c-0.1-0.1,0-0.4,0.1-0.7c0.3-1,0.7-2.3,0.2-3.3c-0.3-0.7-0.9-1.2-0.9-2c0-0.1,0-0.1,0-0.2
	c0.1-0.1,0.2-0.1,0.3,0c1.1,0.4,2.4,0.9,3.7,0.5c0.5-0.2,1.1-0.3,1.5-0.6c0.2-0.2,0.9-0.7,1.1-0.3c0.1,0.1,0,0.3,0,0.4
	c-0.3,0.7-0.5,1.3-0.6,2c-0.1,0.3-0.2,0.5-0.2,0.8c0,0.1,0,0.3,0.1,0.4c0.2,0.9,0.7,1.7,0.8,2.6c0,0.1-0.1,0.3-0.2,0.3
	c-0.1,0-0.1,0-0.2,0c-0.5-0.1-1-0.4-1.6-0.5c-0.9-0.3-1.6-0.1-2.5,0.1c-0.4,0.1-0.7,0.3-1.1,0.4C228.4,31.9,228.3,31.9,228.2,31.9z"
	/>
<path class="st0" d="M398.5,158.3c-0.1-0.1,0-0.5,0.1-0.9c0.3-1.4,0.9-3,0.3-4.3c-0.4-0.9-1.2-1.6-1.2-2.6c0-0.1,0-0.2,0.1-0.2
	c0.1-0.1,0.3-0.1,0.4,0c1.5,0.5,3.2,1.2,4.8,0.7c0.7-0.2,1.4-0.4,2-0.9c0.3-0.2,1.2-0.9,1.5-0.4c0.1,0.1,0,0.3-0.1,0.5
	c-0.4,0.9-0.6,1.7-0.8,2.6c-0.1,0.4-0.3,0.7-0.3,1c0,0.2,0.1,0.4,0.1,0.5c0.3,1.1,0.9,2.3,1,3.5c0,0.2-0.1,0.4-0.2,0.4
	c-0.1,0-0.1,0-0.2,0c-0.7-0.2-1.4-0.5-2.1-0.7c-1.2-0.4-2.2-0.2-3.3,0.2c-0.5,0.2-1,0.5-1.5,0.6
	C398.8,158.4,398.6,158.4,398.5,158.3z"/>
<path class="st13" d="M666.5,149.8c-0.1-0.1,0-0.3,0.1-0.6c0.2-0.9,0.6-2,0.2-2.9c-0.3-0.6-0.8-1.1-0.8-1.8c0-0.1,0-0.1,0-0.2
	c0.1-0.1,0.2-0.1,0.3,0c1,0.4,2.2,0.8,3.3,0.5c0.5-0.1,1-0.3,1.3-0.6c0.2-0.1,0.8-0.6,1-0.3c0.1,0.1,0,0.2,0,0.3
	c-0.3,0.6-0.4,1.2-0.6,1.8c-0.1,0.2-0.2,0.5-0.2,0.7c0,0.1,0,0.2,0.1,0.4c0.2,0.8,0.6,1.6,0.7,2.4c0,0.1,0,0.3-0.2,0.3
	c0,0-0.1,0-0.1,0c-0.5-0.1-0.9-0.3-1.4-0.5c-0.8-0.2-1.5-0.1-2.2,0.1c-0.3,0.1-0.7,0.3-1,0.4C666.7,149.9,666.6,149.9,666.5,149.8z"
	/>
<path class="st1" d="M466.9,263.2c-0.6,4-2.8,7.7-5.9,10.3c-2.3,1.9-5.6,3.2-8.2,1.6c-2.3-1.4-3-4.3-3.2-7c-0.2-2.3-0.1-4.7,0.1-7
	c0.2-2.2,0.7-4.4,1.7-6.3c1-2,2.6-3.7,4.6-4.5C464.5,246.9,467.9,256.8,466.9,263.2z"/>
<g>
	<path class="st1" d="M514.2,212.2c5.3,0.7,10.7-0.1,16-0.6c7.8-0.8,16-0.9,22.6,3.9c2.9,2.1,5.5,4.6,8.7,6.1
		c3.3,1.5,6.8,2.4,10.2,3.6c5,1.8,9.7,4.3,13.9,7.5c4,3,8.5,6.9,10.8,11.5c0.4,0.8,0.7,1.6,0.7,2.4c0.2,3.4-4.2,5.1-6.9,3.8
		c-1.3-0.6-1.8-1.8-2.6-2.9c-0.9-1.2-1.8-2.4-2.8-3.5c-2-2.2-4.3-4.3-6.7-6c-3.5-2.5-7.4-4.4-11.5-5.7c-2.4-0.7-4.8-1.6-7.2-2.4
		c-3.4-1-5.3-2.9-7.8-5.3c-2.7-2.5-6-4.2-9.5-5.4c-3.9-1.3-7.9-1.4-11.9-0.9c-3.9,0.4-7.8,1.8-11.7,1.8c-5.6,0-13.2-1.6-17.4-5.6
		c-1.4-1.3-3.2-3.3-3.7-5.1c-0.4-1.5-0.1-3.8,1.8-4.1c2.2-0.4,4.1,2.1,5.8,3.2C507.7,210.7,510.9,211.8,514.2,212.2z"/>
	<g>
		<path class="st2" d="M524.7,217.7c-0.1,0.8-0.3,1.5-0.6,2c-1.6,2.4-2.2-3.4-2.2-4.1c0-1,0.1-2.1,0.2-3.1c0.2-1.5,1.4-2,1.9-0.4
			C524.4,213.4,524.9,215.8,524.7,217.7z"/>
		<path class="st2" d="M531.4,217.2c-0.2,0.8-0.4,1.5-0.8,2c-1.9,2.2-1.8-3.7-1.7-4.4c0.1-1,0.3-2,0.5-3.1c0.3-1.5,1.6-1.8,1.9-0.2
			C531.6,212.8,531.8,215.3,531.4,217.2z"/>
		<path class="st2" d="M538.3,217.1c-0.2,0.8-0.6,1.5-1,1.9c-2.1,2.1-1.5-3.8-1.3-4.5c0.2-1,0.5-2,0.8-3c0.5-1.5,1.7-1.7,1.9-0.1
			C538.9,212.7,538.8,215.2,538.3,217.1z"/>
		<path class="st2" d="M545.6,218.7c-0.3,0.8-0.7,1.4-1.1,1.8c-2.3,1.9-1.1-3.9-0.9-4.6c0.3-1,0.6-2,1-2.9c0.6-1.4,1.9-1.5,1.9,0.1
			C546.6,214.4,546.3,216.9,545.6,218.7z"/>
		<path class="st2" d="M552.1,222.2c-0.5,0.7-1,1.2-1.6,1.5c-2.7,1.3-0.1-4.1,0.2-4.7c0.5-0.9,1.1-1.7,1.7-2.6
			c0.9-1.2,2.2-1,1.9,0.6C554.1,218.3,553.2,220.6,552.1,222.2z"/>
		<path class="st2" d="M558,227c-0.5,0.7-1.1,1.3-1.6,1.5c-2.8,1.3-0.1-4.3,0.3-4.9c0.6-0.9,1.2-1.8,1.8-2.7c1-1.3,2.3-1.1,2,0.6
			C560.2,222.9,559.2,225.3,558,227z"/>
		<path class="st2" d="M565.2,230.3c-0.5,0.7-1,1.3-1.5,1.7c-2.7,1.5-0.4-4.3-0.1-4.9c0.5-1,1-1.9,1.6-2.8c0.9-1.4,2.2-1.2,2,0.5
			C567.1,226.1,566.3,228.6,565.2,230.3z"/>
		<path class="st2" d="M573.3,233.2c-0.5,0.7-1,1.3-1.5,1.7c-2.7,1.5-0.4-4.3-0.1-4.9c0.5-1,1-1.9,1.6-2.8c0.9-1.4,2.2-1.2,2,0.5
			C575.1,229,574.4,231.5,573.3,233.2z"/>
		<path class="st2" d="M581.1,237.6c-0.6,0.6-1.3,1.1-1.9,1.2c-3,0.8,0.6-4.3,1.1-4.8c0.7-0.8,1.5-1.6,2.3-2.4
			c1.2-1.1,2.5-0.6,1.8,1C584,233.9,582.6,236.2,581.1,237.6z"/>
		<path class="st2" d="M588.2,245.2c-0.8,0.5-1.6,0.8-2.3,0.8c-3.4,0.1,1.8-4.3,2.4-4.8c1-0.7,2-1.3,3-1.9c1.6-0.9,2.8,0,1.7,1.5
			C592.1,242,590.1,244.1,588.2,245.2z"/>
		<path class="st2" d="M517.7,218.2c-0.1,0.8-0.4,1.5-0.7,2c-1.8,2.3-1.9-3.6-1.9-4.3c0.1-1,0.2-2.1,0.4-3.1
			c0.3-1.5,1.5-1.9,1.9-0.3C517.7,213.8,518,216.2,517.7,218.2z"/>
		<path class="st2" d="M510.3,217.4c-0.3,0.8-0.6,1.5-1,1.9c-2.1,2-1.4-3.8-1.2-4.5c0.2-1,0.5-2,0.9-3c0.5-1.5,1.8-1.6,1.9,0
			C511,213,510.9,215.5,510.3,217.4z"/>
	</g>
</g>
<path class="st1" d="M423,257.6c-4,0-8-1.5-11.1-4.1c-2.2-1.9-4-5-3-7.8c1-2.5,3.8-3.7,6.4-4.3c2.3-0.6,4.6-0.9,7-1
	c2.2-0.1,4.4,0,6.5,0.6s4,1.9,5.2,3.8C438.6,252.6,429.4,257.6,423,257.6z"/>
<path class="st3" d="M422.8,222.4c-2,3.9-1.9,8.7-3.7,12.7c-1.1,2.3-2.8,4.7-2.1,7.1c0.4,1.4,1.5,2.4,2.7,3.3c4.1,3,9.4,4.5,14.5,4
	c1.5-0.1,2.9-0.4,4.2-1.2c1.3-0.7,2.3-1.9,2.7-3.3c0.3-1.3,0-2.6,0.1-3.9c0.3-2.8,2.5-4.9,4.7-6.6c2.1-1.6,4.3-3.1,5.7-5.4
	c1.3-2.2-0.4-5.7-1.5-7.7c-1.6-3-3.9-6.1-6.9-7.9c-1.8-1.1-3.3-1.6-5.3-0.8c-2.5,0.9-4.9,2-7.3,3.2c-2.6,1.4-5.3,3-7,5.4
	C423.3,221.6,423,222,422.8,222.4z"/>
<path class="st4" d="M502,185.8c1.7,2,2.6,4.5,3.2,7c1.1,4.9,1.2,9.9,1,14.9c-0.3,6.2-1,12.4-2.2,18.4c-0.6,2.9-1.3,5.9-2.9,8.4
	c-2.1,3.2-5.4,5.3-8.8,7c-5.2,2.5-10.9,4.1-16.6,4c-1.8,0-3.6-0.3-5.2-0.9c-2.6-1.1-4.6-3.4-6-5.9c-1.3-2.4-2.2-5.1-2.3-7.8
	c-0.1-6.1,3.8-11.4,6.2-16.9c3.1-7,4-14.9,6.6-22.1c1.2-3.2,2.7-6.3,5.3-8.6C486.1,178.4,497.2,180.2,502,185.8z"/>
<path class="st5" d="M463.9,247.3c-0.5,0.5-1,1-1.1,1.5c-0.1,0.4,0.1,0.7,0.2,1.1c0.9,2.2,1.7,4.6,1.4,7c-0.4,4.1-4,7.4-8,8.2
	c-4,0.8-8.2-0.6-11.4-3.1c-3.2-2.5-5.5-6.1-7.1-9.8c-1.2-2.6-2.1-5.4-2.2-8.3c-0.1-4.7,2.1-9.3,5.5-12.6c5-4.8,10.8-6.3,17.5-4.8
	c3.5,0.8,6.8,2.2,10.2,3.2c2.7,0.8,5.6,1.4,8,2.9c0.7,0.4,1.4,1,1.8,1.7c0.4,0.9,0.2,1.9-0.3,2.7c-0.5,0.8-1.2,1.5-2,2
	c-1.8,1.3-3.7,2.2-5.6,3.4c-1.6,1-3.2,2.1-4.7,3.3C465.5,246,464.6,246.6,463.9,247.3z"/>
<path class="st6" d="M492.3,190.8c3.3-3.8,8-1.9,9.5,2.4c2.5,7.2,1.2,15,0.7,22.6c-0.5,6.7-0.8,15.2-6.3,19.9
	c-1.2,1.1-2.7,2-4.4,1.9c-1.7-0.1-3.3-1.4-4-2.9c-0.8-1.6-0.9-3.4-0.9-5.1c0-4.1,1.3-8,1.6-12c0.3-4.2,0.8-8.4,0.9-12.6
	c0.1-2.5,0-4.9,0.3-7.4C489.8,195.1,490.7,192.7,492.3,190.8z"/>
<path class="st7" d="M448,197.1c0.4-0.2,0.9-0.4,1.3-0.7c2.3-1.3,4.5-2.9,6.9-3.9c0.1,0,0.2-0.1,0.2,0c0.2,0.1,0.1,0.3,0,0.5
	c-0.8,1.3-1.5,2.7-2.6,3.9c-1.1,1.2-2.2,2.3-3.5,3.2c-1,0.7-2.2,1.3-3.4,1.5c-0.6,0.1-0.8-0.1-1.2-0.4c-0.5-0.4-1.1-0.6-1.7-1
	c-0.2-0.2-0.5-0.4-0.4-0.7c0-0.2,0.2-0.4,0.4-0.5C445.2,198.3,446.6,197.7,448,197.1z"/>
<path class="st5" d="M490,207.5c0.9,6.2-0.2,12.8-2.7,18.6c-2.5,5.8-7.4,10.8-13.6,12.3c-4.1,1-8.4,0.4-12.3-1.2
	c-3.9-1.5-7.4-4-10.6-6.6c-3.6-3-7-6.4-10-10.1c-2-2.5-4-5.3-4.1-8.5c-0.2-3.6,2-6.9,4.7-9.2c2.7-2.3,6-3.8,9.1-5.6
	c3.1-1.8,7.8-5.2,9.3-8.4c1.4-2.9,3.5-4.6,4.9-7.5c2.1-4.3,3.8-8.4,8.4-7C482.1,176.9,487.8,192.5,490,207.5z"/>
<path class="st7" d="M468,192.1c-2-0.2-4.1-0.7-5.6-2c-1.6-1.3-2.5-3.4-1.9-5.4c0.4-1.3,1.5-2.4,2.7-3.2c4.9-3.5,12.3-4.9,17.9-2.2
	c6.5,3.1,3.8,8.9-1.6,11.1C475.9,191.9,471.9,192.5,468,192.1z"/>
<path class="st10" d="M477.6,133.7c4.2,0.9,8.3,2.6,11.5,4.7c4.2,2.7,7.2,6.9,9.4,11.4c2.5,5.3,3.9,11.3,3.3,17.2
	c-0.6,5.9-3.3,11.6-7.9,15.4c-4.3,3.6-10,5.1-15.6,5.9c-3.5,0.5-7,0.7-10.4,0.3c-9.5-1.2-18.2-7.7-21.9-16.6c-3-7-2.9-15.3,0.2-22.2
	c2.9-6.4,8-10.4,13.8-14.1C464.9,132.6,471.5,132.4,477.6,133.7z"/>
<path class="st14" d="M477.6,133.7c4.2,0.9,8.3,2.6,11.5,4.7c4.2,2.7,7.2,6.9,9.4,11.4c2.5,5.3,3.9,11.3,3.3,17.2
	c-0.6,5.9-3.3,11.6-7.9,15.4c-4.3,3.6-10,5.1-15.6,5.9c-3.5,0.5-7,0.7-10.4,0.3c-9.5-1.2-18.2-7.7-21.9-16.6c-3-7-2.9-15.3,0.2-22.2
	c2.9-6.4,8-10.4,13.8-14.1C464.9,132.6,471.5,132.4,477.6,133.7z"/>
<path class="st8" d="M453.4,220.3c3.4,2.3,7.2,4,11.2,5.2c4.1,1.2,8.5,1.5,12.7,2.5c1.3,0.3,2.7,0.7,3.9,1.4
	c0.3,0.2,0.7,0.4,0.8,0.8c0.1,0.3,0.1,0.7,0,1c-0.5,2.5-2.7,4.3-5.2,4.9c-3.4,0.8-7.3-0.4-10.4-1.6c-5.5-2.2-11-4.7-15.9-8.2
	c-4.9-3.4-9.1-7.9-11.7-13.2c-0.8-1.7-1.5-3.7-1-5.6c0.4-1.3,2.5-3.3,4.1-2.4c1.2,0.7,1.7,4,2.4,5.2
	C446.4,214.3,449.7,217.8,453.4,220.3z"/>
<path class="st9" d="M463,196.1c-1.1-0.4-2.2-0.8-3.4-0.6c-1.5,0.2-2.8,1.4-3.8,2.5c-2,2.3-3.7,5-4.8,7.9c-0.4,1.1-0.8,2.4-0.2,3.5
	c0.5,0.8,1.4,1.2,2.3,1.6c3.1,1.2,6.2,2,9.5,2.6c0.7,0.1,1.4,0.2,2,0.1c1-0.2,1.8-0.9,2.4-1.6c1.2-1.4,2-3.2,2.8-4.9
	c0.7-1.5,2.2-3.5,2.3-5.1c0.1-1.7-2-2.4-3.2-3.1C467,197.9,465.1,196.9,463,196.1z"/>
<path class="st7" d="M483.9,216.5c-2.1,3.6-6.1,6.4-10.3,6.4c-1,0-2.1-0.1-2.8-0.8c-0.7-0.7-0.9-1.7-0.8-2.7c0.1-1,0.6-1.8,1.1-2.7
	c2.5-4.5,5.9-8.5,9.8-11.8c0.7-0.6,1.5-1.2,2.4-1.4C488.9,202.5,485.2,214.4,483.9,216.5z"/>
<path class="st11" d="M457.4,221.5c0.4,0.3,0.9,0.6,1.2,1.1c0.7,1.1,0.2,2.5-0.4,3.5c-0.7,1.1-1.5,2.2-2.5,3c-0.5,0.5-1.2,0.9-1.9,1
	c-1,0.2-2-0.3-2.8-0.8c-1.8-1.1-3.4-2.5-4.8-4.1c-0.8-1-1.6-2.1-1.7-3.4c-0.2-2,1.1-3.8,2.6-5.2c1.6-1.6,3.8-0.3,5.3,1
	C453.9,219.1,455.6,220.3,457.4,221.5z"/>
<path class="st11" d="M462.3,198.7c-0.6-0.2-1.2-0.4-1.8-0.3c-0.8,0.1-1.5,0.6-2,1.3c-0.1,0.2-0.2,0.4-0.2,0.6c0,0.5,0.5,0.8,1,1
	c2.1,1,4.2,2,6.3,3c1,0.5,2.3,1.1,3.4,0.4c0.9-0.6,1-1.5,0.3-2.3C467.9,200.5,464.4,199.4,462.3,198.7z"/>
<path class="st11" d="M452.7,244.2c0.5,0.3,1,0.6,1.1,1.1c0.2,0.6-0.3,1.3-0.8,1.6c-0.6,0.3-1.3,0.3-1.9,0.3c-1.7-0.1-3.5-0.5-5.1-1
	c-1.6-0.5-9.4-4.2-4.9-5.8c1.8-0.6,3.2,0.2,4.7,1C448,242.5,450.5,243,452.7,244.2z"/>
<path class="st11" d="M430.4,224.4c0.6,0.7,1.2,1.6,1.2,2.6c0,0.2,0,0.5-0.2,0.7c-0.2,0.3-0.6,0.4-1,0.4c-0.4,0-0.7-0.2-1-0.4
	c-1.2-0.7-4.8-3.9-3.9-5.6C426.6,219.8,429.8,223.7,430.4,224.4z"/>
<g>
	<path class="st15" d="M422.3,190.5c0,0,4.2-9.5,5-10.5c0.8-1,34.6,0,35.1,0s3.6,10.5,3.6,10.5l-22.8,2.4L422.3,190.5z"/>
	<path class="st16" d="M422.3,190.5c-0.1,0.7,0.4,32.2,0.7,32.7c0.3,0.6,42.8,0.8,43.5,0c0.7-0.8-0.3-32.7-0.4-32.7
		C465.9,190.5,422.3,190.5,422.3,190.5z"/>
	<path class="st15" d="M427.3,180c-0.4,0.4-1.4,2.5-2.4,4.8h39.4c-0.8-2.5-1.6-4.8-1.9-4.8C461.9,180,428.1,179,427.3,180z"/>
	<path class="st17" d="M427.4,215.2c-0.7,0.1-1.2,0.5-1.7,0.9c-0.3,0.2-0.5,0.7-0.3,1c0.2,0.3,0.7,0.5,1,0.3
		c0.5-0.3,1.1-0.7,1.6-1.1C428.4,215.8,428,215.1,427.4,215.2z"/>
	<path class="st17" d="M433.3,213.9c-2.9,0.5-5.4,3.2-7.6,5c-0.7,0.6,0.3,1.5,1,1c1.2-1,2.4-2,3.7-2.8c1.1-0.7,2.5-1.1,3.5-2.1
		C434.5,214.5,433.9,213.8,433.3,213.9z"/>
	<path class="st17" d="M435.6,216.7c-1.2,0.2-2.2,0.8-3.2,1.4c-1.2,0.7-2.4,1.5-3.7,2.2c-0.7,0.4-0.1,1.4,0.6,1.1
		c1.1-0.6,2.3-1.2,3.4-1.7c1.1-0.6,2.4-1,3.3-1.8C436.7,217.4,436.3,216.6,435.6,216.7z"/>
	<path class="st17" d="M435.8,219.6c-0.8,0.2-1.6,0.6-2.4,0.9c-0.5,0.2-0.1,1.2,0.4,0.9c0.8-0.3,1.8-0.5,2.4-1.1
		C436.6,220.1,436.2,219.6,435.8,219.6z"/>
	<path class="st16" d="M462.6,184.5c-11.8-0.3-23.8-0.3-35.6,0c-0.4,0-0.4,0.5,0,0.5c11.8,0.3,23.8,0.3,35.6,0
		C463,185,463,184.5,462.6,184.5z"/>
	<path class="st16" d="M426.8,187.2c-0.7,0.1-1.4,0.5-2,1c-0.2,0.2-0.2,0.6,0,0.8c0.2,0.2,0.6,0.2,0.8,0c0.2-0.2,0.5-0.3,0.7-0.4
		c0.3-0.2,0.6-0.3,0.9-0.6C427.7,187.6,427.3,187.1,426.8,187.2z"/>
	<path class="st16" d="M427.9,187.8c-0.3,0.2-0.5,0.3-0.8,0.5c-0.6,0.3-0.1,1.2,0.5,0.9c0.4-0.2,0.7-0.4,0.8-0.8
		C428.6,188,428.3,187.6,427.9,187.8z"/>
</g>
<path class="st12" d="M452.2,216.9c0.4-0.5,1-1.1,0.6-1.6c-0.1-0.2-0.4-0.2-0.6-0.3c-1.2-0.4-2.4-1.3-2.4-2.6
	c-0.1-1.2,0.8-2.2,1.7-3c0.2-0.2,0.3-0.3,0.4-0.6c0.2-0.7-0.8-1.2-1.3-1.8c-0.9-0.9-0.5-2.6,0.6-3.4s2.4-0.8,3.7-0.6
	c1.8,0.3,3.6,1,5,2.1c0.3-0.9,0.8-1.6,1.7-1.8c0.5-0.1,1,0,1.6,0c3.1,0.4,6.3-0.2,8.9-2c3.2-2.2,2.4-7.3,7.5-5.9
	c1.6,0.4,3,1.5,4.1,2.8c3.2,3.8,3.7,9.8,1.2,14.1c-2.9,4.8-10.8,8.9-16.4,8.4c-1-0.1-2.1-0.3-3-0.8c-0.4-0.2-0.7-0.4-1-0.7
	c-1.8,1.7-4.3,2.5-6.7,2.8c-1.6,0.1-3.3,0-4.6-0.9C451.9,220.1,451.3,218.2,452.2,216.9z"/>
<path class="st11" d="M463.4,218.9c0,1,0.2,2.2,1.1,2.5c0.7,0.2,1.5-0.3,1.8-1c0.3-0.7,0.3-1.4,0.2-2.1c-0.3-3.1-1.2-6.1-2-9
	c-0.4-1.5-0.8-3-1.6-4.3c-0.5-0.9-2.4-3.1-3.6-1.8c-0.9,1,0.9,3.4,1.3,4.2C462.2,210.9,463.2,214.9,463.4,218.9z"/>
<path class="st18" d="M480.7,208.1c0.3,1.1,0.4,2.5-0.4,3.4c-3.8,4.7-5.7-1.3-7-4.4c-0.2-0.5-0.4-1-0.4-1.5c0.1-1.7,2.7-3.2,4.4-2.8
	C479.3,203.3,480.3,206.4,480.7,208.1z"/>
<path class="st0" d="M556.5,144.2c0.2,0.1,0.5-0.1,0.9-0.3c1.3-0.7,2.8-1.6,4.3-1.4c1,0.2,2,0.8,3,0.6c0.1,0,0.2,0,0.2-0.1
	c0.1-0.1,0-0.3-0.1-0.5c-0.9-1.4-2-3-1.9-4.7c0.1-0.7,0.1-1.5,0.4-2.2c0.1-0.4,0.6-1.4,0.1-1.6c-0.2-0.1-0.3,0.1-0.5,0.2
	c-0.8,0.6-1.6,1.1-2.5,1.5c-0.3,0.2-0.6,0.4-1,0.5c-0.2,0-0.4,0-0.6,0c-1.2-0.1-2.6-0.4-3.8-0.2c-0.2,0-0.4,0.2-0.4,0.4
	c0,0.1,0,0.1,0.1,0.2c0.4,0.7,0.8,1.3,1.2,1.9c0.7,1.1,0.7,2.2,0.6,3.4c-0.1,0.6-0.2,1.1-0.2,1.7C556.4,144,556.4,144.2,556.5,144.2
	z"/>
<path class="st0" d="M412.6,278.7c-0.1,0-0.2,0-0.3,0.1"/>
<path class="st13" d="M565.1,336.8c0.1,0,0.1-0.2,0.1-0.4c0-0.6,0-1.4,0.5-1.9c0.3-0.3,0.7-0.5,0.9-1c0,0,0-0.1,0-0.1
	c0-0.1-0.1-0.1-0.2-0.1c-0.7,0-1.6,0.1-2.2-0.4c-0.3-0.2-0.5-0.4-0.7-0.6c-0.1-0.1-0.4-0.6-0.6-0.4c-0.1,0-0.1,0.1,0,0.2
	c0.1,0.4,0,0.8,0,1.3c0,0.2,0,0.3,0,0.5c0,0.1-0.1,0.1-0.1,0.2c-0.3,0.4-0.7,0.9-0.9,1.4c0,0.1,0,0.2,0,0.2c0,0,0.1,0,0.1,0
	c0.3,0,0.7,0,1,0c0.6,0,1,0.2,1.4,0.5c0.2,0.1,0.4,0.3,0.6,0.5C565,336.8,565.1,336.8,565.1,336.8z"/>
<path class="st13" d="M433.4,349.5c0.2-0.1,0.1-0.4,0.2-0.8c0.1-1.2,0.1-2.7,0.9-3.7c0.6-0.6,1.4-1.1,1.7-1.9c0-0.1,0-0.1,0-0.2
	c0-0.1-0.2-0.1-0.4-0.1c-1.4,0.1-3,0.2-4.2-0.7c-0.5-0.4-1.1-0.8-1.4-1.3c-0.2-0.3-0.7-1.1-1.1-0.8c-0.1,0.1-0.1,0.3-0.1,0.4
	c0.1,0.8,0.1,1.6,0,2.4c0,0.3,0,0.6-0.1,0.9c-0.1,0.1-0.1,0.3-0.2,0.4c-0.6,0.9-1.4,1.7-1.8,2.6c-0.1,0.1-0.1,0.3,0.1,0.4
	c0.1,0,0.1,0,0.2,0c0.6,0,1.3,0,1.9,0c1.1,0,1.9,0.4,2.7,1.1c0.4,0.3,0.7,0.6,1.1,0.9C433.2,349.5,433.3,349.5,433.4,349.5z"/>
<g id="Moon">
	<g id="Moon_2_">
		<g id="Moon_1_">
			<g>
				<circle class="st19" cx="655.6" cy="32.6" r="27.3"/>
				<path class="st20" d="M655.6,5.8c14.8,0,26.8,12,26.8,26.8c0,14.8-12,26.8-26.8,26.8c-14.8,0-26.8-12-26.8-26.8
					C628.7,17.8,640.7,5.8,655.6,5.8 M655.6,4.8c-15.4,0-27.8,12.5-27.8,27.8c0,15.4,12.5,27.8,27.8,27.8s27.8-12.5,27.8-27.8
					C683.4,17.3,670.9,4.8,655.6,4.8L655.6,4.8z"/>
			</g>
			
				<ellipse transform="matrix(0.9239 -0.3827 0.3827 0.9239 38.9575 253.8167)" class="st21" cx="657.5" cy="29" rx="5.1" ry="5.1"/>
			<g class="st22">
				<path class="st23" d="M658.8,25.2c1.1,0,2.2,0.4,3,1c-0.9-1.4-2.5-2.3-4.3-2.3c-2.8,0-5.1,2.3-5.1,5.1c0,1.7,0.8,3.2,2.1,4.1
					c-0.5-0.8-0.8-1.8-0.8-2.8C653.7,27.5,655.9,25.2,658.8,25.2z"/>
			</g>
			<circle class="st21" cx="669.7" cy="20.4" r="3.5"/>
			<g class="st22">
				<path class="st23" d="M670.6,17.8c0.8,0,1.5,0.2,2,0.7c-0.6-0.9-1.7-1.6-2.9-1.6c-1.9,0-3.5,1.6-3.5,3.5c0,1.2,0.6,2.2,1.4,2.8
					c-0.4-0.5-0.6-1.2-0.6-1.9C667.1,19.4,668.7,17.8,670.6,17.8z"/>
			</g>
			<path class="st21" d="M661.7,10.9c0,1.2-1,2.3-2.3,2.3c-1.2,0-2.3-1-2.3-2.3c0-1.2,1-2.3,2.3-2.3C660.7,8.6,661.7,9.6,661.7,10.9
				z"/>
			<g class="st22">
				<path class="st23" d="M660,9.2c0.5,0,1,0.2,1.3,0.4c-0.4-0.6-1.1-1-1.9-1c-1.2,0-2.3,1-2.3,2.3c0,0.8,0.4,1.4,0.9,1.8
					c-0.2-0.4-0.4-0.8-0.4-1.2C657.8,10.2,658.8,9.2,660,9.2z"/>
			</g>
			
				<ellipse transform="matrix(2.270879e-02 -0.9997 0.9997 2.270879e-02 588.1877 675.1614)" class="st21" cx="639.4" cy="36.7" rx="3.5" ry="3.5"/>
			<g class="st22">
				<path class="st23" d="M640.3,34.2c0.8,0,1.5,0.2,2,0.7c-0.6-0.9-1.7-1.6-2.9-1.6c-1.9,0-3.5,1.6-3.5,3.5c0,1.2,0.6,2.2,1.4,2.8
					c-0.4-0.5-0.6-1.2-0.6-1.9C636.8,35.7,638.4,34.2,640.3,34.2z"/>
			</g>
			<path class="st21" d="M655.1,45.2c0,1.9-1.6,3.5-3.5,3.5c-1.9,0-3.5-1.6-3.5-3.5c0-1.9,1.6-3.5,3.5-3.5
				C653.5,41.8,655.1,43.3,655.1,45.2z"/>
			<g class="st22">
				<path class="st23" d="M652.4,42.7c0.8,0,1.5,0.2,2,0.7c-0.6-0.9-1.7-1.6-2.9-1.6c-1.9,0-3.5,1.6-3.5,3.5c0,1.2,0.6,2.2,1.4,2.8
					c-0.4-0.5-0.6-1.2-0.6-1.9C649,44.2,650.5,42.7,652.4,42.7z"/>
			</g>
			<path class="st21" d="M671.5,47.5c0,1.9-1.6,3.5-3.5,3.5s-3.5-1.6-3.5-3.5c0-1.9,1.6-3.5,3.5-3.5S671.5,45.6,671.5,47.5z"/>
			<g class="st22">
				<path class="st23" d="M668.9,45c0.8,0,1.5,0.2,2,0.7c-0.6-0.9-1.7-1.6-2.9-1.6c-1.9,0-3.5,1.6-3.5,3.5c0,1.2,0.6,2.2,1.4,2.8
					c-0.4-0.5-0.6-1.2-0.6-1.9C665.4,46.5,666.9,45,668.9,45z"/>
			</g>
			<path class="st21" d="M676.7,33c0,1.1-0.9,2-2,2c-1.1,0-2-0.9-2-2c0-1.1,0.9-2,2-2C675.8,31,676.7,31.9,676.7,33z"/>
			<g class="st22">
				<path class="st23" d="M675.2,31.5c0.4,0,0.8,0.1,1.2,0.4c-0.4-0.5-1-0.9-1.7-0.9c-1.1,0-2,0.9-2,2c0,0.7,0.3,1.2,0.8,1.6
					c-0.2-0.3-0.3-0.7-0.3-1.1C673.2,32.4,674.1,31.5,675.2,31.5z"/>
			</g>
			<path class="st21" d="M646.9,16.9c0,1.1-0.9,2-2,2c-1.1,0-2-0.9-2-2c0-1.1,0.9-2,2-2C646,14.9,646.9,15.8,646.9,16.9z"/>
			<g class="st22">
				<path class="st23" d="M645.4,15.5c0.4,0,0.8,0.1,1.2,0.4c-0.4-0.5-1-0.9-1.7-0.9c-1.1,0-2,0.9-2,2c0,0.7,0.3,1.2,0.8,1.6
					c-0.2-0.3-0.3-0.7-0.3-1.1C643.4,16.4,644.3,15.5,645.4,15.5z"/>
			</g>
			<path class="st21" d="M635.1,22.6c0,0.6-0.5,1-1,1c-0.6,0-1-0.5-1-1c0-0.6,0.5-1,1-1C634.6,21.6,635.1,22,635.1,22.6z"/>
			<g class="st22">
				<path class="st23" d="M634.3,21.8c0.2,0,0.4,0.1,0.6,0.2c-0.2-0.3-0.5-0.5-0.9-0.5c-0.6,0-1,0.5-1,1c0,0.3,0.2,0.7,0.4,0.8
					c-0.1-0.2-0.2-0.4-0.2-0.6C633.3,22.3,633.7,21.8,634.3,21.8z"/>
			</g>
			<circle class="st21" cx="679.9" cy="39.2" r="1"/>
			<g class="st22">
				<path class="st23" d="M680.2,38.4c0.2,0,0.4,0.1,0.6,0.2c-0.2-0.3-0.5-0.5-0.9-0.5c-0.6,0-1,0.5-1,1c0,0.3,0.2,0.7,0.4,0.8
					c-0.1-0.2-0.2-0.4-0.2-0.6C679.1,38.9,679.6,38.4,680.2,38.4z"/>
			</g>
			<path class="st21" d="M679.9,25.7c0,0.6-0.5,1-1,1s-1-0.5-1-1c0-0.6,0.5-1,1-1S679.9,25.1,679.9,25.7z"/>
			<g class="st22">
				<path class="st23" d="M679.1,24.9c0.2,0,0.4,0.1,0.6,0.2c-0.2-0.3-0.5-0.5-0.9-0.5c-0.6,0-1,0.5-1,1c0,0.3,0.2,0.7,0.4,0.8
					c-0.1-0.2-0.2-0.4-0.2-0.6C678.1,25.4,678.6,24.9,679.1,24.9z"/>
			</g>
			<path class="st21" d="M639.4,45.7c0,0.6-0.5,1-1,1c-0.6,0-1-0.5-1-1c0-0.6,0.5-1,1-1C639,44.7,639.4,45.1,639.4,45.7z"/>
			<g class="st22">
				<path class="st23" d="M638.6,44.9c0.2,0,0.4,0.1,0.6,0.2c-0.2-0.3-0.5-0.5-0.9-0.5c-0.6,0-1,0.5-1,1c0,0.3,0.2,0.7,0.4,0.8
					c-0.1-0.2-0.2-0.4-0.2-0.6C637.6,45.4,638.1,44.9,638.6,44.9z"/>
			</g>
			<path class="st21" d="M649.2,53c0,0.6-0.5,1-1,1c-0.6,0-1-0.5-1-1c0-0.6,0.5-1,1-1C648.7,51.9,649.2,52.4,649.2,53z"/>
			<g class="st22">
				<path class="st23" d="M648.4,52.2c0.2,0,0.4,0.1,0.6,0.2c-0.2-0.3-0.5-0.5-0.9-0.5c-0.6,0-1,0.5-1,1c0,0.3,0.2,0.7,0.4,0.8
					c-0.1-0.2-0.2-0.4-0.2-0.6C647.3,52.7,647.8,52.2,648.4,52.2z"/>
			</g>
		</g>
	</g>
</g>
<g id="Earth">
	<g id="Earth_2_">
		<g id="Earth_1_">
			<g>
				<path class="st24" d="M118.8,349.5c-20.5,0-37.1-16.7-37.1-37.1s16.7-37.1,37.1-37.1s37.1,16.7,37.1,37.1
					S139.3,349.5,118.8,349.5z"/>
				<path class="st20" d="M118.8,275.7c20.2,0,36.6,16.4,36.6,36.6c0,20.2-16.4,36.6-36.6,36.6s-36.6-16.4-36.6-36.6
					C82.2,292.1,98.6,275.7,118.8,275.7 M118.8,274.7c-20.8,0-37.6,16.9-37.6,37.6S98.1,350,118.8,350s37.6-16.9,37.6-37.6
					S139.6,274.7,118.8,274.7L118.8,274.7z"/>
			</g>
			<g>
				<path class="st25" d="M154.4,303.8l-0.6-0.2H151l-2.1-1.7l-4.5,3.3l-3.7-3.3l-6.3,1.2l-4,0.5l-0.7,7.6l1.6,7.3h6.7l3.7-0.5
					l1.6,2.9l1.7,3.4l-3,2.5l2.5,5.8l-0.4,2.3l2.2,1.6c5.6-6.4,9-14.9,9-24.1C155.4,309.4,155.1,306.6,154.4,303.8z"/>
				<path class="st25" d="M87,308.9l2.4,0.5l2.4,1.6l3.2,1l1.6,0.4l1.6,0.7l-0.8,1.6l-2.6,4.1l2.8,3.4l4,2.6v2.3l2.6,4
					c0,0-0.3,2.6,0,3.4c0.3,0.8,1.8,5.1,1.8,5.1l1.6,2l3.7,0.5l-2.4-3.8c0,0,3.5-5.3,3.7-5.5c0.3-0.2-1.1-2.3-0.8-2.6
					c0.3-0.3,2.5-2.6,2.5-2.6l2.4-3l1-3.9l-3-4.8c0,0-3.4-2.4-3.4-2.6c0-0.3-2.2-2.6-2.2-2.6l-6.1-0.2l-3.5-1.1l-1.3,2.3l-2.9-1.5
					l0.1-2.4h-2h-0.3l-1.3-2l1.9-1.5l3.9,2l2.5-1.6l2.6-6.2l2.4-3h4.3l0.6-1.5l2.8-1.4l1.2,0.8l1.3-1.9l-2.5-3.5l-1.9-0.6l-0.7,0.7
					l-2.3,2.2l-5.4-1.3l-0.7,2.6l-2.4-3l3.1-1.1l3.5,0.9l1.4-1.4l4.4-0.6l-3.6-3.7h-4.1l-1.6,2.6l-1.6-2.1l-4-0.3
					c-7.7,5.7-13.1,14.4-14.5,24.3l2.9,0.5L87,308.9z"/>
				<path class="st25" d="M140.9,289.7v1.6l-4.8,1.4l0.5,3.5l-2.7-1.7l-2.6,2.1l1.7,2.6l2.6,0.4l4.5-3.6l1.3,1.6c0,0-0.8,1.9,0,2.6
					c0.8,0.6,4.3,1.6,4.3,1.6v-3.1l-2.4-2.1l1.6-1.3l2.8,2.4l-0.9,1.6l5.3,2.5c0,0,0.6-0.7,1.4-1.7c-2.7-7.5-7.7-13.9-14.2-18.3
					l-1.5,5.8L140.9,289.7z"/>
			</g>
			<path class="st25" d="M90.6,328.1l-0.6-0.6l-1.5,0.3v1.5l-1.6,0.9c0.7,1.3,1.5,2.5,2.4,3.7l1.2-0.2l2.3-1.6l0.1-1.5l-2.3-1.1
				V328.1z"/>
		</g>
	</g>
</g>
<g id="Rocket">
	<g id="Rocket_1_">
		<g id="Rocket_2_">
			<g>
				<path class="st26" d="M600,299.5c-0.8,2.6-5.6,10.4-8.2,9.6c-2.6-0.8-2.1-9.9-1.3-12.5c0.8-2.6,3.6-4.1,6.3-3.3
					C599.4,294,600.8,296.8,600,299.5z"/>
				<path class="st27" d="M598.8,298.3c-0.6,1.9-3.9,7.3-5.8,6.7c-1.9-0.6-1.5-7-0.9-8.8c0.6-1.9,2.6-2.9,4.4-2.3
					C598.4,294.5,599.4,296.4,598.8,298.3z"/>
			</g>
			<g>
				<polygon class="st28" points="634.4,296.8 611.8,289.7 621.6,258.5 644.4,282.2 				"/>
				<polygon class="st28" points="563.2,274.5 585.8,281.5 595.6,250.4 563.4,256.8 				"/>
				
					<rect x="571.8" y="235.8" transform="matrix(0.2988 -0.9543 0.9543 0.2988 185.2 759.0825)" class="st29" width="74.7" height="35.4"/>
				<path class="st30" d="M627.6,194.7c0,0-18.5,0-24.2,17.8c11.3,3.5,16.9,5.3,16.9,5.3s5.6,1.8,16.9,5.3
					C642.8,205.3,627.6,194.7,627.6,194.7z"/>
				
					<rect x="593.7" y="277.4" transform="matrix(0.2988 -0.9543 0.9543 0.2988 139.6476 774.6947)" class="st31" width="6.6" height="29.8"/>
				
					<rect x="552.6" y="259.7" transform="matrix(0.2988 -0.9543 0.9543 0.2988 142.3166 723.2094)" class="st32" width="21.4" height="10.1"/>
				<path class="st33" d="M568.6,247.9c0,0-5.3,0-6.9,5.1c3.2,1,4.8,1.5,4.8,1.5s1.6,0.5,4.8,1.5C573,250.9,568.6,247.9,568.6,247.9
					z"/>
				
					<rect x="558.9" y="271.6" transform="matrix(0.2988 -0.9543 0.9543 0.2988 129.2735 727.6796)" class="st31" width="1.9" height="8.5"/>
				
					<rect x="629.2" y="283.7" transform="matrix(0.2988 -0.9543 0.9543 0.2988 173.1179 813.0801)" class="st32" width="21.4" height="10.1"/>
				<path class="st33" d="M645.1,271.9c0,0-5.3,0-6.9,5.1c3.2,1,4.8,1.5,4.8,1.5s1.6,0.5,4.8,1.5
					C649.5,274.9,645.1,271.9,645.1,271.9z"/>
				
					<rect x="635.5" y="295.6" transform="matrix(0.2988 -0.9543 0.9543 0.2988 160.0749 817.5504)" class="st31" width="1.9" height="8.5"/>
				<path class="st34" d="M625.3,237.3c-1.7,5.5-7.6,8.6-13.2,6.9c-5.5-1.7-8.6-7.6-6.9-13.2c1.7-5.5,7.6-8.6,13.2-6.9
					C623.9,225.9,627,231.8,625.3,237.3z"/>
				
					<ellipse transform="matrix(0.2988 -0.9543 0.9543 0.2988 207.866 751.3148)" class="st35" cx="615.2" cy="234.2" rx="8.6" ry="8.6"/>
				<path class="st36" d="M616,230.2c-0.3,1.1-1.5,1.7-2.6,1.3c-1.1-0.3-1.7-1.5-1.3-2.6c0.3-1.1,1.5-1.7,2.6-1.3
					C615.7,228,616.3,229.1,616,230.2z"/>
			</g>
		</g>
	</g>
</g>
<g>
	<path class="st37" d="M461,168.4c-2-0.2-4-0.5-5.7-1.5c-1.7-0.9-3.2-2.5-3.6-4.5c-0.4-1.9,0.6-4.2,2.4-4.9c0.9-0.3,2-0.4,2.5-1.2
		c0.6-0.9,0.1-2-0.2-3c-0.7-2.7,0.5-5.8,2.9-7.2c2.4-1.5,5.7-1.2,7.8,0.7c1.2-4.2,5.8-7,10.1-6.2c4.3,0.8,7.6,5.1,7.2,9.4
		c-0.1,1.3-0.5,2.6-0.1,3.8c0.5,1.4,1.8,2.2,2.6,3.4c1.5,2.4,0.6,5.6-0.8,8c-1.4,2.5-3.3,4.7-3.8,7.5"/>
	<path class="st38" d="M481,187.3l4.8-27.6l-9.5-11.5l-12.4,3.6c0,0-2.9,14.3-3.6,20.6c-0.7,6.3,5.5,8.1,5.5,8.1s-0.2,5.4-0.8,6.9
		C464.9,187.5,470.2,189.4,481,187.3z"/>
	<g>
		<g>
			<path class="st37" d="M462.5,163.4c0.1,0.1,0.8-0.3,1.6-0.2c0.9,0.1,1.4,0.6,1.5,0.5c0.1,0,0-0.3-0.3-0.5
				c-0.2-0.2-0.7-0.5-1.2-0.6c-0.5-0.1-1,0.1-1.3,0.3C462.6,163.2,462.4,163.4,462.5,163.4z"/>
		</g>
	</g>
	<g>
		<g>
			<path class="st37" d="M472,165.1c0.1,0.1,0.8-0.3,1.6-0.2c0.9,0.1,1.4,0.6,1.5,0.5c0.1,0,0-0.3-0.3-0.5c-0.2-0.2-0.7-0.5-1.2-0.6
				c-0.5-0.1-1,0.1-1.3,0.3C472.1,164.8,472,165,472,165.1z"/>
		</g>
	</g>
	<g>
		<path class="st37" d="M467.6,171.8c0,0.1-0.6,0-1.4-0.2c-0.1,0-0.2,0-0.4-0.1c-0.1-0.1-0.3-0.2-0.3-0.4c-0.1-0.4,0.1-0.6,0.2-0.9
			c0.3-0.5,0.6-1.1,0.9-1.7c1.3-2.4,2.4-4.3,2.4-4.2c0.1,0-0.9,2-2.1,4.4c-0.3,0.6-0.6,1.1-0.9,1.7c-0.1,0.3-0.3,0.5-0.2,0.7
			c0,0.2,0.2,0.2,0.4,0.3C467.1,171.6,467.6,171.7,467.6,171.8z"/>
	</g>
	<g class="st39">
		<path class="st40" d="M471.7,172.9c-0.1,0.7,0.9,1.4,2.2,1.7c1.3,0.3,2.5,0,2.7-0.7c0.2-0.7-0.8-1.6-2.2-1.9
			C473,171.8,471.8,172.2,471.7,172.9z"/>
	</g>
	<path class="st41" d="M470.4,173.1c0.1-0.1-2.8,1-4.5,0.7c0,0,0.8,1.7,2.7,1.3C470.6,174.6,470.4,173.1,470.4,173.1z"/>
	<path class="st42" d="M465.5,182.4c0,0,4.2,0.8,8.7-1.3c0,0-2.7,4.2-8.9,2.9L465.5,182.4z"/>
	<path class="st37" d="M460.5,155c1.6,2.2,4.6,3.1,7.3,2.6c2.7-0.4,5.1-1.9,7.1-3.7c1.7,2.6,4.8,4.1,7.9,4c-0.7,5.7-1.4,11.5-2,17.2
		c0.8,0.3,2.3,0.3,3.1,0.1c1.5-3.8,2.4-7.4,3.9-11.2c0.5-1.4,1.1-2.8,0.8-4.3c-0.3-1.5-1.6-2.7-2.6-3.9c-1.3-1.4-2.5-3-3.8-4.5
		c-1.4-1.4-3-2.7-4.8-3.2c-1.9-0.5-4-0.3-5.9,0c-2.2,0.3-4.6,0.6-6.5,1.7c-2,1.1-3.7,3.1-3.6,5.4"/>
	<path class="st43" d="M484.5,167.3c0.7-0.1,1.4-0.2,2.1-0.1c0.7,0.1,1.4,0.5,1.6,1.2c0.2,0.5,0.1,1-0.1,1.5
		c-0.4,0.8-1.1,1.4-1.9,1.6c-0.8,0.2-1.7,0-2.4-0.5"/>
	<g>
		<path class="st37" d="M475.9,164.2c0.1,0,0.1,0.5-0.3,0.7c-0.4,0.3-0.8,0.2-0.8,0.1c0-0.1,0.3-0.2,0.6-0.4
			C475.7,164.5,475.8,164.2,475.9,164.2z"/>
	</g>
</g>
<g id="Space_Robot_3_">
	<g id="Spacecraft_2_">
		<g id="Fire">
			<path class="st26" d="M79.7,240.1c1.2,3.1,2.6,14-0.5,15.3c-3.1,1.2-9.5-7.7-10.8-10.8c-1.2-3.1,0.3-6.6,3.4-7.8
				S78.5,237,79.7,240.1z"/>
			<path class="st27" d="M77.7,239.9c0.9,2.2,1.9,9.9-0.3,10.7c-2.2,0.9-6.7-5.4-7.6-7.6c-0.9-2.2,0.2-4.7,2.4-5.5
				C74.3,236.6,76.8,237.7,77.7,239.9z"/>
		</g>
		<g id="Spacecraft_1_">
			<g>
				<path class="st44" d="M94.2,182.3l-17.9-6.1c-1.5-0.5-3.6-2-4.6-3.2l-11.6-14.3c-1-1.3-2.6-2.1-3.6-2c-0.1,0-0.1,0-0.2,0l0,0
					l-1.4,0.6l1,2.4l2,5.1l19.3,48.8l3.3,8.4c0.6,1.5,2.1,1.9,3.4,0.9l19.6-15.6c1.3-1,1.8-3.1,1.2-4.6l-6.6-16.7
					C97.5,184.4,95.8,182.8,94.2,182.3z"/>
				<path class="st44" d="M29.1,167.4c0,0-0.1,0-0.1,0.1c-0.8,0.5-1.4,2.3-1.3,3.9l1.3,18.4c0.1,1.6-0.4,4.1-1.2,5.5L19,212
					c-0.8,1.4-0.9,3.8-0.3,5.3l6.6,16.7c0.6,1.5,2.4,2.6,4,2.5l25-2c1.6-0.1,2.4-1.5,1.9-3l-3.3-8.4l-19.3-48.8l-2-5.1l-1-2.4
					L29.1,167.4L29.1,167.4z"/>
			</g>
			<path class="st45" d="M80.5,221.9c0.6,1.5,2.1,1.9,3.4,0.9l19.6-15.6c1.3-1,1.8-3.1,1.2-4.6l-27.5,10.9L80.5,221.9z"/>
			<path class="st45" d="M29.3,236.5l25-2c1.6-0.1,2.4-1.5,1.9-3l-3.3-8.4L25.3,234C25.9,235.6,27.7,236.7,29.3,236.5z"/>
			<path class="st46" d="M71.7,235.2c0.3,0.8-0.1,1.6-0.8,1.9l-9.5,3.7c-0.8,0.3-1.6-0.1-1.9-0.8l-2.3-5.7c-0.3-0.8,0.1-1.6,0.8-1.9
				l9.5-3.7c0.8-0.3,1.6,0.1,1.9,0.8L71.7,235.2z"/>
			<path class="st46" d="M83.9,230.4c0.3,0.8-0.1,1.6-0.8,1.9l-9.5,3.7c-0.8,0.3-1.6-0.1-1.9-0.8l-2.3-5.7c-0.3-0.8,0.1-1.6,0.8-1.9
				l9.5-3.7c0.8-0.3,1.6,0.1,1.9,0.8L83.9,230.4z"/>
			<path class="st47" d="M77.8,232.8c0.3,0.8-0.1,1.6-0.8,1.9l-9.5,3.7c-0.8,0.3-1.6-0.1-1.9-0.8l-2.3-5.7c-0.3-0.8,0.1-1.6,0.8-1.9
				l9.5-3.7c0.8-0.3,1.6,0.1,1.9,0.8L77.8,232.8z"/>
			
				<rect x="40.8" y="148.4" transform="matrix(0.93 -0.3676 0.3676 0.93 -66.2103 33.1591)" class="st29" width="26.2" height="84"/>
			<polygon class="st0" points="97.1,195.5 94.5,196.1 92.4,194.3 92.2,197 89.8,198.4 92.3,199.4 92.9,202.1 94.7,200.1 
				97.4,200.3 96,198 			"/>
			<path class="st45" d="M31.5,133.7c-8.4,3.3-5.3,22.4-5.3,22.4l12.2-4.8l12.2-4.8C50.7,146.5,39.9,130.4,31.5,133.7z"/>
			<g>
				<path class="st48" d="M40.1,155.3c-4.5,1.8-6.7,6.8-4.9,11.3l16.2-6.4C49.6,155.8,44.6,153.6,40.1,155.3z"/>
			</g>
			<path class="st0" d="M33,221.8c0.7,1.8-0.2,3.8-2,4.6c-1.8,0.7-3.8-0.2-4.6-2c-0.7-1.8,0.2-3.8,2-4.6
				C30.2,219.1,32.3,220,33,221.8z"/>
			
				<rect x="45.4" y="161.4" transform="matrix(0.93 -0.3676 0.3676 0.93 -66.3855 33.2702)" class="st49" width="17.5" height="59"/>
			<path class="st50" d="M71.9,229.7c0.3,0.8,1.2,1.1,1.9,0.8l9.5-3.7c0.8-0.3,1.1-1.2,0.8-1.9l-3.7-9.3c-0.3-0.8-1.2-1.4-2-1.5
				l-7.1-0.8c-0.8-0.1-2.1,0.1-2.8,0.4l-1.2,0.5c-0.8,0.3-1.1,1.2-0.8,1.9L71.9,229.7z"/>
			<path class="st50" d="M67.7,231.4c0.3,0.8-0.1,1.6-0.8,1.9l-9.5,3.7c-0.8,0.3-1.6-0.1-1.9-0.8l-3.7-9.3c-0.3-0.8-0.1-1.9,0.4-2.5
				l4.7-5.4c0.5-0.6,1.6-1.4,2.3-1.7l1.2-0.5c0.8-0.3,1.6,0.1,1.9,0.8L67.7,231.4z"/>
			<path class="st51" d="M65.6,213.7c-0.3-0.8-1.2-1.1-1.9-0.8l-1.4,0.6c-0.8,0.3-1.1,1.2-0.8,1.9l6.3,16c0.3,0.8,1.2,1.1,1.9,0.8
				l1.4-0.6c0.8-0.3,1.1-1.2,0.8-1.9L65.6,213.7z"/>
		</g>
	</g>
</g>
<g>
	<path class="st52" d="M177.4,124.3l-3-13.9l-4.4-8.3l0.1-7.6l11.7-12.6l13.3,3.9c0,0,3.1,15.3,3.9,22.1c0.8,6.8-5.9,8.7-5.9,8.7
		s0.1,5.5,0.7,7.2C193.8,123.7,188.3,125.7,177.4,124.3z"/>
	<g>
		<path class="st53" d="M184.4,98.2c0.3,0.2,0.5,0.6,0.3,0.9c-0.2,0.3-0.6,0.5-0.9,0.3c-0.3-0.2-0.5-0.6-0.3-0.9
			C183.7,98.2,184.1,98,184.4,98.2z"/>
		<g>
			<path class="st53" d="M185.6,97.3c0,0.2-0.9,0-1.7,0.5c-0.8,0.4-1.2,1.2-1.3,1.1c-0.1,0-0.1-0.3,0.1-0.6c0.1-0.3,0.5-0.8,1-1
				c0.5-0.3,1.1-0.3,1.4-0.2C185.5,97.1,185.7,97.2,185.6,97.3z"/>
		</g>
	</g>
	<g>
		<path class="st53" d="M195.6,96.5c0.3,0.2,0.5,0.6,0.3,0.9c-0.2,0.3-0.6,0.5-0.9,0.3c-0.3-0.2-0.5-0.6-0.3-0.9
			C194.8,96.5,195.2,96.3,195.6,96.5z"/>
		<g>
			<path class="st53" d="M197.1,96.3c-0.1,0.1-0.8-0.3-1.8-0.1c-0.9,0.1-1.5,0.7-1.6,0.6c-0.1,0,0-0.3,0.3-0.5
				c0.3-0.3,0.7-0.6,1.3-0.6c0.6-0.1,1.1,0.1,1.4,0.3C197,96,197.1,96.2,197.1,96.3z"/>
		</g>
	</g>
	<g>
		<path class="st53" d="M190.9,105.1c0,0,0.6,0,1.5-0.2c0.1,0,0.2,0,0.4-0.1c0.1-0.1,0.3-0.2,0.3-0.4c0.1-0.4-0.1-0.7-0.3-0.9
			c-0.3-0.6-0.6-1.2-0.9-1.8c-0.7-1.3-1.3-2.4-1.8-3.3c-0.5-0.8-0.8-1.3-0.8-1.3c0,0,0.2,0.6,0.6,1.4c0.4,0.9,1,2,1.7,3.3
			c0.3,0.6,0.7,1.2,1,1.8c0.2,0.3,0.3,0.5,0.3,0.7c0,0.2-0.3,0.3-0.5,0.3C191.4,104.9,190.9,105.1,190.9,105.1z"/>
	</g>
	<g class="st54">
		<path class="st55" d="M186.2,103.6c0.1,0.8-1,1.5-2.4,1.8c-1.4,0.3-2.7,0-2.9-0.8c-0.2-0.7,0.9-1.7,2.3-2
			C184.8,102.3,186.1,102.8,186.2,103.6z"/>
	</g>
	<path class="st41" d="M187.8,107.4c-1.1-0.1,3,0.1,4.7-0.9c0,0-0.2,2.1-2.3,2.3C188.1,109,187.8,107.4,187.8,107.4z"/>
	<path class="st56" d="M192.9,116.4c0,0-4.5,0.8-9.4-1.4c0,0,2.9,4.6,9.5,3.1L192.9,116.4z"/>
	<g>
		<path class="st53" d="M180.6,94.4c0,0-0.1,0.1-0.3,0.2c-0.2,0.1-0.4,0.4-0.7,0.7c-0.6,0.6-1.2,1.8-1.2,3.4c0,0.8,0.1,1.6,0.6,2.5
			c0.4,0.8,1,1.6,1.9,2.2c0.4,0.3,0.9,0.5,1.4,0.7c0.5,0.2,1.1,0.2,1.6,0.2c1.1,0,2.3-0.4,3.3-1.1c0.9-0.7,1.6-1.7,1.9-2.8
			c0.2-0.5,0.2-1.1,0.2-1.6c0-0.5-0.1-1.1-0.3-1.6c-0.3-1-0.9-1.8-1.6-2.4c-0.7-0.6-1.5-1-2.2-1.2c-1.5-0.4-2.8-0.1-3.6,0.3
			c-0.4,0.2-0.7,0.4-0.9,0.5C180.7,94.3,180.6,94.4,180.6,94.4c0,0,0.4-0.3,1.2-0.6c0.8-0.3,2-0.6,3.5-0.2c0.7,0.2,1.5,0.6,2.1,1.2
			c0.6,0.6,1.2,1.4,1.5,2.3c0.2,0.5,0.2,1,0.2,1.5c0,0.5-0.1,1-0.2,1.5c-0.3,1-0.9,2-1.8,2.7c-0.9,0.7-2,1.1-3.1,1.1
			c-0.5,0-1.1-0.1-1.5-0.2c-0.5-0.1-1-0.3-1.4-0.6c-0.8-0.5-1.4-1.3-1.9-2c-0.4-0.8-0.6-1.6-0.6-2.3c0-1.5,0.6-2.7,1.1-3.3
			C180.2,94.7,180.6,94.4,180.6,94.4z"/>
	</g>
	<g>
		<path class="st53" d="M195.4,91c0,0-0.1,0-0.3,0c-0.2,0-0.5,0.1-0.9,0.3c-0.8,0.3-1.9,1.1-2.6,2.5c-0.4,0.7-0.6,1.5-0.6,2.5
			c0,0.9,0.2,1.9,0.8,2.8c0.3,0.5,0.6,0.9,1,1.2c0.4,0.4,0.9,0.7,1.4,0.9c1,0.5,2.2,0.7,3.4,0.5c1.2-0.2,2.2-0.8,3-1.7
			c0.4-0.4,0.7-0.9,0.9-1.4c0.2-0.5,0.4-1,0.5-1.5c0.2-1,0-2-0.3-2.9c-0.3-0.9-0.9-1.6-1.5-2.1c-1.2-1-2.5-1.3-3.3-1.3
			c-0.4,0-0.8,0-1,0.1C195.5,90.9,195.4,91,195.4,91c0,0,0.5-0.1,1.3,0c0.8,0.1,2.1,0.4,3.2,1.4c0.5,0.5,1.1,1.2,1.4,2
			c0.3,0.8,0.5,1.8,0.3,2.7c-0.1,0.5-0.2,1-0.5,1.4c-0.2,0.5-0.5,0.9-0.9,1.3c-0.7,0.8-1.7,1.3-2.8,1.6c-1.1,0.2-2.3,0-3.2-0.4
			c-0.5-0.2-0.9-0.5-1.3-0.9c-0.4-0.3-0.7-0.7-0.9-1.2c-0.5-0.8-0.7-1.8-0.7-2.7c0-0.9,0.2-1.7,0.5-2.4c0.7-1.4,1.7-2.1,2.5-2.5
			C195,91.1,195.4,91,195.4,91z"/>
	</g>
	<g>
		<path class="st53" d="M191.4,97.7c0-0.1-0.5-0.1-1.2,0.1c-0.6,0.1-1.1,0.3-1.1,0.4c0,0.1,0.5,0.1,1.2-0.1
			C190.9,97.9,191.4,97.7,191.4,97.7z"/>
	</g>
	<g>
		<path class="st53" d="M178.9,100c0-0.1-1.2,0.1-2.8,0.4c-1.5,0.3-2.7,0.6-2.7,0.7c0,0.1,1.2-0.1,2.8-0.4
			C177.7,100.4,178.9,100.1,178.9,100z"/>
	</g>
	<g>
		<path class="st57" d="M195.2,85.8c0,0-4-5.5-11.8-4.9c-7.8,0.6-14.1,5.8-14.8,9.4s-0.5,12.2,2.1,16.3c2.6,4.1,4.2,5,4.2,5
			s-3.1-9.8-4-11.3l1.7,3.1l2.9,0c0,0-2.5-7.3-2.4-9c0-1.7,2.2-4.7,3.6-5.6C178,88.1,195.2,85.8,195.2,85.8z"/>
	</g>
	<g>
		<path class="st52" d="M173.1,104.4c-0.1,0.5-0.5,0.9-1.1,1c-0.5,0.1-1-0.1-1.5-0.4c-0.9-0.5-1.8-1.4-2-2.4c-0.3-1,0-2.3,0.8-2.9
			c0.8-0.7,2.2-0.6,2.9,0.2L173.1,104.4z"/>
	</g>
	<path class="st14" d="M177.6,69.5c-4.2,1.3-8.2,3.4-11.3,5.8c-4,3.2-6.7,7.7-8.5,12.5c-2.1,5.7-3,11.9-1.8,17.8s4.4,11.6,9.4,15
		c4.8,3.2,10.7,4.3,16.4,4.6c3.6,0.2,7.2,0.1,10.7-0.7c9.6-2.1,17.8-9.6,20.8-18.9c2.4-7.4,1.6-15.8-2.3-22.6
		c-3.5-6.3-9.1-9.9-15.4-13.1C190.5,67.2,183.7,67.6,177.6,69.5z"/>
</g>
</svg>
