<?xml version="1.0" encoding="UTF-8"?>
<svg width="72px" height="72px" viewBox="0 0 72 72" version="1.1" xmlns="http://www.w3.org/2000/svg" xmlns:xlink="http://www.w3.org/1999/xlink">
    <!-- Generator: Sketch 46.2 (44496) - http://www.bohemiancoding.com/sketch -->
    <title>twitter</title>
    <desc>Created with Sketch.</desc>
    <defs></defs>
    <g id="Feature-page" stroke="none" stroke-width="1" fill="none" fill-rule="evenodd">
        <g id="Feature" transform="translate(-768.000000, -1021.000000)">
            <g id="Group-20" transform="translate(464.000000, 1021.000000)">
                <g id="twitter" transform="translate(304.000000, 0.000000)">
                    <rect id="Rectangle-1347-Copy-2" fill-opacity="0.800000012" fill="#4EAFCB" x="0" y="0" width="72" height="72" rx="4"></rect>
                    <path d="M49.1109722,27.2709166 C50.5097843,26.425869 51.5805564,25.0928945 52.0901532,23.4983082 C50.7800563,24.2810674 49.3296655,24.8499692 47.7884964,25.1531067 C46.5526727,23.8284374 44.7907471,23 42.8452016,23 C39.1047202,23 36.0718975,26.0542141 36.0718975,29.8164411 C36.0718975,30.3521224 36.1317287,30.8711935 36.2472648,31.3695017 C30.6190059,31.087127 25.6261957,28.3734236 22.2859644,24.2499231 C21.7062207,25.2548447 21.3719912,26.425869 21.3719912,27.6757921 C21.3719912,30.0406798 22.935855,32.1252691 24.7534855,33.3482006 C23.6435136,33.3129037 22.052829,33.0056137 22.052829,32.4927715 L22.052829,32.5820517 C22.052829,35.8833436 24.0190059,38.6364965 27.1157862,39.2656106 C26.5484214,39.4192556 25.7664895,39.5043833 25.1496093,39.5043833 C24.7122226,39.5043833 24.1964364,39.4607813 23.7817443,39.3798062 C24.6441388,42.0893571 27.099281,44.0597508 30.0619569,44.1158105 C27.7450453,45.9408643 24.8009378,47.0309136 21.6278212,47.0309136 C21.0810878,47.0309136 20.5302282,46.9997693 20,46.9374808 C22.9977493,48.8684251 26.5525477,50 30.3755549,50 C42.8348859,50 49.6432635,39.6144263 49.6432635,30.6075054 C49.6432635,30.312673 49.6350109,30.0157644 49.6205689,29.7230083 C50.9451078,28.7616887 52.0942795,27.5615964 53,26.1954014 C51.7848078,26.7393879 50.4809003,27.1048139 49.1109722,27.2709166 Z" id="icon-twitter-copy" fill="#FFFFFF"></path>
                </g>
            </g>
        </g>
    </g>
</svg>