<?xml version="1.0" encoding="UTF-8"?>
<svg width="70px" height="70px" viewBox="0 0 70 70" version="1.1" xmlns="http://www.w3.org/2000/svg" xmlns:xlink="http://www.w3.org/1999/xlink">
    <!-- Generator: Sketch 47.1 (45422) - http://www.bohemiancoding.com/sketch -->
    <title>icon--customer-journeys</title>
    <desc>Created with Sketch.</desc>
    <defs></defs>
    <g id="Page-1" stroke="none" stroke-width="1" fill="none" fill-rule="evenodd">
        <g id="Demo-page" transform="translate(-915.000000, -1029.000000)">
            <g id="Group-2" transform="translate(113.000000, 921.000000)">
                <g id="icon--customer-journeys" transform="translate(802.000000, 108.000000)">
                    <rect id="Rectangle-243-Copy-2" fill="#EBEEF0" x="0" y="0" width="70" height="70" rx="4"></rect>
                    <g id="Group-6" transform="translate(17.000000, 12.000000)" stroke-width="2">
                        <path d="M9.76790123,23.4259259 L9.15740741,23.4259259 C4.10007654,23.4259259 0,27.5260025 0,32.5833333 C0,37.6406642 4.10007654,41.7407407 9.15740741,41.7407407 L30.2407407,41.7407407" id="Stroke-269" stroke="#444444"></path>
                        <polyline id="Stroke-226" stroke="#444444" stroke-linecap="square" points="26.4074074 37.4814815 30.6666667 41.7407407 26.4074074 46"></polyline>
                        <path d="M18.3146927,5.11111111 L27.4721001,5.11111111 C32.529431,5.11111111 36.6295075,9.21118765 36.6295075,14.2685185 L36.6295075,14.2685185 C36.6295075,19.3258494 32.529431,23.4259259 27.4721001,23.4259259 L26.8616063,23.4259259" id="Stroke-270" stroke="#444444"></path>
                        <path d="M9.76777914,23.4259259 C9.76777914,18.7055877 13.5943544,14.8790123 18.3146927,14.8790123 C23.035031,14.8790123 26.8616063,18.7055877 26.8616063,23.4259259 C26.8616063,28.1462642 23.035031,31.9728395 18.3146927,31.9728395 C13.5943544,31.9728395 9.76777914,28.1462642 9.76777914,23.4259259 L9.76777914,23.4259259 Z" id="Stroke-271" stroke="#F37070" fill="#FFFFFF" stroke-linecap="square"></path>
                        <path d="M14.8788902,0.397530864 C17.2312183,0.397530864 19.1381495,2.30446208 19.1381495,4.65679012 C19.1381495,7.00911817 17.2312183,8.91604938 14.8788902,8.91604938 C12.5265622,8.91604938 10.619631,7.00911817 10.619631,4.65679012 C10.619631,2.30446208 12.5265622,0.397530864 14.8788902,0.397530864 Z" id="Stroke-271" stroke="#444444" stroke-linecap="square"></path>
                        <polyline id="Stroke-272" stroke="#444444" stroke-linecap="square" points="14.6517298 23.4259259 17.0937051 25.8679012 21.9776557 20.9839506"></polyline>
                    </g>
                </g>
            </g>
        </g>
    </g>
</svg>