<?xml version="1.0" encoding="UTF-8"?>
<svg width="70px" height="70px" viewBox="0 0 70 70" version="1.1" xmlns="http://www.w3.org/2000/svg" xmlns:xlink="http://www.w3.org/1999/xlink">
    <!-- Generator: Sketch 47.1 (45422) - http://www.bohemiancoding.com/sketch -->
    <title>icon--collaborate</title>
    <desc>Created with Sketch.</desc>
    <defs></defs>
    <g id="Page-1" stroke="none" stroke-width="1" fill="none" fill-rule="evenodd">
        <g id="Demo-page" transform="translate(-115.000000, -1179.000000)">
            <g id="Group-2" transform="translate(113.000000, 921.000000)">
                <g id="icon--collaborate" transform="translate(2.000000, 258.000000)">
                    <rect id="Rectangle-243-Copy-3" fill="#EBEEF0" x="0" y="0" width="70" height="70" rx="4"></rect>
                    <polygon id="Path-2" fill="#FFFFFF" points="40.091079 51.3900902 43.0697196 51.0312515 44.767768 48.5978473 44.767768 47.4800818 46.845745 47.4800818 48.3121145 45.6703808 48.6780866 43.1870432 50.9306757 43.1870432 52.0679805 41.3934699 52.0679805 38.6874475 40.8189913 27.1962344 36.9914816 27.5566239 31.0174527 25.2444867 27.6244573 27.1962344 24.8716029 28.4200699 20.6272573 27.5566239 34.2435896 14.4414872 29.0846239 13.0340455 21.8681507 14.117695 17.7280141 17.6325777 14.420619 22.3861828 14.420619 27.5566239 14.420619 32.2120678 16.8661188 35.4603802 19.7272141 32.7317172 21.8681507 32.7317172 23.4678829 34.9259989 23.4678829 36.485102 26.6657966 37.2536433 27.6244573 38.6874475 27.6244573 40.2977247 30.5832485 41.3934699 31.4867033 43.1870432 31.4867033 44.496789 34.2435896 45.0814139 35.8302956 47.4800818 34.2435896 50.158191 32.6218371 51.3900902 35.8302956 54.6829085 38.1824416 55.3872496 40.091079 53.6718331"></polygon>
                    <g id="Group-7" transform="translate(14.000000, 13.000000)" stroke-width="2">
                        <path d="M2.47946185,22.3223407 C-1.32083445,16.7636741 -0.752093706,9.11582222 4.18242481,4.1813037 C8.5873137,-0.223585185 15.3013878,-1.07751111 20.61561,1.48100741" id="Stroke-95" stroke="#F37070"></path>
                        <path d="M33.4580693,29.4201926 C34.5727359,30.5348593 36.3816248,30.5348593 37.4962915,29.4201926 L37.5516989,29.3647852 C38.6451804,28.2713037 38.6696248,26.5064148 37.6054767,25.3836 L27.1155507,14.2972296" id="Stroke-99" stroke="#F37070"></path>
                        <path d="M18.4734618,38.6642667 L21.3432396,41.5340444 C22.4595359,42.6503407 24.2667952,42.6503407 25.3814618,41.5340444 C26.4961285,40.4193778 26.4961285,38.6121185 25.3814618,37.4958222 L21.3220544,33.4380444" id="Stroke-101" stroke="#F37070"></path>
                        <path d="M25.3817878,37.4964741 C26.4964544,38.6111407 28.3053433,38.6111407 29.42001,37.4964741 C30.5346767,36.3818074 30.5346767,34.5729185 29.42001,33.4582519" id="Stroke-103" stroke="#F37070"></path>
                        <path d="M25.7999507,29.8383556 L29.4193581,33.457763 C30.5356544,34.5740593 32.3429137,34.5740593 33.4575804,33.457763 C34.5738767,32.3430963 34.5738767,30.535837 33.4575804,29.4195407 L29.838173,25.8001333" id="Stroke-105" stroke="#F37070" stroke-linecap="square"></path>
                        <path d="M20.65081,32.4488593 L20.65081,32.4488593 C21.7654767,33.5635259 21.7654767,35.3724148 20.65081,36.4870815 L17.6229581,39.5149333 C16.5066618,40.6312296 14.6994026,40.6312296 13.5847359,39.5149333 C12.4684396,38.4002667 12.4684396,36.5930074 13.5847359,35.4767111 L16.6125878,32.4488593 C17.7272544,31.3341926 19.5361433,31.3341926 20.65081,32.4488593 L20.65081,32.4488593 Z" id="Stroke-107" stroke="#444444" stroke-linecap="square"></path>
                        <path d="M12.5746915,24.3725778 L12.5746915,24.3725778 C13.6893581,25.4872444 13.6893581,27.2961333 12.5746915,28.4108 L9.54683963,31.4386519 C8.43054333,32.5549481 6.62328407,32.5549481 5.50861741,31.4386519 C4.39232111,30.3239852 4.39232111,28.5167259 5.50861741,27.4004296 L8.53646926,24.3725778 C9.65113592,23.2579111 11.4600248,23.2579111 12.5746915,24.3725778 L12.5746915,24.3725778 Z" id="Stroke-109" stroke="#444444" stroke-linecap="square"></path>
                        <path d="M8.53646926,20.3345185 L8.53646926,20.3345185 C9.65113592,21.4491852 9.65113592,23.2580741 8.53646926,24.3727407 L5.50861741,27.4005926 C4.39232111,28.5168889 2.58506185,28.5168889 1.47039518,27.4005926 C0.354098887,26.2859259 0.354098887,24.4786667 1.47039518,23.3623704 L4.49824703,20.3345185 C5.6129137,19.2198519 7.42180259,19.2198519 8.53646926,20.3345185 L8.53646926,20.3345185 Z" id="Stroke-111" stroke="#444444" stroke-linecap="square"></path>
                        <path d="M16.6127507,28.410637 L16.6127507,28.410637 C17.7274174,29.5253037 17.7274174,31.3341926 16.6127507,32.4488593 L13.5848989,35.4767111 C12.4686026,36.5930074 10.6613433,36.5930074 9.54667666,35.4767111 L9.54667666,35.4767111 C8.43038037,34.3620444 8.43038037,32.5547852 9.54667666,31.4384889 L12.5745285,28.410637 C13.6891952,27.2959704 15.4980841,27.2959704 16.6127507,28.410637 L16.6127507,28.410637 Z" id="Stroke-113" stroke="#444444" stroke-linecap="square"></path>
                        <path d="M36.3788072,22.7267725 C41.9537702,17.1518095 42.6237581,9.75740741 37.0487952,4.18244444 C31.4722026,-1.39414815 22.432647,-1.39414815 16.8576841,4.18244444 L6.76212852,14.278 C6.76212852,14.278 11.6200544,17.4948889 16.8576841,12.2588889 C16.8576841,12.2588889 25.8760544,17.2846667 30.8594618,12.2996296" id="Stroke-97" stroke="#444444"></path>
                    </g>
                </g>
            </g>
        </g>
    </g>
</svg>