<svg xmlns="http://www.w3.org/2000/svg" width="72" height="72" viewBox="0 0 72 72">
  <g fill="none" fill-rule="evenodd">
    <rect width="72" height="72" fill="#ADB483" rx="4"/>
    <g stroke="#FFF" stroke-width="2">
      <path d="M39.2 46H44" stroke-linecap="square"/>
      <path d="M27.2 27.7c.767.182 1.558.29 2.377.29 3.136 0 5.967-1.32 8-3.445 1.86 1.942 4.404 3.208 7.223 3.41"/>
      <path d="M27.2 27.818C27.2 22.908 30.698 18 36 18c5.302 0 8.8 4.91 8.8 9.818 0 7.364-4.8 11.455-8.8 11.455-4 0-8.8-4.09-8.8-11.455z" stroke-linecap="square"/>
      <path d="M32.384 38.22l-10.83 6.645C20.59 45.457 20 46.522 20 47.67V54h32v-6.33c0-1.148-.59-2.213-1.554-2.805l-10.83-6.646M27.2 27.818s.166 6.375-4.8 9.818c.8 3.273 4.142 4.168 4.142 4.168M44.8 27.818s-.166 6.375 4.8 9.818c-.8 3.273-4.142 4.168-4.142 4.168"/>
    </g>
  </g>
</svg>