<?xml version="1.0" encoding="UTF-8"?>
<svg width="853px" height="838px" viewBox="0 0 853 838" version="1.1" xmlns="http://www.w3.org/2000/svg" xmlns:xlink="http://www.w3.org/1999/xlink">
    <!-- Generator: Sketch 46.1 (44463) - http://www.bohemiancoding.com/sketch -->
    <title>Circles Copy</title>
    <desc>Created with Sketch.</desc>
    <defs></defs>
    <g id="Page-State-3" stroke="none" stroke-width="1" fill="none" fill-rule="evenodd" fill-opacity="0.5">
        <g id="page-State-3" transform="translate(-1.000000, -1908.000000)" fill="#FFFFFF">
            <g id="CRM-Free" transform="translate(1.000000, 1867.000000)">
                <g id="Circles-Copy">
                    <g transform="translate(327.500000, 492.500000) rotate(-300.000000) translate(-327.500000, -492.500000) translate(-255.000000, 122.000000)">
                        <path d="M109.374076,349.472651 C4.35390595,407.682358 -31.228528,535.932787 29.9084028,635.934222 C91.0335845,735.935658 225.726344,769.817668 330.746514,711.60796 C435.76081,653.398253 471.33737,525.147825 410.212188,425.146389 C349.087006,325.144953 214.394247,291.268537 109.374076,349.472651 M196.999565,492.820907 C218.841316,480.710201 246.957138,487.786433 259.67564,508.584405 C272.388268,529.382377 264.956903,556.154591 243.121026,568.259704 C221.2734,580.370411 193.157578,573.299772 180.444951,552.496206 C167.732323,531.698235 175.151939,504.926021 196.999565,492.820907" id="Fill-1"></path>
                        <path d="M576.906598,334.517198 C513.895343,369.439595 492.544665,446.389812 529.224789,506.391159 C565.904913,566.392507 646.71526,586.723311 709.726515,551.800914 C772.73777,516.872918 794.088448,439.917102 757.402444,379.915754 C720.7282,319.920006 639.917853,299.594801 576.906598,334.517198 M587.972964,352.619508 C640.400022,323.565104 707.87428,340.53637 738.392049,390.459104 C768.903938,440.376239 751.081326,504.633001 698.654268,533.687405 C646.233091,562.747408 578.752953,545.776142 548.241064,495.853408 C517.729175,445.930675 535.551787,381.679512 587.972964,352.619508" id="Fill-4"></path>
                        <path d="M599.503071,370.201957 C556.149881,394.226204 541.469342,447.165827 566.699863,488.446296 C591.930384,529.721162 647.522259,543.705425 690.869565,519.681178 C734.222755,495.651329 748.909178,442.711705 723.678657,401.436839 C698.442252,360.161974 642.844493,346.177711 599.503071,370.201957 M610.576727,388.32099 C643.362283,370.145931 685.562212,380.762989 704.649855,411.981063 C723.731613,443.20474 712.587348,483.387085 679.795908,501.556542 C647.010353,519.725999 604.810424,509.114543 585.722781,477.896469 C566.641023,446.672793 577.791172,406.49605 610.576727,388.32099" id="Fill-6"></path>
                        <path d="M838.429432,41.21524 C862.619148,80.7919245 848.54057,131.546078 806.981634,154.578775 C765.416863,177.617028 712.118972,164.211842 687.923421,124.635158 C663.733705,85.0640287 677.812283,34.3043198 719.377053,11.2660672 C760.935989,-11.7666299 814.239715,1.64411081 838.429432,41.21524" id="Fill-9"></path>
                        <path d="M1158.9187,102.863232 C1171.14254,122.860648 1164.02471,148.509995 1143.02418,160.155549 C1122.02365,171.795502 1095.0818,165.023268 1082.85796,145.014649 C1070.62824,125.017232 1077.74607,99.3678856 1098.7466,87.727933 C1119.75889,76.0879804 1146.69486,82.8602146 1158.9187,102.863232" id="Fill-12"></path>
                    </g>
                </g>
            </g>
        </g>
    </g>
</svg>