<?xml version="1.0" encoding="utf-8"?>
<!-- Generator: Adobe Illustrator 22.1.0, SVG Export Plug-In . SVG Version: 6.00 Build 0)  -->
<svg version="1.1" id="Capa_1" xmlns="http://www.w3.org/2000/svg" xmlns:xlink="http://www.w3.org/1999/xlink" x="0px" y="0px"
	 viewBox="0 0 853 838" style="enable-background:new 0 0 853 838;" xml:space="preserve">
<style type="text/css">
	.st0{fill:#CFEFF3;}
	.st1{fill:#FFFFFF;fill-opacity:0.5;}
	.st2{fill:#FFFFFF;}
</style>
<rect y="0.2" class="st0" width="853.3" height="837.8"/>
<title>Circles Copy</title>
<desc>Created with Sketch.</desc>
<g id="Page-State-3_2_">
	<g id="page-State-3_2_" transform="translate(-1.000000, -1908.000000)">
		<g id="CRM-Free_2_" transform="translate(1.000000, 1867.000000)">
			<g id="Circles-Copy_2_">
				
					<g transform="translate(327.500000, 492.500000) rotate(-300.000000) translate(-327.500000, -492.500000) translate(-255.000000, 122.000000)">
					<path id="Fill-1_2_" class="st1" d="M98.3,368.6c-105,58.2-140.6,186.5-79.5,286.5c61.1,100,195.8,133.9,300.8,75.7
						c105-58.2,140.6-186.5,79.5-286.5S203.4,310.4,98.3,368.6 M186,511.9c21.8-12.1,50-5,62.7,15.8c12.7,20.8,5.3,47.6-16.6,59.7
						c-21.8,12.1-50,5-62.7-15.8C156.7,550.8,164.1,524.1,186,511.9"/>
					<path id="Fill-4_2_" class="st1" d="M565.9,353.6c-63,34.9-84.4,111.9-47.7,171.9s117.5,80.3,180.5,45.4
						C761.7,536,783,459,746.4,399C709.7,339,628.9,318.7,565.9,353.6 M576.9,371.7c52.4-29.1,119.9-12.1,150.4,37.8
						c30.5,49.9,12.7,114.2-39.7,143.2c-52.4,29.1-119.9,12.1-150.4-37.8C506.7,465.1,524.5,400.8,576.9,371.7"/>
					<path id="Fill-6_2_" class="st1" d="M588.5,389.3c-43.4,24-58,77-32.8,118.2c25.2,41.3,80.8,55.3,124.2,31.2
						c43.4-24,58-77,32.8-118.2C687.4,379.3,631.8,365.3,588.5,389.3 M599.5,407.4c32.8-18.2,75-7.6,94.1,23.7
						c19.1,31.2,7.9,71.4-24.9,89.6c-32.8,18.2-75,7.6-94.1-23.7C555.6,465.8,566.7,425.6,599.5,407.4"/>
					<path id="Fill-9_2_" class="st1" d="M827.4,60.3c24.2,39.6,10.1,90.3-31.4,113.4c-41.6,23-94.9,9.6-119.1-29.9
						c-24.2-39.6-10.1-90.3,31.5-113.4C749.9,7.4,803.2,20.8,827.4,60.3"/>
					<path id="Fill-12_2_" class="st1" d="M1147.9,122c12.2,20,5.1,45.6-15.9,57.3c-21,11.6-47.9,4.9-60.2-15.1
						c-12.2-20-5.1-45.6,15.9-57.3C1108.7,95.2,1135.7,102,1147.9,122"/>
				</g>
			</g>
		</g>
	</g>
</g>
<path class="st2" d="M197.4,215.7C191.7,94.4,90.5,2.6-19.4,0.2c-117.6-2.6-207.1,87.4-207.1,215.9c0,128.5,103.8,211.7,211.4,218.5
	C118.7,443.1,202.9,330.7,197.4,215.7z M-14.5,247.6c-14.8-0.9-29.1-12.4-29.1-30.1c0-17.7,12.3-30.1,28.6-29.8
	c15.1,0.3,29.1,13,29.9,29.7C15.6,233.2,4,248.7-14.5,247.6z"/>
<path class="st2" d="M359,542c-2.4-50.1-44.2-88-89.5-88.9C221,452,184,489.1,184,542.1c0,53.1,42.8,87.4,87.2,90.2
	C326.5,635.9,361.3,589.5,359,542z M271.4,610.6c-33.6-2.1-66.1-28.1-66.1-68.3c0-40.1,28-68.3,64.7-67.5
	c34.3,0.7,66,29.4,67.8,67.4C339.5,578.1,313.2,613.3,271.4,610.6z"/>
<path class="st2" d="M728.7,463.4c-2.3-48-42.4-84.3-85.9-85.3c-46.6-1-82,34.6-82,85.4c0,50.9,41.1,83.8,83.7,86.5
	C697.5,553.4,730.9,508.9,728.7,463.4z"/>
<path class="st2" d="M830.5,794.1c-1.2-24.3-21.4-42.6-43.4-43.1c-23.5-0.5-41.4,17.5-41.4,43.2c0,25.7,20.8,42.3,42.3,43.7
	C814.8,839.6,831.6,817.1,830.5,794.1z"/>
<path class="st2" d="M399.4,539.4c-3.5-72.9-64.5-128-130.8-129.5c-48.8-1.1-88.4,25.2-109.2,66.1c-19.7,38.8-19.1,85.1,1.6,123.4
	c22.7,42,64.4,69.5,110.1,71.5C349,674.3,402.7,608.5,399.4,539.4z M271.3,649.2c-38.1-1.6-72.8-24.6-91.7-59.6
	c-17.2-31.9-17.8-70.5-1.4-102.8c17.3-34.1,50.3-55.9,90.9-55.1c55.2,1.2,106.1,47.1,109,107.8C380.9,597.2,336.2,652,271.3,649.2z"
	/>
</svg>
