<?xml version="1.0" encoding="utf-8"?>
<!-- Generator: Adobe Illustrator 22.1.0, SVG Export Plug-In . SVG Version: 6.00 Build 0)  -->
<svg version="1.1" id="Capa_1" xmlns="http://www.w3.org/2000/svg" xmlns:xlink="http://www.w3.org/1999/xlink" x="0px" y="0px"
	 viewBox="0 0 853 838" style="enable-background:new 0 0 853 838;" xml:space="preserve">
<style type="text/css">
	.st0{fill:#EAF2F3;}
	.st1{fill:#FFFFFF;fill-opacity:0.5;}
</style>
<rect y="0.2" class="st0" width="853" height="837.8"/>
<title>Circles Copy</title>
<desc>Created with Sketch.</desc>
<g id="Page-State-3">
	<g id="page-State-3" transform="translate(-1.000000, -1908.000000)">
		<g id="CRM-Free" transform="translate(1.000000, 1867.000000)">
			<g id="Circles-Copy">
				
					<g transform="translate(327.500000, 492.500000) rotate(-300.000000) translate(-327.500000, -492.500000) translate(-255.000000, 122.000000)">
					<path id="Fill-1" class="st1" d="M109.4,349.5C4.4,407.7-31.2,535.9,29.9,635.9c61.1,100,195.8,133.9,300.8,75.7
						c105-58.2,140.6-186.5,79.5-286.5S214.4,291.3,109.4,349.5 M197,492.8c21.8-12.1,50-5,62.7,15.8c12.7,20.8,5.3,47.6-16.6,59.7
						c-21.8,12.1-50,5-62.7-15.8C167.7,531.7,175.2,504.9,197,492.8"/>
					<path id="Fill-4" class="st1" d="M576.9,334.5c-63,34.9-84.4,111.9-47.7,171.9s117.5,80.3,180.5,45.4
						c63-34.9,84.4-111.9,47.7-171.9C720.7,319.9,639.9,299.6,576.9,334.5 M588,352.6c52.4-29.1,119.9-12.1,150.4,37.8
						c30.5,49.9,12.7,114.2-39.7,143.2c-52.4,29.1-119.9,12.1-150.4-37.8C517.7,445.9,535.6,381.7,588,352.6"/>
					<path id="Fill-6" class="st1" d="M599.5,370.2c-43.4,24-58,77-32.8,118.2c25.2,41.3,80.8,55.3,124.2,31.2
						c43.4-24,58-77,32.8-118.2C698.4,360.2,642.8,346.2,599.5,370.2 M610.6,388.3c32.8-18.2,75-7.6,94.1,23.7
						c19.1,31.2,7.9,71.4-24.9,89.6c-32.8,18.2-75,7.6-94.1-23.7C566.6,446.7,577.8,406.5,610.6,388.3"/>
					<path id="Fill-9" class="st1" d="M838.4,41.2c24.2,39.6,10.1,90.3-31.4,113.4c-41.6,23-94.9,9.6-119.1-29.9
						c-24.2-39.6-10.1-90.3,31.5-113.4C760.9-11.8,814.2,1.6,838.4,41.2"/>
					<path id="Fill-12" class="st1" d="M1158.9,102.9c12.2,20,5.1,45.6-15.9,57.3c-21,11.6-47.9,4.9-60.2-15.1
						c-12.2-20-5.1-45.6,15.9-57.3C1119.8,76.1,1146.7,82.9,1158.9,102.9"/>
				</g>
			</g>
		</g>
	</g>
</g>
</svg>
