<svg xmlns:dc="http://purl.org/dc/elements/1.1/" style="fill:#000;" xmlns:cc="http://creativecommons.org/ns#" xmlns:rdf="http://www.w3.org/1999/02/22-rdf-syntax-ns#" xmlns:svg="http://www.w3.org/2000/svg" xmlns="http://www.w3.org/2000/svg" xmlns:sodipodi="http://sodipodi.sourceforge.net/DTD/sodipodi-0.dtd" xmlns:inkscape="http://www.inkscape.org/namespaces/inkscape" version="1.1" x="0px" y="0px" viewBox="0 0 100 125"><g transform="translate(0,-952.36218)"><path d="m 53.625,974.09067 c -1.62982,2.5038 -2.28942,5.54722 -2.5,8.38855 -1.14341,0.73944 -1.11652,2.04368 -1.125,3.18078 0.0912,1.40965 0.50574,2.51231 1.0625,3.67974 0.1616,0.36157 0.45111,0.51232 0.6875,0.74842 0.61157,2.32669 1.60491,4.62943 2.9375,6.67342 2.36777,3.63182 5.90596,6.46762 10.3125,6.51752 4.39663,0.05 7.9459,-2.7611 10.3125,-6.39279 1.35469,-2.07888 2.34667,-4.45316 2.96875,-6.82934 0.30399,-0.15108 0.47096,-0.48303 0.65625,-0.71723 0.64377,-1.13637 0.91691,-2.46856 1.0625,-3.67974 0.0697,-1.41689 -0.1738,-2.24491 -1.03125,-3.1496 -0.19194,-2.86199 -0.85294,-5.91683 -2.46875,-8.41973 -2.03529,-3.1526 -5.74635,-5.2493 -11.3125,-4.6153 -0.0908,-0.012 -0.16023,0.01 -0.25,0 -4.26456,-0.6123 -9.12167,1.3575 -11.3125,4.6153 z M 27,969.44417 c -9.92933,0 -17.9999998,8.0538 -17.9999998,17.96215 0,9.90839 8.0706698,17.96208 17.9999998,17.96208 2.32837,0 5.90277,-0.9288 8.03125,-1.9022 3.10611,0.8315 8.78125,1.9646 8.78125,1.9646 0.68441,0.1253 1.35378,-0.654 1.125,-1.3097 L 42.125,995.67013 C 44.11219,993.3654 45,990.0064 45,987.40632 45,977.49787 36.92924,969.44417 27,969.44417 z m 0,1.996 c 8.84836,0 16,7.1365 16,15.9663 0,2.25778 -1.01846,5.66277 -2.71875,7.35947 -0.24484,0.2609 -0.33207,0.65881 -0.21875,0.99789 l 2.4375,7.32827 c -1.60367,-0.3204 -4.94071,-0.9566 -7.21875,-1.5904 -0.2363,-0.068 -0.49783,-0.046 -0.71875,0.062 -1.52682,0.7618 -5.76128,1.8087 -7.5625,1.8087 -8.84847,0 -16,-7.13649 -16,-15.9663 0,-8.82983 7.15153,-15.96633 16,-15.96633 z m 0,5.4884 c -3.58219,0.046 -5.95847,2.75896 -6,5.98737 -0.007,0.5272 0.47163,1.01211 1,1.01211 0.52837,0 1.00747,-0.48491 1,-1.01211 0.11513,-2.45851 1.89251,-3.96524 4,-3.99157 2.4637,0.11488 3.97361,1.88852 4,3.99157 -0.35757,2.56077 -2.30059,4.03575 -4.4375,5.11421 -0.32794,0.15911 -0.55359,0.50939 -0.5625,0.87316 l 0,2.99368 c -0.007,0.5272 0.47163,1.01211 1,1.01211 0.52837,0 1.00747,-0.48491 1,-1.01211 l 0,-2.46355 c 2.59742,-1.35786 4.94935,-3.80707 5,-6.5175 0.0932,-3.6921 -2.76115,-5.94377 -6,-5.98737 z m 48.09375,3.24317 c 1.83175,1.14326 1.97512,3.02494 1.93745,4.64644 -0.13916,3.78981 -1.39725,7.84232 -3.40615,10.97679 -2.1329,3.2731 -5.06098,5.52843 -8.59375,5.48843 -3.56426,-0.04 -6.52252,-2.34037 -8.65625,-5.61317 -2.07037,-3.17562 -3.27427,-7.23234 -3.34375,-10.60263 1.17618,-1.15191 2.45016,-2.25702 3.75,-3.05605 1.22981,-0.75597 2.43204,-1.12219 3.59375,-1.185 -0.33947,1.61805 -1.32393,3.13173 -1.78125,4.45934 -0.22878,0.65577 0.44059,1.43506 1.125,1.30974 4.87712,-0.8795 9.20433,-2.60666 12.6875,-5.86263 0.93258,-0.76485 1.77842,-0.99427 2.68745,-0.56126 z M 27,994.39173 c -0.55228,0 -1,0.44677 -1,0.99789 0,0.55112 0.44772,0.9979 1,0.9979 0.55228,0 1,-0.44678 1,-0.9979 0,-0.55112 -0.44772,-0.99789 -1,-0.99789 z m 31.625,9.04337 c -4.98399,1.9895 -9.75846,3.7409 -13.40625,6.081 -3.64779,2.34 -6.21875,5.4572 -6.21875,9.823 0.0821,3.3233 0.0256,6.6531 0,9.9789 -0.0128,1.7226 0.6209,3.3292 2,4.3969 1.3791,1.0678 3.36666,1.5904 6,1.5904 8.1556,0.1043 27.60403,0.041 36,0 2.60148,0 4.53641,-0.1933 5.96875,-1.1538 C 90.40109,1033.191 91,1031.4741 91,1029.318 c 0,-3.3361 0,-6.6763 0,-10.0101 -0.14638,-4.7856 -2.4245,-7.9352 -5.8125,-10.166 -3.388,-2.2309 -7.84227,-3.7228 -12.8125,-5.7068 -1.08867,-0.1651 -2.11909,0.5173 -2.8125,1.0915 -1.71694,1.6024 -3.09048,3.1442 -4.53125,4.6153 -1.35467,-1.6591 -2.45488,-3.3299 -3.6875,-4.5529 -0.89286,-0.9196 -1.76113,-1.383 -2.71875,-1.1539 z m 0.46875,1.9958 c 1.52863,0.9376 2.75651,2.909 3.78125,4.2723 -1.0479,0.3597 -1.62241,1.0075 -2.15625,1.8398 l -3.25,1.4969 -2.90625,-5.8003 c 1.47076,-0.5932 2.96939,-1.1868 4.53125,-1.8087 z m 12.8125,0 c 1.2842,0.5101 2.52936,1.002 3.71875,1.4657 l -3.09375,6.1433 -3.3125,-1.684 c -0.40816,-0.8469 -1.21984,-1.2517 -1.9375,-1.6215 1.47533,-1.5298 2.96269,-3.3624 4.625,-4.3035 z M 77.5,1007.645 c 2.54969,1.0248 4.82489,2.0161 6.59375,3.1808 3.03493,1.9983 4.76887,4.3133 4.90625,8.5133 0,3.3223 0,6.6534 0,9.9789 0,1.8354 -0.35647,2.6444 -1.15625,3.1807 -0.79978,0.5364 -2.37373,0.8108 -4.84375,0.8108 -0.46373,0 -1.47218,0 -2,0 l 0,-7.9831 c 0.0146,-0.6038 -0.62815,-1.1301 -1.21875,-0.9979 -0.44715,0.1 -0.79228,0.5407 -0.78125,0.9979 l 0,7.9831 c -2.39207,0.01 -5.1731,0.024 -8.1875,0.031 l -3.25,-15.9351 1.65625,-1.0914 c 0.28444,-0.178 0.46757,-0.5069 0.46875,-0.842 l 0,-1.6528 2.875,1.4345 c 0.47388,0.232 1.11726,0.01 1.34375,-0.4677 z m -24.8125,0.3742 3.40625,6.767 c 0.22674,0.4603 0.84485,0.6806 1.3125,0.4678 l 2.90625,-1.341 0,1.5592 c 10e-4,0.3351 0.18431,0.664 0.46875,0.842 l 1.625,1.0914 -3.21875,15.9664 c -3.08355,0 -5.73581,-0.016 -8.1875,-0.031 1e-5,-2.6688 0,-5.3435 0,-8.0144 0.0146,-0.6038 -0.62815,-1.1301 -1.21875,-0.9979 -0.44715,0.1 -0.79228,0.5408 -0.78125,0.9979 l 0,7.9832 c -0.59212,0.055 -1.35105,0.011 -2,0 -2.36666,0 -3.9048,-0.4753 -4.78125,-1.1538 -0.87645,-0.6786 -1.22818,-1.5669 -1.21875,-2.8378 -0.0307,-3.3419 0.0383,-6.9357 0,-10.0101 0.0119,-3.5986 1.93932,-5.964 5.28125,-8.1079 2.18064,-1.2977 4.45852,-2.3578 6.40625,-3.1808 z M 65,1011.3559 c 0.83904,-0.056 1.5931,0.2827 2.24995,0.6237 0.31583,0.3097 0.4375,0.724 0.4375,1.2474 l 0,1.7151 -1.78125,1.185 c -0.32137,0.2233 -0.48867,0.6471 -0.40625,1.0291 l 3.28125,16.2158 c -2.72646,0.01 -4.86578,-10e-5 -7.59375,0 l 3.3125,-16.2158 c 0.0824,-0.382 -0.0849,-0.8058 -0.40625,-1.0291 l -1.78125,-1.185 0,-1.6839 c 0,-0.5254 0.13722,-0.93 0.46875,-1.2474 0.90746,-0.4656 1.44349,-0.6288 2.2188,-0.6549 z" style="text-indent:0;text-transform:none;direction:ltr;block-progression:tb;baseline-shift:baseline;color:#000;enable-background:accumulate;" fill="#000" fill-opacity="1" stroke="none" marker="none" visibility="visible" display="inline" overflow="visible"/></g></svg>