<svg id="Capa_1" data-name="Capa 1" xmlns="http://www.w3.org/2000/svg" viewBox="0 0 121.79 114.35"><defs><style>.cls-1{fill:#fff;}.cls-2{fill:#32a4dd;}.cls-3{fill:#9a9aaf;}.cls-4{fill:#35b18d;}.cls-5{fill:#f29479;}.cls-6{fill:#e94540;}</style></defs><title>01.1 Tener control completo de tu empresa desde cualquier lugar</title><rect class="cls-1" x="1.73" width="106.44" height="24.69" rx="1.7" ry="1.7"/><rect class="cls-2" x="1.74" y="0.02" width="22.55" height="24.68"/><path class="cls-3" d="M45,29.65h.73l-1.59,4.24h-.81l-1.6-4.24h.75l1.25,3.53Z" transform="translate(-9.71 -13.49)"/><path class="cls-3" d="M47.77,33.94a1.74,1.74,0,0,1,0-3.47,1.57,1.57,0,0,1,1.64,1.66c0,.11,0,.22,0,.34H46.82a.92.92,0,0,0,1,.89.83.83,0,0,0,.8-.47h.75A1.53,1.53,0,0,1,47.77,33.94Zm-1-2h1.86a.87.87,0,0,0-.94-.85A.92.92,0,0,0,46.82,31.91Z" transform="translate(-9.71 -13.49)"/><path class="cls-3" d="M52.48,32c0-.62-.34-.93-.84-.93s-.85.31-.85.93v1.88h-.7V30.53h.7v.38a1.29,1.29,0,0,1,1-.44,1.31,1.31,0,0,1,1.38,1.44v2h-.69Z" transform="translate(-9.71 -13.49)"/><path class="cls-3" d="M54.16,31.09h-.4v-.56h.4v-.84h.7v.84h.82v.56h-.82V33c0,.25.1.35.39.35h.43v.58h-.55c-.6,0-1-.25-1-.93Z" transform="translate(-9.71 -13.49)"/><path class="cls-3" d="M57.67,30.47a1.43,1.43,0,0,1,1.17.55v-.49h.7v3.36h-.7v-.5a1.44,1.44,0,0,1-1.18.55,1.62,1.62,0,0,1-1.57-1.75A1.6,1.6,0,0,1,57.67,30.47Zm.15.61a1,1,0,0,0-1,1.11,1.06,1.06,0,0,0,1,1.15,1.14,1.14,0,0,0,0-2.26Z" transform="translate(-9.71 -13.49)"/><path class="cls-3" d="M61.67,33.94a1.26,1.26,0,0,1-1.4-1.08H61a.62.62,0,0,0,.67.5c.41,0,.62-.17.62-.4,0-.66-2-.28-2-1.52,0-.53.5-1,1.29-1a1.16,1.16,0,0,1,1.3,1.08h-.7a.55.55,0,0,0-.62-.49c-.38,0-.57.15-.57.38,0,.67,1.9.3,1.93,1.51C63,33.52,62.47,33.94,61.67,33.94Z" transform="translate(-9.71 -13.49)"/><path class="cls-3" d="M66.66,30.47a1.55,1.55,0,0,1,1.16.53V29.37h.7v4.52h-.7v-.51a1.4,1.4,0,0,1-1.17.56,1.63,1.63,0,0,1-1.59-1.75A1.61,1.61,0,0,1,66.66,30.47Zm.14.61a1,1,0,0,0-1,1.11,1.06,1.06,0,0,0,1,1.15,1.14,1.14,0,0,0,0-2.26Z" transform="translate(-9.71 -13.49)"/><path class="cls-3" d="M70.88,33.94a1.74,1.74,0,0,1,0-3.47,1.57,1.57,0,0,1,1.63,1.66,2,2,0,0,1,0,.34H69.92a.93.93,0,0,0,1,.89.81.81,0,0,0,.79-.47h.75A1.53,1.53,0,0,1,70.88,33.94Zm-.95-2h1.86a.87.87,0,0,0-.94-.85A.91.91,0,0,0,69.93,31.91Z" transform="translate(-9.71 -13.49)"/><path class="cls-3" d="M73.2,29.37h.69v4.52H73.2Z" transform="translate(-9.71 -13.49)"/><path class="cls-3" d="M76.39,29.65h.75L78.63,33l1.49-3.32h.74v4.24h-.7V31l-1.29,2.9h-.48L77.09,31v2.9h-.7Z" transform="translate(-9.71 -13.49)"/><path class="cls-3" d="M83.22,33.94a1.74,1.74,0,0,1,0-3.47,1.57,1.57,0,0,1,1.63,1.66,2,2,0,0,1,0,.34H82.26a.93.93,0,0,0,1,.89.81.81,0,0,0,.79-.47h.75A1.53,1.53,0,0,1,83.22,33.94Zm-1-2h1.86a.87.87,0,0,0-.94-.85A.91.91,0,0,0,82.27,31.91Z" transform="translate(-9.71 -13.49)"/><path class="cls-3" d="M86.76,33.94a1.27,1.27,0,0,1-1.41-1.08h.72a.62.62,0,0,0,.67.5c.41,0,.62-.17.62-.4,0-.66-2-.28-2-1.52,0-.53.5-1,1.29-1A1.16,1.16,0,0,1,88,31.55h-.7a.55.55,0,0,0-.62-.49c-.38,0-.57.15-.57.38,0,.67,1.9.3,1.93,1.51C88,33.52,87.55,33.94,86.76,33.94Z" transform="translate(-9.71 -13.49)"/><path class="cls-2" d="M48.63,23.86c-.91-.08-1.57-.58-1.57-1.43H48a.75.75,0,0,0,.66.73V21.51c-.75-.19-1.57-.4-1.57-1.45a1.54,1.54,0,0,1,1.57-1.5v-.62h.49v.61a1.48,1.48,0,0,1,1.51,1.39h-.91a.76.76,0,0,0-.6-.66V20.9c.75.17,1.57.38,1.57,1.43a1.58,1.58,0,0,1-1.57,1.52v.62h-.49Zm0-3.09V19.25a.73.73,0,0,0-.7.76C47.93,20.45,48.23,20.64,48.63,20.77Zm.49.87v1.52a.78.78,0,0,0,.7-.78C49.82,22,49.52,21.76,49.12,21.64Z" transform="translate(-9.71 -13.49)"/><path class="cls-2" d="M52.07,19.73c0-.79.59-1.47,1.8-1.47s1.79.69,1.79,1.47A1.32,1.32,0,0,1,54.88,21a1.39,1.39,0,0,1,.93,1.35,2,2,0,0,1-3.88,0A1.38,1.38,0,0,1,52.85,21,1.29,1.29,0,0,1,52.07,19.73Zm.68,2.55c0,.56.42,1,1.12,1a1,1,0,0,0,1.1-1c0-.61-.46-.94-1.1-.94S52.75,21.64,52.75,22.28Zm2.1-2.44c0-.56-.39-.87-1-.87s-1,.3-1,.88a1,1,0,0,0,2,0Z" transform="translate(-9.71 -13.49)"/><path class="cls-2" d="M56.82,22.79h.93l-.91,2.07h-.55Z" transform="translate(-9.71 -13.49)"/><path class="cls-2" d="M59.45,22.33a.9.9,0,0,0,1,.77c.68,0,1-.46,1-1.85a1.47,1.47,0,0,1-1.21.53A1.63,1.63,0,0,1,58.51,20a1.68,1.68,0,0,1,1.82-1.8c1.4,0,1.88,1,1.88,2.76s-.39,2.82-1.82,2.82a1.57,1.57,0,0,1-1.73-1.48ZM61.37,20a1,1,0,1,0-1,1A.93.93,0,0,0,61.37,20Z" transform="translate(-9.71 -13.49)"/><path class="cls-2" d="M65.75,22.68H63V22l2.52-3.61h1v3.52h.7v.74h-.7v1.14h-.83Zm0-.74V19.29L64,21.94Z" transform="translate(-9.71 -13.49)"/><path class="cls-2" d="M69.76,18.23c1.08,0,1.68.63,1.68,1.42a1.29,1.29,0,0,1-.84,1.24v0a1.32,1.32,0,0,1,.93,1.4,1.54,1.54,0,0,1-1.75,1.53,1.69,1.69,0,0,1-1.89-1.61h.83a1,1,0,0,0,1,.9.85.85,0,0,0,1-.9c0-.72-.46-1-1.35-1h-.2v-.7h.21c.77,0,1.24-.24,1.24-.82s-.31-.79-.89-.79a.85.85,0,0,0-.93.74H68A1.6,1.6,0,0,1,69.76,18.23Z" transform="translate(-9.71 -13.49)"/><path class="cls-2" d="M72.89,23.87a.55.55,0,1,1,0-1.09.55.55,0,0,1,0,1.09Z" transform="translate(-9.71 -13.49)"/><path class="cls-2" d="M74.17,23.12C75.45,22,76.81,21,76.81,19.93c0-.57-.25-1-.88-1a.94.94,0,0,0-1,1h-.82a1.66,1.66,0,0,1,1.76-1.76,1.57,1.57,0,0,1,1.74,1.65c0,1.33-1.35,2.34-2.23,3.14h2.38v.71H74.17Z" transform="translate(-9.71 -13.49)"/><path class="cls-2" d="M78.48,23.12C79.77,22,81.13,21,81.13,19.93c0-.57-.25-1-.89-1a.93.93,0,0,0-.94,1h-.82a1.66,1.66,0,0,1,1.76-1.76A1.57,1.57,0,0,1,82,19.89c0,1.33-1.35,2.34-2.23,3.14h2.38v.71H78.48Z" transform="translate(-9.71 -13.49)"/><polygon class="cls-1" points="14.76 17.44 4.55 17.44 4.55 9.29 19.8 9.29 19.8 11.58 18.93 11.58 18.93 10.16 5.42 10.16 5.42 16.58 14.76 16.58 14.76 17.44"/><polygon class="cls-1" points="17.28 10.06 6.61 6.56 5.94 8.61 5.12 8.34 6.06 5.47 17.55 9.24 17.28 10.06"/><polygon class="cls-1" points="15.99 9.66 10.55 5.34 9.35 6.46 8.76 5.83 10.5 4.21 16.52 8.98 15.99 9.66"/><path class="cls-1" d="M22.15,29.73A2.85,2.85,0,1,1,25,26.89,2.84,2.84,0,0,1,22.15,29.73Zm0-4.82a2,2,0,1,0,2,2A2,2,0,0,0,22.15,24.91Z" transform="translate(-9.71 -13.49)"/><path class="cls-1" d="M19.13,29.67a2.85,2.85,0,0,1-2.8-3.35A2.86,2.86,0,0,1,18.67,24a2.83,2.83,0,0,1,2.16.54l.46.34-.46.35a2,2,0,0,0,0,3.16l.46.35-.46.34A2.75,2.75,0,0,1,19.13,29.67Zm0-4.83a1.84,1.84,0,0,0-.33,0,2,2,0,0,0-1.62,1.6,2,2,0,0,0,.43,1.63,2,2,0,0,0,2.25.56,2.79,2.79,0,0,1-.68-1.84A2.83,2.83,0,0,1,19.85,25,2,2,0,0,0,19.13,24.84Z" transform="translate(-9.71 -13.49)"/><path class="cls-1" d="M28.86,26.8c-.57,0-3.39-.05-3.39-1s2.82-1,3.39-1,3.39.05,3.39,1S29.42,26.8,28.86,26.8Zm-2.66-1a6.61,6.61,0,0,0,2.66.39,6.61,6.61,0,0,0,2.66-.39,6.88,6.88,0,0,0-2.66-.38A6.88,6.88,0,0,0,26.2,25.76Z" transform="translate(-9.71 -13.49)"/><path class="cls-1" d="M28.83,27.6c-3.38,0-3.38-.51-3.38-.73s0-.72,3.38-.72,3.39.51,3.39.72S32.22,27.6,28.83,27.6Zm-1.75-.73a19.29,19.29,0,0,0,3.51,0c-.45,0-1-.07-1.76-.07S27.53,26.83,27.08,26.87Z" transform="translate(-9.71 -13.49)"/><path class="cls-1" d="M28.81,28.3c-3.39,0-3.39-.51-3.39-.73s0-.72,3.39-.72,3.39.51,3.39.72S32.2,28.3,28.81,28.3Zm-1.76-.73a19.4,19.4,0,0,0,3.52,0c-.45,0-1-.07-1.76-.07S27.5,27.53,27.05,27.57Z" transform="translate(-9.71 -13.49)"/><path class="cls-1" d="M28.88,29.24c-3.39,0-3.39-.55-3.39-.75s0-.75,3.39-.75,3.39.55,3.39.75S32.27,29.24,28.88,29.24Zm-1.94-.75a16.11,16.11,0,0,0,1.94.1,15.87,15.87,0,0,0,1.94-.1,15.87,15.87,0,0,0-1.94-.1A16.11,16.11,0,0,0,26.94,28.49Z" transform="translate(-9.71 -13.49)"/><path class="cls-1" d="M28.86,30c-3.39,0-3.39-.53-3.39-.73s0-.74,3.39-.74,3.39.54,3.39.74S32.25,30,28.86,30ZM27,29.3a18.13,18.13,0,0,0,1.86.08,17.78,17.78,0,0,0,1.85-.08,17.33,17.33,0,0,0-1.85-.09A17.69,17.69,0,0,0,27,29.3Z" transform="translate(-9.71 -13.49)"/><path class="cls-1" d="M28.83,30.85c-3.38,0-3.38-.53-3.38-.73s0-.74,3.38-.74,3.39.54,3.39.74S32.22,30.85,28.83,30.85ZM27,30.12a18.06,18.06,0,0,0,1.85.08,18.13,18.13,0,0,0,1.86-.08,19.16,19.16,0,0,0-3.71,0Z" transform="translate(-9.71 -13.49)"/><path class="cls-1" d="M28.83,31.67c-3.38,0-3.38-.53-3.38-.73s0-.74,3.38-.74,3.39.54,3.39.74S32.22,31.67,28.83,31.67ZM27,30.94a19.16,19.16,0,0,0,3.71,0,19.16,19.16,0,0,0-3.71,0Z" transform="translate(-9.71 -13.49)"/><path class="cls-1" d="M28.86,32.52c-3.39,0-3.39-.54-3.39-.74s0-.73,3.39-.73,3.39.53,3.39.73S32.25,32.52,28.86,32.52ZM27,31.78a17.69,17.69,0,0,0,1.86.09,17.33,17.33,0,0,0,1.85-.09,17.78,17.78,0,0,0-1.85-.08A18.13,18.13,0,0,0,27,31.78Z" transform="translate(-9.71 -13.49)"/><path class="cls-1" d="M28.86,33.44c-3.39,0-3.39-.54-3.39-.74s0-.73,3.39-.73,3.39.53,3.39.73S32.25,33.44,28.86,33.44ZM27,32.7a17.69,17.69,0,0,0,1.86.09,17.33,17.33,0,0,0,1.85-.09,17.33,17.33,0,0,0-1.85-.09A17.69,17.69,0,0,0,27,32.7Z" transform="translate(-9.71 -13.49)"/><rect class="cls-1" x="14.49" y="10.89" width="2.67" height="0.65"/><path class="cls-1" d="M22.11,28.34V28a1.1,1.1,0,0,1-.51-.15l.08-.23a.88.88,0,0,0,.48.15c.25,0,.41-.14.41-.34s-.13-.3-.38-.4-.57-.3-.57-.6a.55.55,0,0,1,.51-.54v-.34h.22v.33a.83.83,0,0,1,.44.12l-.08.22a.89.89,0,0,0-.43-.12c-.27,0-.36.16-.36.3s.12.26.42.39.53.31.53.61a.6.6,0,0,1-.54.59v.35Z" transform="translate(-9.71 -13.49)"/><rect class="cls-1" x="15.35" y="44.74" width="106.44" height="24.64" rx="3.14" ry="3.14"/><rect class="cls-4" x="15.34" y="44.74" width="22.55" height="24.68"/><path class="cls-4" d="M81.42,63.31v.75H78.91v1.49a1.45,1.45,0,0,1,1.13-.5,1.66,1.66,0,0,1,1.75,1.82,1.92,1.92,0,0,1-3.79.44h.83A1.1,1.1,0,0,0,81,66.9a1.06,1.06,0,0,0-2-.44h-.81V63.31Z" transform="translate(-9.71 -13.49)"/><path class="cls-3" d="M59.35,74.38v4.25h-.7l-2.09-3.17v3.17h-.7V74.38h.7l2.09,3.16V74.38Z" transform="translate(-9.71 -13.49)"/><path class="cls-3" d="M63.31,78.63h-.7v-.41a1.24,1.24,0,0,1-1,.45,1.31,1.31,0,0,1-1.39-1.43v-2h.69v1.88a.85.85,0,1,0,1.69,0V75.26h.7Z" transform="translate(-9.71 -13.49)"/><path class="cls-3" d="M65.67,78.68A1.63,1.63,0,0,1,64,76.94a1.61,1.61,0,0,1,1.68-1.73,1.56,1.56,0,0,1,1.63,1.65,1.88,1.88,0,0,1,0,.34H64.71a.93.93,0,0,0,1,.9.82.82,0,0,0,.79-.47h.75A1.54,1.54,0,0,1,65.67,78.68Zm-1-2h1.87a.88.88,0,0,0-.94-.85A.93.93,0,0,0,64.71,76.64Z" transform="translate(-9.71 -13.49)"/><path class="cls-3" d="M68.33,75.26l1,2.74,1-2.74H71l-1.28,3.37h-.83l-1.27-3.37Z" transform="translate(-9.71 -13.49)"/><path class="cls-3" d="M73,78.68a1.64,1.64,0,0,1-1.69-1.74,1.72,1.72,0,1,1,3.43,0A1.68,1.68,0,0,1,73,78.68Zm0-.6a1,1,0,0,0,1-1.14,1,1,0,0,0-1-1.13,1.15,1.15,0,0,0,0,2.27Z" transform="translate(-9.71 -13.49)"/><path class="cls-3" d="M76.61,78.68a1.26,1.26,0,0,1-1.4-1.09h.71a.63.63,0,0,0,.68.51c.4,0,.61-.18.61-.41,0-.66-1.95-.28-1.95-1.51,0-.54.5-1,1.29-1a1.15,1.15,0,0,1,1.3,1.08h-.69a.57.57,0,0,0-.63-.5c-.37,0-.57.16-.57.38,0,.68,1.9.3,1.94,1.52C77.9,78.25,77.4,78.68,76.61,78.68Z" transform="translate(-9.71 -13.49)"/><path class="cls-3" d="M82.17,74.33a2,2,0,0,1,2,1.28H83.3a1.17,1.17,0,0,0-1.13-.67,1.56,1.56,0,0,0,0,3.12,1.18,1.18,0,0,0,1.13-.67h.84a2,2,0,0,1-2,1.27,2.17,2.17,0,1,1,0-4.33Z" transform="translate(-9.71 -13.49)"/><path class="cls-3" d="M85,74.11h.69v4.52H85Z" transform="translate(-9.71 -13.49)"/><path class="cls-3" d="M86.46,74.37a.45.45,0,0,1,.89,0,.45.45,0,1,1-.89,0Zm.1.89h.69v3.37h-.69Z" transform="translate(-9.71 -13.49)"/><path class="cls-3" d="M89.61,78.68a1.63,1.63,0,0,1-1.68-1.74,1.61,1.61,0,0,1,1.68-1.73,1.57,1.57,0,0,1,1.64,1.65,1.87,1.87,0,0,1,0,.34H88.65a.93.93,0,0,0,1,.9.83.83,0,0,0,.8-.47h.75A1.54,1.54,0,0,1,89.61,78.68Zm-1-2h1.86a.87.87,0,0,0-.94-.85A.91.91,0,0,0,88.66,76.64Z" transform="translate(-9.71 -13.49)"/><path class="cls-3" d="M94.32,76.75a.82.82,0,0,0-.85-.94c-.51,0-.84.32-.84.94v1.88h-.7V75.26h.7v.39a1.26,1.26,0,0,1,1-.44A1.31,1.31,0,0,1,95,76.64v2h-.69Z" transform="translate(-9.71 -13.49)"/><path class="cls-3" d="M96,75.83h-.4v-.57H96v-.83h.7v.83h.82v.57H96.7v1.86c0,.25.1.36.39.36h.43v.58H97c-.6,0-1-.25-1-.94Z" transform="translate(-9.71 -13.49)"/><path class="cls-3" d="M99.6,78.68a1.63,1.63,0,0,1-1.68-1.74,1.61,1.61,0,0,1,1.68-1.73,1.57,1.57,0,0,1,1.64,1.65,1.87,1.87,0,0,1,0,.34H98.65a.92.92,0,0,0,.95.9.83.83,0,0,0,.8-.47h.75A1.54,1.54,0,0,1,99.6,78.68Zm-.95-2h1.86a.87.87,0,0,0-.94-.85A.91.91,0,0,0,98.65,76.64Z" transform="translate(-9.71 -13.49)"/><path class="cls-3" d="M103.14,78.68a1.27,1.27,0,0,1-1.4-1.09h.72a.61.61,0,0,0,.67.51c.4,0,.62-.18.62-.41,0-.66-2-.28-2-1.51,0-.54.5-1,1.3-1a1.16,1.16,0,0,1,1.3,1.08h-.7a.56.56,0,0,0-.63-.5c-.37,0-.57.16-.57.38,0,.68,1.9.3,1.94,1.52C104.43,78.25,103.93,78.68,103.14,78.68Z" transform="translate(-9.71 -13.49)"/><path class="cls-1" d="M37.26,79.56h-2.8a5.84,5.84,0,0,1-5.84-5.83V67.5a5.84,5.84,0,0,1,5.84-5.83h2.8a5.84,5.84,0,0,1,5.83,5.83v6.23A5.83,5.83,0,0,1,37.26,79.56ZM34.46,63a4.55,4.55,0,0,0-4.54,4.54v6.23a4.55,4.55,0,0,0,4.54,4.54h2.8a4.55,4.55,0,0,0,4.54-4.54V67.5A4.55,4.55,0,0,0,37.26,63Z" transform="translate(-9.71 -13.49)"/><path class="cls-1" d="M36.07,71.14a2.72,2.72,0,1,1,2.72-2.72A2.72,2.72,0,0,1,36.07,71.14Zm0-4.58a1.86,1.86,0,1,0,1.86,1.86A1.86,1.86,0,0,0,36.07,66.56Z" transform="translate(-9.71 -13.49)"/><path class="cls-1" d="M39.62,75.88l-.69-.52a1.78,1.78,0,0,0-.11-1.74,3.19,3.19,0,0,0-2.16-1,4.11,4.11,0,0,0-3,.72A2.17,2.17,0,0,0,33,75.54l-.84.19a3,3,0,0,1,.91-3,4.94,4.94,0,0,1,3.66-.92,4,4,0,0,1,2.76,1.29A2.62,2.62,0,0,1,39.62,75.88Z" transform="translate(-9.71 -13.49)"/><rect class="cls-1" x="32.64" y="51.43" width="2.12" height="2.46"/><rect class="cls-1" x="32.64" y="55.72" width="2.12" height="2.46"/><rect class="cls-1" x="32.64" y="60.06" width="2.12" height="2.46"/><rect class="cls-1" y="89.66" width="106.44" height="24.69" rx="2.69" ry="2.69"/><rect class="cls-5" y="89.66" width="22.55" height="24.68"/><path class="cls-3" d="M40.46,119H43v.57h-1.8v1.25h1.4v.57h-1.4v1.85h-.7Z" transform="translate(-9.71 -13.49)"/><path class="cls-3" d="M45,119.81a1.42,1.42,0,0,1,1.16.54v-.49h.7v3.36h-.7v-.5a1.44,1.44,0,0,1-1.18.56,1.63,1.63,0,0,1-1.57-1.75A1.6,1.6,0,0,1,45,119.81Zm.14.6a1,1,0,0,0-1,1.12,1.06,1.06,0,0,0,1,1.14,1.14,1.14,0,0,0,0-2.26Z" transform="translate(-9.71 -13.49)"/><path class="cls-3" d="M49.15,119.81a1.45,1.45,0,0,1,1.55,1.11H50a.78.78,0,0,0-.8-.53c-.56,0-.93.42-.93,1.15s.37,1.15.93,1.15a.76.76,0,0,0,.8-.53h.75a1.51,1.51,0,0,1-1.55,1.12,1.74,1.74,0,0,1,0-3.47Z" transform="translate(-9.71 -13.49)"/><path class="cls-3" d="M51.51,120.43h-.4v-.57h.4V119h.7v.84H53v.57h-.82v1.86c0,.25.1.35.39.35H53v.58h-.55c-.6,0-1-.25-1-.93Z" transform="translate(-9.71 -13.49)"/><path class="cls-3" d="M56.71,123.22H56v-.4a1.25,1.25,0,0,1-1,.45,1.31,1.31,0,0,1-1.39-1.43v-2h.69v1.87a.85.85,0,1,0,1.7,0v-1.87h.69Z" transform="translate(-9.71 -13.49)"/><path class="cls-3" d="M58.32,123.22h-.7v-3.36h.7v.49a1.08,1.08,0,0,1,1-.54v.72h-.18c-.51,0-.83.21-.83.92Z" transform="translate(-9.71 -13.49)"/><path class="cls-3" d="M61.32,119.81a1.42,1.42,0,0,1,1.17.54v-.49h.7v3.36h-.7v-.5a1.46,1.46,0,0,1-1.18.56,1.63,1.63,0,0,1-1.58-1.75A1.6,1.6,0,0,1,61.32,119.81Zm.15.6a1,1,0,0,0-1,1.12,1.06,1.06,0,0,0,1,1.14,1.14,1.14,0,0,0,0-2.26Z" transform="translate(-9.71 -13.49)"/><path class="cls-3" d="M65.46,119.81a1.53,1.53,0,0,1,1.16.52v-1.62h.7v4.51h-.7v-.5a1.39,1.39,0,0,1-1.16.56,1.63,1.63,0,0,1-1.59-1.75A1.6,1.6,0,0,1,65.46,119.81Zm.14.6a1,1,0,0,0-1,1.12,1.06,1.06,0,0,0,1,1.14,1.14,1.14,0,0,0,0-2.26Z" transform="translate(-9.71 -13.49)"/><path class="cls-3" d="M69.7,123.28a1.74,1.74,0,1,1,1.74-1.74A1.69,1.69,0,0,1,69.7,123.28Zm0-.61a1,1,0,0,0,1-1.13,1,1,0,0,0-1-1.13,1,1,0,0,0-1,1.13A1,1,0,0,0,69.7,122.67Z" transform="translate(-9.71 -13.49)"/><path class="cls-3" d="M76.41,121.37h-2v1.85h-.7V119h.7v1.82h2V119h.69v4.24h-.69Z" transform="translate(-9.71 -13.49)"/><path class="cls-3" d="M79.47,123.28a1.74,1.74,0,0,1,0-3.47,1.66,1.66,0,0,1,1.72,1.73A1.69,1.69,0,0,1,79.47,123.28Zm0-.61a1,1,0,0,0,1-1.13,1,1,0,0,0-1-1.13,1,1,0,0,0-1,1.13C78.5,122.3,79,122.67,79.47,122.67Z" transform="translate(-9.71 -13.49)"/><path class="cls-3" d="M84.21,119.86h.72l-2.06,4.94h-.72l.68-1.63-1.32-3.31h.77l1,2.56Z" transform="translate(-9.71 -13.49)"/><path class="cls-6" d="M46.44,113.06c-.91-.09-1.57-.59-1.57-1.44h.92a.73.73,0,0,0,.65.73V110.7c-.75-.18-1.57-.39-1.57-1.45a1.55,1.55,0,0,1,1.57-1.5v-.61h.49v.6a1.48,1.48,0,0,1,1.51,1.4h-.91a.77.77,0,0,0-.6-.67v1.62c.75.18,1.57.38,1.57,1.44a1.58,1.58,0,0,1-1.57,1.52v.61h-.49Zm0-3.1v-1.51a.72.72,0,0,0-.7.75C45.74,109.64,46,109.83,46.44,110Zm.49.87v1.52a.78.78,0,0,0,.71-.78C47.64,111.15,47.34,111,46.93,110.83Z" transform="translate(-9.71 -13.49)"/><path class="cls-6" d="M49.88,108.93c0-.8.59-1.48,1.8-1.48s1.8.69,1.8,1.48a1.36,1.36,0,0,1-.78,1.23,1.38,1.38,0,0,1,.92,1.34,2,2,0,0,1-3.88,0,1.38,1.38,0,0,1,.92-1.34A1.31,1.31,0,0,1,49.88,108.93Zm.68,2.54c0,.56.42,1,1.12,1a1,1,0,0,0,1.1-1c0-.61-.46-.94-1.1-.94S50.56,110.84,50.56,111.47Zm2.1-2.44c0-.56-.38-.87-1-.87s-1,.3-1,.88a1,1,0,0,0,2,0Z" transform="translate(-9.71 -13.49)"/><path class="cls-6" d="M54.63,112h.93l-.91,2.07H54.1Z" transform="translate(-9.71 -13.49)"/><path class="cls-6" d="M57.26,111.53a.9.9,0,0,0,1,.76c.68,0,1-.46,1-1.85a1.51,1.51,0,0,1-1.22.53,1.63,1.63,0,0,1-1.74-1.74,1.68,1.68,0,0,1,1.82-1.81c1.41,0,1.88,1,1.88,2.76S59.63,113,58.2,113a1.57,1.57,0,0,1-1.73-1.47Zm1.92-2.3a1,1,0,1,0-1,1A.93.93,0,0,0,59.18,109.23Z" transform="translate(-9.71 -13.49)"/><path class="cls-6" d="M63.56,111.87H60.85v-.64l2.51-3.61h1v3.51h.69v.74H64.4V113h-.84Zm0-.74v-2.64l-1.76,2.64Z" transform="translate(-9.71 -13.49)"/><path class="cls-6" d="M67.57,107.42c1.09,0,1.68.63,1.68,1.42a1.28,1.28,0,0,1-.84,1.24v0a1.33,1.33,0,0,1,.93,1.4A1.54,1.54,0,0,1,67.59,113a1.69,1.69,0,0,1-1.89-1.61h.83a1,1,0,0,0,1,.9.86.86,0,0,0,1-.9c0-.72-.47-1-1.36-1H67v-.7h.21c.77,0,1.24-.23,1.24-.82s-.31-.78-.89-.78a.85.85,0,0,0-.93.74h-.83A1.6,1.6,0,0,1,67.57,107.42Z" transform="translate(-9.71 -13.49)"/><path class="cls-6" d="M70.7,113.06a.55.55,0,1,1,.54-.54A.54.54,0,0,1,70.7,113.06Z" transform="translate(-9.71 -13.49)"/><path class="cls-6" d="M72,112.31c1.29-1.13,2.64-2.12,2.64-3.19,0-.57-.25-1-.88-1s-.92.42-.95,1H72a1.65,1.65,0,0,1,1.76-1.76,1.57,1.57,0,0,1,1.74,1.64c0,1.33-1.35,2.34-2.23,3.14h2.38v.72H72Z" transform="translate(-9.71 -13.49)"/><path class="cls-6" d="M76.3,112.31c1.28-1.13,2.64-2.12,2.64-3.19,0-.57-.25-1-.88-1s-.93.42-1,1h-.82a1.65,1.65,0,0,1,1.76-1.76,1.57,1.57,0,0,1,1.74,1.64c0,1.33-1.35,2.34-2.23,3.14h2.38v.72H76.3Z" transform="translate(-9.71 -13.49)"/><path class="cls-1" d="M21.35,124.59a7.89,7.89,0,1,1,8.08-7.88A8,8,0,0,1,21.35,124.59Zm0-14.47a6.59,6.59,0,1,0,6.78,6.59A6.69,6.69,0,0,0,21.35,110.12Z" transform="translate(-9.71 -13.49)"/><path class="cls-1" d="M14.5,113.08A4,4,0,0,1,15,108,3.76,3.76,0,0,1,18,107.1a4.24,4.24,0,0,1,3,1.79l-1.07.74a2.94,2.94,0,0,0-2.06-1.24,2.44,2.44,0,0,0-1.93.55,2.75,2.75,0,0,0-.3,3.45Z" transform="translate(-9.71 -13.49)"/><path class="cls-1" d="M28.25,113.07l-1.15-.61a2.9,2.9,0,0,0,.16-2.41,2.48,2.48,0,0,0-1.37-1.46,2.74,2.74,0,0,0-3.2,1.31l-1.12-.66a4,4,0,0,1,4.79-1.86,3.75,3.75,0,0,1,2.12,2.22A4.25,4.25,0,0,1,28.25,113.07Z" transform="translate(-9.71 -13.49)"/><polygon class="cls-1" points="13.4 106.12 10.83 103.93 10.83 98.93 12.12 98.93 12.12 103.33 14.24 105.13 13.4 106.12"/><rect class="cls-1" x="14.63" y="122.33" width="2.5" height="1.3" transform="translate(-92.02 33.75) rotate(-45)"/><rect class="cls-1" x="25.96" y="121.84" width="1.3" height="2.5" transform="translate(-85.36 36.09) rotate(-42.09)"/></svg>