<?xml version="1.0" encoding="utf-8"?>
<!-- Generator: Adobe Illustrator 19.2.1, SVG Export Plug-In . SVG Version: 6.00 Build 0)  -->
<svg version="1.1" id="Capa_1" xmlns="http://www.w3.org/2000/svg" xmlns:xlink="http://www.w3.org/1999/xlink" x="0px" y="0px"
	 viewBox="0 0 2012.4 1685.7" style="enable-background:new 0 0 2012.4 1685.7;" xml:space="preserve">
<style type="text/css">
	.st0{fill:#85C0E7;}
	.st1{fill:#FFFFFF;}
	.st2{fill:none;}
	.st3{clip-path:url(#SVGID_2_);fill:#85C0E7;}
	.st4{fill:#85C0E7;stroke:#FFFFFF;stroke-width:21;stroke-linejoin:bevel;stroke-miterlimit:10;}
</style>
<g>
	<path class="st0" d="M4386.5,1106.9c-53.4-11.8-108.2-17.9-163.7-17.9c-55.5,0-110.3,6.1-163.7,17.9c7.1,27.9,14.8,54.5,23.2,79.7
		c49.5,148.4,106.6,201,140.5,201c33.9,0,91-52.7,140.5-201C4371.7,1161.5,4379.4,1134.8,4386.5,1106.9L4386.5,1106.9z
		 M4386.5,1106.9"/>
	<path class="st0" d="M4036.7,1002.3c60.7-13.4,123.1-20.3,186.1-20.3c63,0,125.4,6.9,186.1,20.3c17.4-97.6,27.7-205.8,30.2-318.9
		h-432.7C4009,796.5,4019.3,904.7,4036.7,1002.3L4036.7,1002.3z M4036.7,1002.3"/>
	<path class="st0" d="M4059.1,152.8c53.4,11.8,108.2,17.9,163.7,17.9c45.8,0,91.5-4.1,136.3-12.3c-0.7-9.4-1.1-18.9-1.1-28.5
		c0-19.9,1.6-39.5,4.7-58.5c-49.2-146.8-105.7-199.4-139.9-199.4c-33.9,0-91,52.6-140.5,201C4074,98.3,4066.2,125,4059.1,152.8
		L4059.1,152.8z M4059.1,152.8"/>
	<path class="st0" d="M4471.5,187.8l2.4,9.7c9,33.2,24.6,64.4,46.6,92.1L4722.8,544l202.4-254.5c36.2-45.8,55.4-101,55.4-159.5
		c0-142.2-115.7-257.8-257.8-257.8C4580.6-127.8,4465-12.2,4465,130C4465,149.7,4467.2,169.1,4471.5,187.8L4471.5,187.8z
		 M4722.8,58.7c39.3,0,71.3,32,71.3,71.3c0,39.3-32,71.3-71.3,71.3c-39.3,0-71.3-32-71.3-71.3C4651.5,90.7,4683.5,58.7,4722.8,58.7
		L4722.8,58.7z M4722.8,58.7"/>
	<path class="st0" d="M4611.9,576.4l-69.2-87c1.6,28.7,2.8,57.7,3.4,87H4611.9z M4611.9,576.4"/>
	<path class="st0" d="M4478.2-140.4c-40.4-13.4-82.2-23.7-125.2-30.6c22.3,23.9,44.8,56,66.3,98.7
		C4436.1-97.3,4455.9-120.2,4478.2-140.4L4478.2-140.4z M4478.2-140.4"/>
	<path class="st0" d="M4383,262.9c-52.6,9.8-106.3,14.8-160.1,14.8c-63.1,0-125.4-6.9-186.1-20.3c-17.4,97.6-27.7,205.8-30.2,318.9
		h432.6c-1.8-83.6-8-164.8-18.4-242.2C4405.4,311.7,4392.7,287.8,4383,262.9L4383,262.9z M4383,262.9"/>
	<path class="st0" d="M4512.2,1031.9c103.1,36.6,199.1,92.7,282.5,166.4l3.7,3.3c133.9-134.8,220.7-316.4,233.8-518.1h-486.1
		C4543.6,806.7,4531.9,925.2,4512.2,1031.9L4512.2,1031.9z M4512.2,1031.9"/>
	<path class="st0" d="M4464.8,1220.5c-34.3,102.9-73.2,168.9-111.8,210.3c135.7-21.9,260.2-77.5,364.5-157.8
		c-68.1-58.8-145.5-104.4-228.4-135.6C4481.7,1166.3,4473.6,1194.1,4464.8,1220.5L4464.8,1220.5z M4464.8,1220.5"/>
	<path class="st0" d="M5032.3,576.4c-4.5-69.7-17.9-137-38.9-200.8l-159.7,200.8H5032.3z M5032.3,576.4"/>
	<path class="st0" d="M3933.4,227.9c-103.1-36.6-199.1-92.8-282.5-166.4l-3.7-3.3c-133.9,134.8-220.7,316.4-233.8,518.1h486.2
		C3902.1,453,3913.7,334.6,3933.4,227.9L3933.4,227.9z M3933.4,227.9"/>
	<path class="st0" d="M3980.9,39.3c34.3-102.9,73.2-168.9,111.8-210.3c-135.7,21.9-260.2,77.5-364.5,157.8
		c68.1,58.8,145.5,104.4,228.4,135.6C3964,93.4,3972.1,65.7,3980.9,39.3L3980.9,39.3z M3980.9,39.3"/>
	<path class="st0" d="M3899.5,683.4h-486.2c13.1,201.7,99.9,383.3,233.8,518.1l3.7-3.3c83.4-73.6,179.5-129.8,282.5-166.4
		C3913.7,925.2,3902.1,806.7,3899.5,683.4L3899.5,683.4z M3899.5,683.4"/>
	<path class="st0" d="M3956.5,1137.3c-82.9,31.1-160.3,76.8-228.4,135.6c104.4,80.4,228.8,136,364.5,157.8
		c-38.7-41.4-77.5-107.4-111.8-210.3C3972.1,1194.1,3964,1166.3,3956.5,1137.3L3956.5,1137.3z M3956.5,1137.3"/>
</g>
<path d="M414.7,2189.1c-96.4,0-181.7,48.1-233.4,121.6c10.7,7,21.1,16.5,31.2,28.8c38.5-57.6,100.8-98,172.9-106.7l29.3,49.5
	l29.3-49.5c110.8,13.4,198.9,101.4,212.2,212.2l-49.6,29.3l49.6,29.3c-8.9,74.1-51.4,137.9-111.5,176.1c3.8,8.7,6,17.7,6.4,26.9
	c0.3,6.7-0.4,13.1-1.8,19.1c89.6-48.1,150.7-142.7,150.7-251.4C699.9,2317,572,2189.1,414.7,2189.1L414.7,2189.1z"/>
<g>
	<path class="st0" d="M3896.5,3458.7c0-142.3,184.5-165,184.5-243.4c0-34.4-26.6-55-60-55c-46.1,0-71.1,46.7-71.1,46.7l-53.4-35.6
		c0,0,36.1-78.9,130.6-78.9c69.5,0,128.4,42.2,128.4,116.7c0,126.7-176.7,148.4-178.4,222.9h184.5v61.7h-261.7
		C3898.2,3481,3896.5,3469.9,3896.5,3458.7L3896.5,3458.7z"/>
	<polygon class="st0" points="4201.7,3348.1 4371.8,3099.2 4456.8,3099.2 4456.8,3332.6 4507.9,3332.6 4507.9,3392.1 4456.8,3392.1 
		4456.8,3493.7 4386.2,3493.7 4386.2,3392.1 4201.7,3392.1 	"/>
	<path class="st1" d="M4386.2,3332.6v-122.2c0-19.5,2.8-41.1,2.8-41.1h-1.1c0,0-8.9,21.1-19.5,36.1l-91.1,126.1v1.1H4386.2z"/>
	<g>
		<path class="st0" d="M3991.2,3951.1l45.1-119.2c5-13.2-1.6-27.9-14.8-32.9l-47.8-18.1c-271.5-102.8-421.7-402.2-326.8-676.6
			c91.1-263.5,367.3-407.5,629.8-343.3l-30,79.2c-7,18.3,8.6,37.3,27.9,34.2l351.8-57.4c19.4-3.2,28.1-26.1,15.6-41.3l-225.6-276
			c-12.4-15.2-36.6-11.2-43.6,7.1l-32.6,86.2c-354-98.4-732.4,91.4-859.3,445.3c-131.8,367.4,66.5,772.1,431.6,910.3l45.7,17.3
			C3971.5,3970.9,3986.2,3964.3,3991.2,3951.1z"/>
		<path class="st0" d="M4191.2,3808.6l-39.3,1.6c-14.1,0.6-25,12.4-24.5,26.5l5.1,129.7c0.6,14.1,12.4,25,26.5,24.5l39.3-1.6
			c14.1-0.6,25-12.4,24.5-26.5l-5.1-129.7C4217.1,3819,4205.3,3808.1,4191.2,3808.6z"/>
		<path class="st0" d="M4386.9,3754.8l-35.9,16.2c-12.8,5.8-18.5,20.9-12.8,33.7l53.3,118.4c5.8,12.8,20.9,18.6,33.7,12.8l35.9-16.2
			c12.8-5.8,18.5-20.9,12.8-33.7l-53.3-118.3C4414.9,3754.7,4399.8,3749,4386.9,3754.8z"/>
		<path class="st0" d="M4548.2,3631.5L4521,3660c-9.7,10.2-9.4,26.3,0.8,36l93.8,89.8c10.2,9.7,26.3,9.4,36-0.8l27.2-28.5
			c9.7-10.2,9.4-26.3-0.8-36l-93.8-89.7C4574.1,3621,4558,3621.4,4548.2,3631.5z"/>
		<path class="st0" d="M4651.6,3456.9l-14.6,36.6c-5.2,13.1,1.2,27.9,14.2,33.1l120.6,48.1c13.1,5.2,27.9-1.2,33.1-14.2l14.6-36.6
			c5.2-13.1-1.2-27.9-14.2-33.1l-120.6-48.1C4671.6,3437.4,4656.8,3443.8,4651.6,3456.9z"/>
		<path class="st0" d="M4707.4,3230.5c-14.1,0.1-25.4,11.5-25.4,25.6l0.2,39.4c0.1,14.1,11.5,25.4,25.6,25.4l129.8-0.6
			c14.1-0.1,25.4-11.5,25.4-25.6l-0.2-39.4c-0.1-14.1-11.5-25.4-25.6-25.4L4707.4,3230.5z"/>
		<path class="st0" d="M4649,3025.4c-13,5.3-19.3,20.2-13.9,33.3l14.9,36.4c5.3,13,20.2,19.3,33.3,13.9l120.1-49.2
			c13-5.3,19.3-20.2,13.9-33.2l-14.9-36.4c-5.3-13-20.2-19.3-33.2-13.9L4649,3025.4z"/>
	</g>
	<path class="st0" d="M4827.3,3847.1c-20,226.7,142.8,194.2,253,192c127.1-2.6,297.9-303.3,288.5-771.8
		c-9.5-468.4-192.2-762.1-319.4-759.5c-110.2,2.2-274.2-23.6-245,202c29.1,225.6,113.4,209.5,227.2,207.2
		c79.4-1.6,100.7,181.5,104.2,355c3.5,173.5-10.3,357.3-89.8,358.9C4932.2,3633.3,4847.4,3620.5,4827.3,3847.1L4827.3,3847.1z"/>
</g>
<path d="M287.3,2518.9c0-58.4,68.4-68.8,68.4-91.6c0-11.1-8.9-15.7-17-15.7c-15.1,0-23.5,16.8-23.5,16.8l-28.8-19.3
	c0,0,14.6-34.1,55.8-34.1c25.9,0,54,14.8,54,48.5c0,49.4-63.8,58.9-64.9,79.3h67.3v33.2H289C287.9,2529.7,287.3,2524.2,287.3,2518.9
	L287.3,2518.9z"/>
<polygon points="414.8,2474.2 475.9,2377.6 523.3,2377.6 523.3,2465.5 542.1,2465.5 542.1,2497.6 523.3,2497.6 523.3,2535.9 
	485,2535.9 485,2497.6 414.8,2497.6 "/>
<path d="M485,2465.5v-35.4c0-8.6,1.3-17.7,1.3-17.7h-0.4c0,0-3.3,9.7-7.8,16.4l-23.9,36.3v0.4L485,2465.5L485,2465.5z"/>
<path d="M485,2465.5"/>
<rect x="60" y="2189.1" class="st2" width="639.8" height="600"/>
<g>
	<path class="st0" d="M943,3398.8l-696.5-217.5c-17.4-5.4-36.2-5.4-53.6,0l-696.5,217.5c-37.6,11.8-63.2,46.5-63.2,85.8
		c0,963,486.5,1193.1,747.9,1316.7c12.1,5.8,25.3,8.6,38.4,8.6s26.3-2.8,38.6-8.6c261.3-123.6,747.9-353.8,747.9-1316.7
		C1006.2,3445.3,980.6,3410.5,943,3398.8L943,3398.8z"/>
	<path class="st1" d="M219.7,4620.3c-248-119.2-586.9-316.9-605.5-1069.7l605.5-189.1l605.5,189.1
		C806.8,4303.4,468,4501.1,219.7,4620.3L219.7,4620.3z"/>
	<path d="M219.7,4620.3"/>
	<rect x="-566.7" y="3177.2" class="st2" width="1564.1" height="1662.9"/>
	<path class="st0" d="M-283.5,3625.8c0,222.4,57.8,397.4,136,532.3l612.7-612.7l-245.6-76.7L-283.5,3625.8z M-283.5,3625.8"/>
	<path class="st0" d="M219.7,4518.5c172-77.3,496-336.2,503.1-874.3L7.6,4359.4C90.1,4441.6,170.9,4492.9,219.7,4518.5L219.7,4518.5
		z M219.7,4518.5"/>
</g>
<g>
	<g>
		<defs>
			<rect id="SVGID_1_" x="131.9" y="-8" width="1765.4" height="1676"/>
		</defs>
		<clipPath id="SVGID_2_">
			<use xlink:href="#SVGID_1_"  style="overflow:visible;"/>
		</clipPath>
		<path class="st3" d="M1840.7,748.9c-52.4-127.7-151.7-192.5-295-192.5h-172.1c29.1-65.5,61.5-160.7,61.5-275.3
			c0-31.7-2.5-64-8.4-97.5c-22.5-133.1-113.4-204-242.9-189.8c-51.3,5.9-68.7,54.6-111.3,172.4c-35.3,97.9-83.7,231.7-153.5,339.3
			c-51.7,79-143.3,141.5-220,180.1v-9.9h-567v842h567v-46.2c89.1-4.4,140-1.8,152,1.9l101.1,58.9l76,47.2
			c73.5,39.7,395.7,43.7,533.9,23.3c177.9-26.2,220.8-171.6,222.6-177.8C1798.4,1376.7,1920.7,943.4,1840.7,748.9L1840.7,748.9z
			 M1677.4,1394.4c-0.7,2.9-26.9,83-131.3,97.9c-148.8,22.2-424.5,8.8-465.3-10.9c0,0.4-67.2-42.2-67.2-42.2l-127.7-71.7
			c-29.5-9.8-96.5-10.9-187-6.9V806c91.2-37.2,232.8-116.4,313.5-239.7c77.1-118.6,128-259.3,165.1-362.3c0,0,32.4-81.5,40.4-100.4
			c56.4,0.4,87.6,31.3,99.3,98.6c4.7,26.5,6.6,52.7,6.6,77.7c0,166.9-85.8,299.7-87.3,301.6l-56.3,86.2h365.5
			c97.4,0,156.7,38.2,192,123.7C1793,925.6,1712.7,1272.3,1677.4,1394.4L1677.4,1394.4z M1677.4,1394.4"/>
	</g>
</g>
<g>
	<path class="st0" d="M2858.5,4419.6h-1470c-128.5,0-232.8,104.3-232.8,232.8c0,128.6,104.3,232.8,232.8,232.8h1470
		c128.6,0,232.8-104.2,232.8-232.8C3091.3,4523.8,2987.1,4419.6,2858.5,4419.6L2858.5,4419.6z M2527,4704.8
		c-39.1,0-70.8-31.7-70.8-70.8c0-39.1,31.7-70.8,70.8-70.8c39.1,0,70.8,31.7,70.8,70.8C2597.8,4673.1,2566.1,4704.8,2527,4704.8
		L2527,4704.8z M2765.6,4704.8c-39.1,0-70.8-31.7-70.8-70.8c0-39.1,31.7-70.8,70.8-70.8c39.1,0,70.8,31.7,70.8,70.8
		C2836.4,4673.1,2804.7,4704.8,2765.6,4704.8L2765.6,4704.8z M2765.6,4704.8"/>
	<rect x="1155.7" y="3528.4" class="st2" width="1934.7" height="1357.2"/>
	<path class="st0" d="M2858.5,4343c75.8,0,145.3,27.4,199.1,72.8L2653.9,3542c-3.9-8.4-12.2-13.7-21.4-13.7H1614.6
		c-9.2,0-17.6,5.4-21.4,13.7l-403.7,873.8c53.8-45.4,123.3-72.8,199.1-72.8H2858.5z"/>
	<rect x="1155.7" y="3528.4" class="st2" width="1934.7" height="1357.2"/>
	<g>
		<path class="st1" d="M1909.7,4049.8c0-14.2-5.1-26.1-15.3-35.7c-10.2-9.6-28.1-17.8-53.8-24.5c-31.9-7.9-56.7-19.5-74.6-34.9
			c-17.9-15.4-26.8-34.7-26.8-57.9c0-24.5,9.6-45,28.9-61.4c19.2-16.4,44.2-24.5,74.9-24.5c33,0,59.3,9.4,78.9,28.1
			c19.6,18.7,29.1,40.6,28.5,65.6l-0.6,1.3h-40.5c0-17.8-6.2-32.5-18.6-44.1c-12.4-11.6-28.3-17.4-47.7-17.4
			c-19.8,0-35,4.8-45.5,14.4c-10.6,9.6-15.8,22.1-15.8,37.5c0,13.6,5.8,25,17.3,34.1c11.6,9.1,30.3,17.1,56.3,24
			c31.6,8.2,55.6,20.2,72.1,36.2c16.5,15.9,24.8,35.6,24.8,59c0,25.3-9.9,45.6-29.8,60.9c-19.9,15.4-45.8,23-77.8,23
			c-30.3,0-57-8.5-80.2-25.4c-23.2-16.9-34.4-39.6-33.7-68l0.4-1.3h40.5c0,19.7,7.5,34.9,22.4,45.5c14.9,10.7,31.8,16,50.6,16
			c20.1,0,36-4.5,47.7-13.6C1903.8,4077.6,1909.7,4065.3,1909.7,4049.8z"/>
		<path class="st1" d="M2179.3,4049.8c0-14.2-5.1-26.1-15.3-35.7c-10.2-9.6-28.1-17.8-53.8-24.5c-31.9-7.9-56.7-19.5-74.6-34.9
			c-17.9-15.4-26.8-34.7-26.8-57.9c0-24.5,9.6-45,28.9-61.4c19.2-16.4,44.2-24.5,74.9-24.5c33,0,59.3,9.4,78.9,28.1
			c19.6,18.7,29.1,40.6,28.5,65.6l-0.6,1.3h-40.5c0-17.8-6.2-32.5-18.6-44.1c-12.4-11.6-28.3-17.4-47.7-17.4
			c-19.8,0-35,4.8-45.5,14.4c-10.6,9.6-15.8,22.1-15.8,37.5c0,13.6,5.8,25,17.3,34.1c11.6,9.1,30.3,17.1,56.3,24
			c31.6,8.2,55.6,20.2,72.1,36.2c16.5,15.9,24.8,35.6,24.8,59c0,25.3-9.9,45.6-29.8,60.9c-19.9,15.4-45.8,23-77.8,23
			c-30.3,0-57-8.5-80.2-25.4c-23.2-16.9-34.4-39.6-33.7-68l0.4-1.3h40.5c0,19.7,7.5,34.9,22.4,45.5c14.9,10.7,31.8,16,50.6,16
			c20.1,0,36-4.5,47.7-13.6C2173.4,4077.6,2179.3,4065.3,2179.3,4049.8z"/>
		<path class="st1" d="M2281.8,4128.8v-313.5h98.6c40.9,0,73.8,12.6,98.7,37.8c24.9,25.2,37.4,57.7,37.4,97.7v42.9
			c0,40.1-12.5,72.6-37.4,97.7c-24.9,25.1-57.8,37.6-98.7,37.6H2281.8z M2324.2,3848.7v247h56.2c29,0,51.9-9.5,68.6-28.6
			c16.7-19.1,25.1-43.6,25.1-73.4v-43.3c0-29.6-8.4-53.9-25.1-73c-16.7-19.1-39.6-28.6-68.6-28.6H2324.2z"/>
	</g>
</g>
<g>
	<circle class="st0" cx="2580.2" cy="2767.8" r="760.5"/>
	<g>
		<path class="st1" d="M2448,3353.4l37.2-98.2c4.1-10.8-1.4-23-12.2-27.1l-39.4-14.9c-223.7-84.7-347.5-331.5-269.3-557.6
			c75.1-217.2,302.8-335.9,519.1-282.9l-24.7,65.2c-5.7,15.1,7.1,30.8,23,28.2l290-47.3c16-2.6,23.1-21.5,12.9-34l-185.9-227.5
			c-10.2-12.5-30.2-9.3-35.9,5.9l-26.9,71c-291.7-81.1-603.6,75.4-708.3,367c-108.7,302.8,54.8,636.4,355.7,750.3l37.6,14.3
			C2431.8,3369.7,2443.9,3364.2,2448,3353.4z"/>
		<path class="st1" d="M2612.8,3235.9l-32.4,1.3c-11.6,0.5-20.6,10.2-20.2,21.8l4.2,106.9c0.5,11.6,10.2,20.6,21.8,20.2l32.4-1.3
			c11.6-0.5,20.6-10.2,20.2-21.8l-4.2-106.9C2634.2,3244.5,2624.4,3235.5,2612.8,3235.9z"/>
		<path class="st1" d="M2774.2,3191.6l-29.6,13.3c-10.6,4.8-15.3,17.2-10.5,27.8l44,97.5c4.8,10.6,17.2,15.3,27.8,10.5l29.6-13.3
			c10.6-4.8,15.3-17.2,10.5-27.8l-44-97.5C2797.2,3191.5,2784.7,3186.8,2774.2,3191.6z"/>
		<path class="st1" d="M2907.1,3090l-22.4,23.4c-8,8.4-7.7,21.7,0.7,29.7l77.3,74c8.4,8,21.7,7.7,29.7-0.7l22.4-23.5
			c8-8.4,7.7-21.7-0.7-29.7l-77.3-74C2928.4,3081.3,2915.1,3081.6,2907.1,3090z"/>
		<path class="st1" d="M2992.3,2946l-12,30.1c-4.3,10.8,1,23,11.7,27.3l99.4,39.6c10.8,4.3,23-1,27.3-11.7l12-30.1
			c4.3-10.8-1-23-11.7-27.3l-99.4-39.6C3008.8,2930,2996.6,2935.2,2992.3,2946z"/>
		<path class="st1" d="M3038.3,2759.5c-11.6,0.1-21,9.5-20.9,21.1l0.2,32.4c0.1,11.6,9.5,21,21.1,20.9l107-0.5
			c11.6,0,21-9.5,20.9-21.1l-0.2-32.5c0-11.6-9.5-21-21.1-20.9L3038.3,2759.5z"/>
		<path class="st1" d="M2990.1,2590.4c-10.7,4.4-15.9,16.7-11.5,27.4l12.3,30c4.4,10.7,16.7,15.9,27.4,11.5l99-40.5
			c10.7-4.4,15.9-16.7,11.5-27.4l-12.3-30c-4.4-10.7-16.7-15.9-27.4-11.5L2990.1,2590.4z"/>
	</g>
	
		<rect x="2679.1" y="2592.4" transform="matrix(0.6281 -0.7781 0.7781 0.6281 -1267.2825 3632.2434)" class="st2" width="974.8" height="1099.1"/>
	<rect x="2500.2" y="2524.3" class="st1" width="160" height="486.9"/>
	<path class="st4" d="M3479.4,2774.9l-0.1,0.1l-9.4-7.6c-37.5-30.3-92.5-24.4-122.8,13.1c-30.3,37.5-24.4,92.5,13.1,122.8
		l-74.8-60.4c-37.5-30.3-92.5-24.4-122.8,13.1c-30.3,37.5-24.4,92.5,13.1,122.8l-68-54.9c-37.5-30.3-94.4-22.2-124.7,15.4
		c-30.3,37.5-23.9,96.5,13.7,126.8l-219.9-177.3c-37.5-30.3-92.5-24.4-122.8,13.1c-30.3,37.5-24.4,92.5,13.1,122.8l440.7,355.7
		c0,0-265-99-294.2,39c-10.2,48.2,19.5,95.8,67.6,106.6l358,80.2c0,0,216.8,45.9,326.8-90.5l146.3-181.2
		c101-125.1,80.4-307.1-44.7-408.1L3479.4,2774.9z M3479.4,2774.9"/>
</g>
</svg>
