<?xml version="1.0" encoding="utf-8"?>
<!-- Generator: Adobe Illustrator 19.2.1, SVG Export Plug-In . SVG Version: 6.00 Build 0)  -->
<svg version="1.1" id="Capa_1" xmlns="http://www.w3.org/2000/svg" xmlns:xlink="http://www.w3.org/1999/xlink" x="0px" y="0px"
	 viewBox="0 0 2012.4 1685.7" style="enable-background:new 0 0 2012.4 1685.7;" xml:space="preserve">
<style type="text/css">
	.st0{fill:#85C0E7;}
	.st1{fill:#FFFFFF;}
	.st2{fill:none;}
	.st3{clip-path:url(#SVGID_2_);fill:#85C0E7;}
	.st4{fill:#85C0E7;stroke:#FFFFFF;stroke-width:21;stroke-linejoin:bevel;stroke-miterlimit:10;}
</style>
<g>
	<path class="st0" d="M4667.1,1519.3c-12-2.6-24.3-4-36.7-4c-12.4,0-24.8,1.4-36.7,4c1.6,6.3,3.3,12.2,5.2,17.9
		c11.1,33.3,23.9,45.1,31.5,45.1c7.6,0,20.4-11.8,31.5-45.1C4663.8,1531.6,4665.5,1525.6,4667.1,1519.3L4667.1,1519.3z
		 M4667.1,1519.3"/>
	<path class="st0" d="M4588.6,1495.9c13.6-3,27.6-4.6,41.8-4.6c14.1,0,28.1,1.6,41.8,4.6c3.9-21.9,6.2-46.2,6.8-71.6h-97.1
		C4582.4,1449.7,4584.7,1474,4588.6,1495.9L4588.6,1495.9z M4588.6,1495.9"/>
	<path class="st0" d="M4593.7,1305.3c12,2.6,24.3,4,36.7,4c10.3,0,20.5-0.9,30.6-2.8c-0.2-2.1-0.3-4.2-0.3-6.4
		c0-4.5,0.4-8.9,1.1-13.1c-11-32.9-23.7-44.7-31.4-44.7c-7.6,0-20.4,11.8-31.5,45.1C4597,1293.1,4595.2,1299.1,4593.7,1305.3
		L4593.7,1305.3z M4593.7,1305.3"/>
	<path class="st0" d="M4686.2,1313.2l0.5,2.2c2,7.4,5.5,14.4,10.4,20.7l45.4,57.1l45.4-57.1c8.1-10.3,12.4-22.7,12.4-35.8
		c0-31.9-26-57.8-57.8-57.8c-31.9,0-57.8,25.9-57.8,57.8C4684.7,1304.6,4685.2,1308.9,4686.2,1313.2L4686.2,1313.2z M4742.5,1284.2
		c8.8,0,16,7.2,16,16c0,8.8-7.2,16-16,16c-8.8,0-16-7.2-16-16C4726.5,1291.4,4733.7,1284.2,4742.5,1284.2L4742.5,1284.2z
		 M4742.5,1284.2"/>
	<path class="st0" d="M4717.7,1400.3l-15.5-19.5c0.4,6.4,0.6,12.9,0.8,19.5H4717.7z M4717.7,1400.3"/>
	<path class="st0" d="M4687.7,1239.5c-9.1-3-18.4-5.3-28.1-6.9c5,5.4,10,12.6,14.9,22.2C4678.2,1249.2,4682.7,1244.1,4687.7,1239.5
		L4687.7,1239.5z M4687.7,1239.5"/>
	<path class="st0" d="M4666.3,1330c-11.8,2.2-23.8,3.3-35.9,3.3c-14.2,0-28.1-1.6-41.8-4.6c-3.9,21.9-6.2,46.2-6.8,71.6h97
		c-0.4-18.8-1.8-37-4.1-54.3C4671.3,1340.9,4668.5,1335.6,4666.3,1330L4666.3,1330z M4666.3,1330"/>
	<path class="st0" d="M4695.3,1502.5c23.1,8.2,44.7,20.8,63.4,37.3l0.8,0.7c30-30.2,49.5-71,52.5-116.2h-109.1
		C4702.3,1452,4699.7,1478.6,4695.3,1502.5L4695.3,1502.5z M4695.3,1502.5"/>
	<path class="st0" d="M4684.7,1544.8c-7.7,23.1-16.4,37.9-25.1,47.2c30.5-4.9,58.4-17.4,81.8-35.4c-15.3-13.2-32.6-23.4-51.2-30.4
		C4688.4,1532.7,4686.6,1538.9,4684.7,1544.8L4684.7,1544.8z M4684.7,1544.8"/>
	<path class="st0" d="M4812,1400.3c-1-15.6-4-30.7-8.7-45l-35.8,45H4812z M4812,1400.3"/>
	<path class="st0" d="M4565.5,1322.1c-23.1-8.2-44.7-20.8-63.4-37.3l-0.8-0.7c-30,30.2-49.5,71-52.5,116.2h109.1
		C4558.4,1372.6,4561,1346.1,4565.5,1322.1L4565.5,1322.1z M4565.5,1322.1"/>
	<path class="st0" d="M4576.1,1279.8c7.7-23.1,16.4-37.9,25.1-47.2c-30.5,4.9-58.4,17.4-81.8,35.4c15.3,13.2,32.6,23.4,51.2,30.4
		C4572.3,1292,4574.1,1285.7,4576.1,1279.8L4576.1,1279.8z M4576.1,1279.8"/>
	<path class="st0" d="M4557.8,1424.3h-109.1c2.9,45.3,22.4,86,52.5,116.2l0.8-0.7c18.7-16.5,40.3-29.1,63.4-37.3
		C4561,1478.6,4558.4,1452,4557.8,1424.3L4557.8,1424.3z M4557.8,1424.3"/>
	<path class="st0" d="M4570.6,1526.2c-18.6,7-36,17.2-51.2,30.4c23.4,18,51.3,30.5,81.8,35.4c-8.7-9.3-17.4-24.1-25.1-47.2
		C4574.1,1538.9,4572.3,1532.7,4570.6,1526.2L4570.6,1526.2z M4570.6,1526.2"/>
</g>
<path d="M414.7,2189.1c-96.4,0-181.7,48.1-233.4,121.6c10.7,7,21.1,16.5,31.2,28.8c38.5-57.6,100.8-98,172.9-106.7l29.3,49.5
	l29.3-49.5c110.8,13.4,198.9,101.4,212.2,212.2l-49.6,29.3l49.6,29.3c-8.9,74.1-51.4,137.9-111.5,176.1c3.8,8.7,6,17.7,6.4,26.9
	c0.3,6.7-0.4,13.1-1.8,19.1c89.6-48.1,150.7-142.7,150.7-251.4C699.9,2317,572,2189.1,414.7,2189.1L414.7,2189.1z"/>
<g>
	<path class="st0" d="M4815.8,592.8c0-60.1,77.9-69.7,77.9-102.8c0-14.5-11.3-23.2-25.3-23.2c-19.5,0-30,19.7-30,19.7l-22.5-15
		c0,0,15.2-33.3,55.1-33.3c29.3,0,54.2,17.8,54.2,49.3c0,53.5-74.6,62.6-75.3,94.1h77.9v26h-110.5
		C4816.5,602.2,4815.8,597.5,4815.8,592.8L4815.8,592.8z"/>
	<polygon class="st0" points="4944.7,546.1 5016.4,441 5052.3,441 5052.3,539.5 5073.9,539.5 5073.9,564.6 5052.3,564.6 
		5052.3,607.6 5022.5,607.6 5022.5,564.6 4944.7,564.6 	"/>
	<path class="st1" d="M5022.5,539.5v-51.6c0-8.2,1.2-17.4,1.2-17.4h-0.5c0,0-3.7,8.9-8.2,15.2l-38.5,53.3v0.5H5022.5z"/>
	<g>
		<path class="st0" d="M4855.8,800.6l19.1-50.3c2.1-5.6-0.7-11.8-6.3-13.9l-20.2-7.6c-114.6-43.4-178-169.8-137.9-285.6
			c38.5-111.2,155.1-172,265.9-144.9l-12.7,33.4c-2.9,7.7,3.6,15.8,11.8,14.4l148.5-24.2c8.2-1.3,11.8-11,6.6-17.4L5035.4,188
			c-5.2-6.4-15.5-4.7-18.4,3l-13.8,36.4c-149.4-41.5-309.2,38.6-362.8,188c-55.7,155.1,28.1,325.9,182.2,384.3l19.3,7.3
			C4847.5,809,4853.7,806.2,4855.8,800.6z"/>
		<path class="st0" d="M4940.2,740.5l-16.6,0.7c-5.9,0.2-10.6,5.2-10.3,11.2l2.2,54.8c0.2,5.9,5.2,10.6,11.2,10.3l16.6-0.7
			c5.9-0.2,10.6-5.2,10.3-11.2l-2.2-54.8C4951.2,744.9,4946.2,740.3,4940.2,740.5z"/>
		<path class="st0" d="M5022.8,717.8l-15.2,6.8c-5.4,2.4-7.8,8.8-5.4,14.2l22.5,50c2.4,5.4,8.8,7.8,14.2,5.4l15.2-6.8
			c5.4-2.4,7.8-8.8,5.4-14.2l-22.5-50C5034.6,717.7,5028.3,715.3,5022.8,717.8z"/>
		<path class="st0" d="M5090.9,665.7l-11.5,12c-4.1,4.3-4,11.1,0.3,15.2l39.6,37.9c4.3,4.1,11.1,4,15.2-0.3l11.5-12
			c4.1-4.3,4-11.1-0.3-15.2l-39.6-37.9C5101.8,661.3,5095,661.4,5090.9,665.7z"/>
		<path class="st0" d="M5134.6,592l-6.2,15.4c-2.2,5.5,0.5,11.8,6,14l50.9,20.3c5.5,2.2,11.8-0.5,14-6l6.2-15.4
			c2.2-5.5-0.5-11.8-6-14l-50.9-20.3C5143,583.8,5136.8,586.5,5134.6,592z"/>
		<path class="st0" d="M5158.1,496.5c-5.9,0-10.7,4.9-10.7,10.8l0.1,16.6c0,5.9,4.9,10.7,10.8,10.7l54.8-0.3
			c5.9,0,10.7-4.9,10.7-10.8l-0.1-16.6c0-5.9-4.9-10.7-10.8-10.7L5158.1,496.5z"/>
		<path class="st0" d="M5133.5,409.9c-5.5,2.3-8.1,8.5-5.9,14l6.3,15.4c2.3,5.5,8.5,8.1,14,5.9l50.7-20.8c5.5-2.3,8.1-8.5,5.9-14
			l-6.3-15.4c-2.3-5.5-8.5-8.1-14-5.9L5133.5,409.9z"/>
	</g>
	<path class="st0" d="M5208.8,756.7c-8.4,95.7,60.3,82,106.8,81.1c53.7-1.1,125.8-128.1,121.8-325.8
		c-4-197.8-81.1-321.7-134.8-320.6c-46.5,0.9-115.8-9.9-103.4,85.3c12.3,95.2,47.9,88.4,95.9,87.5c33.5-0.7,42.5,76.6,44,149.9
		c1.5,73.3-4.4,150.9-37.9,151.5C5253,666.5,5217.2,661.1,5208.8,756.7L5208.8,756.7z"/>
</g>
<path d="M287.3,2518.9c0-58.4,68.4-68.8,68.4-91.6c0-11.1-8.9-15.7-17-15.7c-15.1,0-23.5,16.8-23.5,16.8l-28.8-19.3
	c0,0,14.6-34.1,55.8-34.1c25.9,0,54,14.8,54,48.5c0,49.4-63.8,58.9-64.9,79.3h67.3v33.2H289C287.9,2529.7,287.3,2524.2,287.3,2518.9
	L287.3,2518.9z"/>
<polygon points="414.8,2474.2 475.9,2377.6 523.3,2377.6 523.3,2465.5 542.1,2465.5 542.1,2497.6 523.3,2497.6 523.3,2535.9 
	485,2535.9 485,2497.6 414.8,2497.6 "/>
<path d="M485,2465.5v-35.4c0-8.6,1.3-17.7,1.3-17.7h-0.4c0,0-3.3,9.7-7.8,16.4l-23.9,36.3v0.4L485,2465.5L485,2465.5z"/>
<path d="M485,2465.5"/>
<rect x="60" y="2189.1" class="st2" width="639.8" height="600"/>
<g>
	<path class="st0" d="M1729.5,259.4L1033,41.9c-17.4-5.4-36.2-5.4-53.6,0L283,259.4c-37.6,11.8-63.2,46.5-63.2,85.8
		c0,963,486.5,1193.1,747.9,1316.7c12.1,5.8,25.3,8.6,38.4,8.6s26.3-2.8,38.6-8.6c261.3-123.6,747.9-353.8,747.9-1316.7
		C1792.6,305.9,1767,271.2,1729.5,259.4L1729.5,259.4z"/>
	<path class="st1" d="M1006.1,1481c-248-119.2-586.9-316.9-605.5-1069.7l605.5-189.1l605.5,189.1
		C1593.2,1164.1,1254.4,1361.7,1006.1,1481L1006.1,1481z"/>
	<path d="M1006.1,1481"/>
	<rect x="219.8" y="37.8" class="st2" width="1564.1" height="1662.9"/>
	<path class="st0" d="M503,486.4c0,222.4,57.8,397.4,136,532.3L1251.7,406l-245.6-76.7L503,486.4z M503,486.4"/>
	<path class="st0" d="M1006.1,1379.1c172-77.3,496-336.2,503.1-874.3L794,1220.1C876.6,1302.2,957.3,1353.5,1006.1,1379.1
		L1006.1,1379.1z M1006.1,1379.1"/>
</g>
<g>
	<g>
		<defs>
			<rect id="SVGID_1_" x="5112.8" y="1054.8" width="822" height="780.4"/>
		</defs>
		<clipPath id="SVGID_2_">
			<use xlink:href="#SVGID_1_"  style="overflow:visible;"/>
		</clipPath>
		<path class="st3" d="M5908.4,1407.2c-24.4-59.4-70.6-89.6-137.4-89.6h-80.1c13.5-30.5,28.6-74.8,28.6-128.2
			c0-14.7-1.2-29.8-3.9-45.4c-10.5-62-52.8-95-113.1-88.4c-23.9,2.7-32,25.4-51.8,80.3c-16.4,45.6-39,107.9-71.5,158
			c-24.1,36.8-66.7,65.9-102.4,83.9v-4.6h-264v392.1h264v-21.5c41.5-2,65.2-0.8,70.8,0.9l47.1,27.4l35.4,22
			c34.2,18.5,184.3,20.3,248.6,10.8c82.9-12.2,102.8-79.9,103.7-82.8C5888.7,1699.5,5945.7,1497.8,5908.4,1407.2L5908.4,1407.2z
			 M5832.4,1707.8c-0.3,1.3-12.5,38.6-61.1,45.6c-69.3,10.3-197.7,4.1-216.6-5.1c0,0.2-31.3-19.6-31.3-19.6l-59.4-33.4
			c-13.7-4.6-44.9-5.1-87.1-3.2v-258.3c42.5-17.3,108.4-54.2,146-111.6c35.9-55.2,59.6-120.7,76.9-168.7c0,0,15.1-37.9,18.8-46.7
			c26.3,0.2,40.8,14.6,46.2,45.9c2.2,12.4,3.1,24.5,3.1,36.2c0,77.7-40,139.6-40.7,140.4l-26.2,40.1h170.2c45.4,0,73,17.8,89.4,57.6
			C5886.2,1489.5,5848.8,1650.9,5832.4,1707.8L5832.4,1707.8z M5832.4,1707.8"/>
	</g>
</g>
<g>
	<path class="st0" d="M3746.9,504.8h-435.8c-38.1,0-69,30.9-69,69c0,38.1,30.9,69,69,69h435.8c38.1,0,69-30.9,69-69
		C3815.9,535.7,3785,504.8,3746.9,504.8L3746.9,504.8z M3648.6,589.3c-11.6,0-21-9.4-21-21c0-11.6,9.4-21,21-21c11.6,0,21,9.4,21,21
		C3669.6,579.9,3660.2,589.3,3648.6,589.3L3648.6,589.3z M3719.3,589.3c-11.6,0-21-9.4-21-21c0-11.6,9.4-21,21-21
		c11.6,0,21,9.4,21,21C3740.3,579.9,3730.9,589.3,3719.3,589.3L3719.3,589.3z M3719.3,589.3"/>
	<rect x="3242.1" y="240.6" class="st2" width="573.5" height="402.3"/>
	<path class="st0" d="M3746.9,482.1c22.5,0,43.1,8.1,59,21.6l-119.7-259c-1.1-2.5-3.6-4.1-6.4-4.1h-301.7c-2.7,0-5.2,1.6-6.4,4.1
		l-119.7,259c16-13.5,36.6-21.6,59-21.6H3746.9z"/>
	<rect x="3242.1" y="240.6" class="st2" width="573.5" height="402.3"/>
	<g>
		<path class="st1" d="M3465.6,395.2c0-4.2-1.5-7.7-4.5-10.6c-3-2.9-8.3-5.3-16-7.3c-9.4-2.3-16.8-5.8-22.1-10.3
			c-5.3-4.6-7.9-10.3-7.9-17.2c0-7.3,2.9-13.3,8.6-18.2c5.7-4.9,13.1-7.3,22.2-7.3c9.8,0,17.6,2.8,23.4,8.3c5.8,5.6,8.6,12,8.5,19.4
			l-0.2,0.4h-12c0-5.3-1.8-9.6-5.5-13.1c-3.7-3.4-8.4-5.2-14.1-5.2c-5.9,0-10.4,1.4-13.5,4.3c-3.1,2.9-4.7,6.6-4.7,11.1
			c0,4,1.7,7.4,5.1,10.1c3.4,2.7,9,5.1,16.7,7.1c9.4,2.4,16.5,6,21.4,10.7c4.9,4.7,7.3,10.6,7.3,17.5c0,7.5-2.9,13.5-8.8,18.1
			c-5.9,4.6-13.6,6.8-23.1,6.8c-9,0-16.9-2.5-23.8-7.5c-6.9-5-10.2-11.7-10-20.2l0.1-0.4h12c0,5.8,2.2,10.3,6.6,13.5
			c4.4,3.2,9.4,4.8,15,4.8c6,0,10.7-1.3,14.1-4C3463.9,403.4,3465.6,399.7,3465.6,395.2z"/>
		<path class="st1" d="M3545.5,395.2c0-4.2-1.5-7.7-4.5-10.6c-3-2.9-8.3-5.3-16-7.3c-9.4-2.3-16.8-5.8-22.1-10.3
			c-5.3-4.6-7.9-10.3-7.9-17.2c0-7.3,2.9-13.3,8.6-18.2c5.7-4.9,13.1-7.3,22.2-7.3c9.8,0,17.6,2.8,23.4,8.3c5.8,5.6,8.6,12,8.5,19.4
			l-0.2,0.4h-12c0-5.3-1.8-9.6-5.5-13.1c-3.7-3.4-8.4-5.2-14.1-5.2c-5.9,0-10.4,1.4-13.5,4.3c-3.1,2.9-4.7,6.6-4.7,11.1
			c0,4,1.7,7.4,5.1,10.1c3.4,2.7,9,5.1,16.7,7.1c9.4,2.4,16.5,6,21.4,10.7c4.9,4.7,7.3,10.6,7.3,17.5c0,7.5-2.9,13.5-8.8,18.1
			c-5.9,4.6-13.6,6.8-23.1,6.8c-9,0-16.9-2.5-23.8-7.5c-6.9-5-10.2-11.7-10-20.2l0.1-0.4h12c0,5.8,2.2,10.3,6.6,13.5
			c4.4,3.2,9.4,4.8,15,4.8c6,0,10.7-1.3,14.1-4C3543.8,403.4,3545.5,399.7,3545.5,395.2z"/>
		<path class="st1" d="M3575.9,418.6v-92.9h29.2c12.1,0,21.9,3.7,29.3,11.2c7.4,7.5,11.1,17.1,11.1,28.9v12.7
			c0,11.9-3.7,21.5-11.1,28.9c-7.4,7.4-17.1,11.1-29.3,11.1H3575.9z M3588.5,335.5v73.2h16.7c8.6,0,15.4-2.8,20.3-8.5
			c5-5.7,7.4-12.9,7.4-21.8v-12.8c0-8.8-2.5-16-7.4-21.6c-5-5.7-11.7-8.5-20.3-8.5H3588.5z"/>
	</g>
</g>
<g>
	<circle class="st0" cx="2580.2" cy="2767.8" r="760.5"/>
	<g>
		<path class="st1" d="M2448,3353.4l37.2-98.2c4.1-10.8-1.4-23-12.2-27.1l-39.4-14.9c-223.7-84.7-347.5-331.5-269.3-557.6
			c75.1-217.2,302.8-335.9,519.1-282.9l-24.7,65.2c-5.7,15.1,7.1,30.8,23,28.2l290-47.3c16-2.6,23.1-21.5,12.9-34l-185.9-227.5
			c-10.2-12.5-30.2-9.3-35.9,5.9l-26.9,71c-291.7-81.1-603.6,75.4-708.3,367c-108.7,302.8,54.8,636.4,355.7,750.3l37.6,14.3
			C2431.8,3369.7,2443.9,3364.2,2448,3353.4z"/>
		<path class="st1" d="M2612.8,3235.9l-32.4,1.3c-11.6,0.5-20.6,10.2-20.2,21.8l4.2,106.9c0.5,11.6,10.2,20.6,21.8,20.2l32.4-1.3
			c11.6-0.5,20.6-10.2,20.2-21.8l-4.2-106.9C2634.2,3244.5,2624.4,3235.5,2612.8,3235.9z"/>
		<path class="st1" d="M2774.2,3191.6l-29.6,13.3c-10.6,4.8-15.3,17.2-10.5,27.8l44,97.5c4.8,10.6,17.2,15.3,27.8,10.5l29.6-13.3
			c10.6-4.8,15.3-17.2,10.5-27.8l-44-97.5C2797.2,3191.5,2784.7,3186.8,2774.2,3191.6z"/>
		<path class="st1" d="M2907.1,3090l-22.4,23.4c-8,8.4-7.7,21.7,0.7,29.7l77.3,74c8.4,8,21.7,7.7,29.7-0.7l22.4-23.5
			c8-8.4,7.7-21.7-0.7-29.7l-77.3-74C2928.4,3081.3,2915.1,3081.6,2907.1,3090z"/>
		<path class="st1" d="M2992.3,2946l-12,30.1c-4.3,10.8,1,23,11.7,27.3l99.4,39.6c10.8,4.3,23-1,27.3-11.7l12-30.1
			c4.3-10.8-1-23-11.7-27.3l-99.4-39.6C3008.8,2930,2996.6,2935.2,2992.3,2946z"/>
		<path class="st1" d="M3038.3,2759.5c-11.6,0.1-21,9.5-20.9,21.1l0.2,32.4c0.1,11.6,9.5,21,21.1,20.9l107-0.5
			c11.6,0,21-9.5,20.9-21.1l-0.2-32.5c0-11.6-9.5-21-21.1-20.9L3038.3,2759.5z"/>
		<path class="st1" d="M2990.1,2590.4c-10.7,4.4-15.9,16.7-11.5,27.4l12.3,30c4.4,10.7,16.7,15.9,27.4,11.5l99-40.5
			c10.7-4.4,15.9-16.7,11.5-27.4l-12.3-30c-4.4-10.7-16.7-15.9-27.4-11.5L2990.1,2590.4z"/>
	</g>
	
		<rect x="2679.1" y="2592.4" transform="matrix(0.6281 -0.7781 0.7781 0.6281 -1267.2825 3632.2434)" class="st2" width="974.8" height="1099.1"/>
	<rect x="2500.2" y="2524.3" class="st1" width="160" height="486.9"/>
	<path class="st4" d="M3479.4,2774.9l-0.1,0.1l-9.4-7.6c-37.5-30.3-92.5-24.4-122.8,13.1c-30.3,37.5-24.4,92.5,13.1,122.8
		l-74.8-60.4c-37.5-30.3-92.5-24.4-122.8,13.1c-30.3,37.5-24.4,92.5,13.1,122.8l-68-54.9c-37.5-30.3-94.4-22.2-124.7,15.4
		c-30.3,37.5-23.9,96.5,13.7,126.8l-219.9-177.3c-37.5-30.3-92.5-24.4-122.8,13.1c-30.3,37.5-24.4,92.5,13.1,122.8l440.7,355.7
		c0,0-265-99-294.2,39c-10.2,48.2,19.5,95.8,67.6,106.6l358,80.2c0,0,216.8,45.9,326.8-90.5l146.3-181.2
		c101-125.1,80.4-307.1-44.7-408.1L3479.4,2774.9z M3479.4,2774.9"/>
</g>
</svg>
